<ttFont>
<head>
    <!-- Most of this table will be recalculated by the compiler -->
    <tableVersion value="1.0"/>
    <fontRevision value="1.0"/>
    <checkSumAdjustment value="0xe181e331"/>
    <magicNumber value="0x5f0f3cf5"/>
    <flags value="00000000 00011011"/>
    <unitsPerEm value="1000"/>
    <created value="Sat Dec  6 13:43:36 2025"/>
    <modified value="Sat Dec  6 13:51:18 2025"/>
    <xMin value="-62"/>
    <yMin value="-250"/>
    <xMax value="1011"/>
    <yMax value="750"/>
    <macStyle value="00000000 00000001"/>
    <lowestRecPPEM value="6"/>
    <fontDirectionHint value="2"/>
    <indexToLocFormat value="0"/>
    <glyphDataFormat value="0"/>
  </head>
    <TTGlyph name="A" xMin="35" yMin="0" xMax="720" yMax="698">
      <contour>
        <pt x="635" y="47" on="1"/>
        <pt x="720" y="47" on="1"/>
        <pt x="720" y="0" on="1"/>
        <pt x="707" y="1" on="0"/>
        <pt x="667" y="2" on="0"/>
        <pt x="625" y="3" on="0"/>
        <pt x="585" y="3" on="0"/>
        <pt x="570" y="3" on="1"/>
        <pt x="555" y="3" on="0"/>
        <pt x="510" y="3" on="0"/>
        <pt x="464" y="2" on="0"/>
        <pt x="421" y="1" on="0"/>
        <pt x="407" y="0" on="1"/>
        <pt x="407" y="47" on="1"/>
        <pt x="490" y="47" on="1"/>
        <pt x="443" y="182" on="1"/>
        <pt x="224" y="182" on="1"/>
        <pt x="185" y="71" on="1"/>
        <pt x="181" y="59" on="0"/>
        <pt x="181" y="59" on="1"/>
        <pt x="181" y="55" on="0"/>
        <pt x="203" y="50" on="0"/>
        <pt x="231" y="47" on="0"/>
        <pt x="256" y="47" on="0"/>
        <pt x="259" y="47" on="1"/>
        <pt x="259" y="0" on="1"/>
        <pt x="241" y="1" on="0"/>
        <pt x="173" y="3" on="0"/>
        <pt x="141" y="3" on="1"/>
        <pt x="113" y="3" on="0"/>
        <pt x="57" y="1" on="0"/>
        <pt x="35" y="0" on="1"/>
        <pt x="35" y="47" on="1"/>
        <pt x="46" y="47" on="0"/>
        <pt x="78" y="47" on="0"/>
        <pt x="93" y="49" on="1"/>
        <pt x="115" y="51" on="0"/>
        <pt x="124" y="59" on="0"/>
        <pt x="128" y="70" on="1"/>
        <pt x="340" y="672" on="1"/>
        <pt x="347" y="692" on="0"/>
        <pt x="364" y="698" on="0"/>
        <pt x="378" y="698" on="1"/>
        <pt x="392" y="698" on="0"/>
        <pt x="408" y="691" on="0"/>
        <pt x="415" y="672" on="1"/>
      </contour>
      <contour>
        <pt x="240" y="229" on="1"/>
        <pt x="426" y="229" on="1"/>
        <pt x="333" y="493" on="1"/>
      </contour>
    </TTGlyph>
    <TTGlyph name="AE" xMin="35" yMin="0" xMax="877" yMax="686">
      <contour>
        <pt x="831" y="0" on="1"/>
        <pt x="348" y="0" on="1"/>
        <pt x="348" y="47" on="1"/>
        <pt x="419" y="47" on="1"/>
        <pt x="419" y="306" on="1"/>
        <pt x="271" y="306" on="1"/>
        <pt x="186" y="72" on="1"/>
        <pt x="185" y="70" on="0"/>
        <pt x="182" y="61" on="0"/>
        <pt x="182" y="60" on="1"/>
        <pt x="182" y="55" on="0"/>
        <pt x="206" y="50" on="0"/>
        <pt x="235" y="47" on="0"/>
        <pt x="259" y="47" on="0"/>
        <pt x="260" y="47" on="1"/>
        <pt x="260" y="0" on="1"/>
        <pt x="247" y="1" on="0"/>
        <pt x="213" y="2" on="0"/>
        <pt x="178" y="3" on="0"/>
        <pt x="149" y="3" on="0"/>
        <pt x="141" y="3" on="1"/>
        <pt x="120" y="3" on="0"/>
        <pt x="59" y="1" on="0"/>
        <pt x="35" y="0" on="1"/>
        <pt x="35" y="47" on="1"/>
        <pt x="67" y="47" on="0"/>
        <pt x="103" y="49" on="0"/>
        <pt x="121" y="55" on="0"/>
        <pt x="127" y="64" on="0"/>
        <pt x="129" y="70" on="1"/>
        <pt x="336" y="639" on="1"/>
        <pt x="269" y="639" on="1"/>
        <pt x="269" y="686" on="1"/>
        <pt x="818" y="686" on="1"/>
        <pt x="849" y="445" on="1"/>
        <pt x="802" y="445" on="1"/>
        <pt x="797" y="486" on="0"/>
        <pt x="783" y="557" on="0"/>
        <pt x="749" y="609" on="0"/>
        <pt x="686" y="639" on="0"/>
        <pt x="632" y="639" on="1"/>
        <pt x="551" y="639" on="1"/>
        <pt x="551" y="353" on="1"/>
        <pt x="582" y="353" on="1"/>
        <pt x="617" y="353" on="0"/>
        <pt x="655" y="369" on="0"/>
        <pt x="675" y="399" on="0"/>
        <pt x="679" y="442" on="0"/>
        <pt x="679" y="470" on="1"/>
        <pt x="726" y="470" on="1"/>
        <pt x="726" y="189" on="1"/>
        <pt x="679" y="189" on="1"/>
        <pt x="679" y="217" on="0"/>
        <pt x="675" y="261" on="0"/>
        <pt x="655" y="291" on="0"/>
        <pt x="617" y="306" on="0"/>
        <pt x="582" y="306" on="1"/>
        <pt x="551" y="306" on="1"/>
        <pt x="551" y="47" on="1"/>
        <pt x="637" y="47" on="1"/>
        <pt x="695" y="47" on="0"/>
        <pt x="763" y="81" on="0"/>
        <pt x="803" y="142" on="0"/>
        <pt x="822" y="225" on="0"/>
        <pt x="830" y="274" on="1"/>
        <pt x="877" y="274" on="1"/>
      </contour>
      <contour>
        <pt x="288" y="353" on="1"/>
        <pt x="419" y="353" on="1"/>
        <pt x="419" y="639" on="1"/>
        <pt x="393" y="639" on="1"/>
      </contour>
    </TTGlyph>
    <TTGlyph name="B" xMin="34" yMin="0" xMax="654" yMax="686">
      <contour>
        <pt x="412" y="686" on="1"/>
        <pt x="466" y="686" on="0"/>
        <pt x="547" y="657" on="0"/>
        <pt x="601" y="609" on="0"/>
        <pt x="627" y="547" on="0"/>
        <pt x="627" y="514" on="1"/>
        <pt x="627" y="458" on="0"/>
        <pt x="551" y="373" on="0"/>
        <pt x="479" y="359" on="1"/>
        <pt x="523" y="353" on="0"/>
        <pt x="589" y="322" on="0"/>
        <pt x="633" y="275" on="0"/>
        <pt x="654" y="218" on="0"/>
        <pt x="654" y="186" on="1"/>
        <pt x="654" y="150" on="0"/>
        <pt x="628" y="82" on="0"/>
        <pt x="574" y="31" on="0"/>
        <pt x="493" y="0" on="0"/>
        <pt x="438" y="0" on="1"/>
        <pt x="34" y="0" on="1"/>
        <pt x="34" y="47" on="1"/>
        <pt x="128" y="47" on="1"/>
        <pt x="128" y="639" on="1"/>
        <pt x="34" y="639" on="1"/>
        <pt x="34" y="686" on="1"/>
      </contour>
      <contour>
        <pt x="376" y="375" on="1"/>
        <pt x="406" y="375" on="0"/>
        <pt x="448" y="398" on="0"/>
        <pt x="474" y="436" on="0"/>
        <pt x="485" y="486" on="0"/>
        <pt x="485" y="514" on="1"/>
        <pt x="485" y="561" on="0"/>
        <pt x="463" y="612" on="0"/>
        <pt x="434" y="635" on="0"/>
        <pt x="406" y="639" on="0"/>
        <pt x="399" y="639" on="1"/>
        <pt x="259" y="639" on="1"/>
        <pt x="259" y="375" on="1"/>
      </contour>
      <contour>
        <pt x="401" y="47" on="1"/>
        <pt x="432" y="47" on="0"/>
        <pt x="473" y="71" on="0"/>
        <pt x="497" y="111" on="0"/>
        <pt x="507" y="162" on="0"/>
        <pt x="507" y="188" on="1"/>
        <pt x="507" y="191" on="0"/>
        <pt x="506" y="213" on="0"/>
        <pt x="502" y="243" on="0"/>
        <pt x="494" y="277" on="0"/>
        <pt x="486" y="292" on="1"/>
        <pt x="477" y="310" on="0"/>
        <pt x="457" y="329" on="0"/>
        <pt x="437" y="338" on="0"/>
        <pt x="419" y="339" on="0"/>
        <pt x="411" y="339" on="1"/>
        <pt x="259" y="339" on="1"/>
        <pt x="259" y="47" on="1"/>
      </contour>
    </TTGlyph>
    <TTGlyph name="C" xMin="56" yMin="-11" xMax="665" yMax="697">
      <contour>
        <pt x="665" y="454" on="1"/>
        <pt x="665" y="434" on="0"/>
        <pt x="658" y="426" on="0"/>
        <pt x="638" y="426" on="1"/>
        <pt x="625" y="426" on="0"/>
        <pt x="614" y="430" on="0"/>
        <pt x="612" y="442" on="1"/>
        <pt x="604" y="497" on="0"/>
        <pt x="567" y="575" on="0"/>
        <pt x="516" y="626" on="0"/>
        <pt x="456" y="650" on="0"/>
        <pt x="426" y="650" on="1"/>
        <pt x="410" y="650" on="0"/>
        <pt x="367" y="644" on="0"/>
        <pt x="320" y="626" on="0"/>
        <pt x="275" y="594" on="0"/>
        <pt x="256" y="568" on="1"/>
        <pt x="238" y="544" on="0"/>
        <pt x="219" y="485" on="0"/>
        <pt x="210" y="425" on="0"/>
        <pt x="209" y="367" on="0"/>
        <pt x="209" y="343" on="1"/>
        <pt x="209" y="274" on="0"/>
        <pt x="224" y="173" on="0"/>
        <pt x="250" y="128" on="1"/>
        <pt x="278" y="82" on="0"/>
        <pt x="374" y="36" on="0"/>
        <pt x="428" y="36" on="1"/>
        <pt x="460" y="36" on="0"/>
        <pt x="526" y="60" on="0"/>
        <pt x="580" y="108" on="0"/>
        <pt x="615" y="182" on="0"/>
        <pt x="618" y="231" on="1"/>
        <pt x="619" y="244" on="0"/>
        <pt x="631" y="248" on="0"/>
        <pt x="641" y="248" on="1"/>
        <pt x="654" y="248" on="0"/>
        <pt x="665" y="242" on="0"/>
        <pt x="665" y="227" on="1"/>
        <pt x="665" y="187" on="0"/>
        <pt x="631" y="102" on="0"/>
        <pt x="565" y="33" on="0"/>
        <pt x="469" y="-11" on="0"/>
        <pt x="408" y="-11" on="1"/>
        <pt x="333" y="-11" on="0"/>
        <pt x="204" y="37" on="0"/>
        <pt x="109" y="128" on="0"/>
        <pt x="56" y="259" on="0"/>
        <pt x="56" y="343" on="1"/>
        <pt x="56" y="428" on="0"/>
        <pt x="111" y="560" on="0"/>
        <pt x="205" y="650" on="0"/>
        <pt x="334" y="697" on="0"/>
        <pt x="407" y="697" on="1"/>
        <pt x="457" y="697" on="0"/>
        <pt x="535" y="665" on="0"/>
        <pt x="570" y="635" on="1"/>
        <pt x="628" y="688" on="1"/>
        <pt x="634" y="693" on="0"/>
        <pt x="640" y="697" on="0"/>
        <pt x="647" y="697" on="1"/>
        <pt x="661" y="697" on="0"/>
        <pt x="665" y="683" on="0"/>
        <pt x="665" y="669" on="1"/>
      </contour>
    </TTGlyph>
    <TTGlyph name="D" xMin="34" yMin="0" xMax="710" yMax="686">
      <contour>
        <pt x="406" y="686" on="1"/>
        <pt x="468" y="686" on="0"/>
        <pt x="578" y="642" on="0"/>
        <pt x="661" y="555" on="0"/>
        <pt x="710" y="424" on="0"/>
        <pt x="710" y="337" on="1"/>
        <pt x="710" y="254" on="0"/>
        <pt x="662" y="128" on="0"/>
        <pt x="579" y="43" on="0"/>
        <pt x="469" y="0" on="0"/>
        <pt x="406" y="0" on="1"/>
        <pt x="34" y="0" on="1"/>
        <pt x="34" y="47" on="1"/>
        <pt x="128" y="47" on="1"/>
        <pt x="128" y="639" on="1"/>
        <pt x="34" y="639" on="1"/>
        <pt x="34" y="686" on="1"/>
      </contour>
      <contour>
        <pt x="365" y="47" on="1"/>
        <pt x="419" y="47" on="0"/>
        <pt x="507" y="90" on="0"/>
        <pt x="531" y="132" on="1"/>
        <pt x="549" y="165" on="0"/>
        <pt x="563" y="258" on="0"/>
        <pt x="563" y="337" on="1"/>
        <pt x="563" y="420" on="0"/>
        <pt x="549" y="517" on="0"/>
        <pt x="531" y="549" on="1"/>
        <pt x="506" y="595" on="0"/>
        <pt x="418" y="639" on="0"/>
        <pt x="364" y="639" on="1"/>
        <pt x="264" y="639" on="1"/>
        <pt x="264" y="47" on="1"/>
      </contour>
    </TTGlyph>
    <TTGlyph name="E" xMin="34" yMin="0" xMax="627" yMax="680">
      <contour>
        <pt x="581" y="0" on="1"/>
        <pt x="34" y="0" on="1"/>
        <pt x="34" y="47" on="1"/>
        <pt x="128" y="47" on="1"/>
        <pt x="128" y="633" on="1"/>
        <pt x="34" y="633" on="1"/>
        <pt x="34" y="680" on="1"/>
        <pt x="568" y="680" on="1"/>
        <pt x="599" y="439" on="1"/>
        <pt x="552" y="439" on="1"/>
        <pt x="546" y="481" on="0"/>
        <pt x="531" y="552" on="0"/>
        <pt x="495" y="604" on="0"/>
        <pt x="427" y="633" on="0"/>
        <pt x="369" y="633" on="1"/>
        <pt x="270" y="633" on="1"/>
        <pt x="270" y="376" on="1"/>
        <pt x="292" y="376" on="1"/>
        <pt x="326" y="376" on="0"/>
        <pt x="364" y="392" on="0"/>
        <pt x="383" y="422" on="0"/>
        <pt x="387" y="466" on="0"/>
        <pt x="387" y="493" on="1"/>
        <pt x="434" y="493" on="1"/>
        <pt x="434" y="212" on="1"/>
        <pt x="387" y="212" on="1"/>
        <pt x="387" y="239" on="0"/>
        <pt x="383" y="283" on="0"/>
        <pt x="364" y="313" on="0"/>
        <pt x="326" y="329" on="0"/>
        <pt x="292" y="329" on="1"/>
        <pt x="270" y="329" on="1"/>
        <pt x="270" y="47" on="1"/>
        <pt x="373" y="47" on="1"/>
        <pt x="435" y="47" on="0"/>
        <pt x="510" y="81" on="0"/>
        <pt x="552" y="142" on="0"/>
        <pt x="572" y="225" on="0"/>
        <pt x="580" y="274" on="1"/>
        <pt x="627" y="274" on="1"/>
      </contour>
    </TTGlyph>
    <TTGlyph name="F" xMin="34" yMin="0" xMax="585" yMax="680">
      <contour>
        <pt x="585" y="439" on="1"/>
        <pt x="538" y="439" on="1"/>
        <pt x="533" y="480" on="0"/>
        <pt x="519" y="551" on="0"/>
        <pt x="483" y="603" on="0"/>
        <pt x="417" y="633" on="0"/>
        <pt x="360" y="633" on="1"/>
        <pt x="270" y="633" on="1"/>
        <pt x="270" y="364" on="1"/>
        <pt x="287" y="364" on="1"/>
        <pt x="320" y="364" on="0"/>
        <pt x="358" y="379" on="0"/>
        <pt x="377" y="409" on="0"/>
        <pt x="381" y="453" on="0"/>
        <pt x="381" y="481" on="1"/>
        <pt x="428" y="481" on="1"/>
        <pt x="428" y="200" on="1"/>
        <pt x="381" y="200" on="1"/>
        <pt x="381" y="229" on="0"/>
        <pt x="377" y="272" on="0"/>
        <pt x="358" y="302" on="0"/>
        <pt x="320" y="317" on="0"/>
        <pt x="287" y="317" on="1"/>
        <pt x="270" y="317" on="1"/>
        <pt x="270" y="47" on="1"/>
        <pt x="388" y="47" on="1"/>
        <pt x="388" y="0" on="1"/>
        <pt x="373" y="1" on="0"/>
        <pt x="324" y="2" on="0"/>
        <pt x="271" y="3" on="0"/>
        <pt x="220" y="3" on="0"/>
        <pt x="203" y="3" on="1"/>
        <pt x="188" y="3" on="0"/>
        <pt x="141" y="3" on="0"/>
        <pt x="92" y="2" on="0"/>
        <pt x="47" y="1" on="0"/>
        <pt x="34" y="0" on="1"/>
        <pt x="34" y="47" on="1"/>
        <pt x="128" y="47" on="1"/>
        <pt x="128" y="633" on="1"/>
        <pt x="34" y="633" on="1"/>
        <pt x="34" y="680" on="1"/>
        <pt x="554" y="680" on="1"/>
      </contour>
    </TTGlyph>
    <TTGlyph name="G" xMin="56" yMin="-11" xMax="735" yMax="697">
      <contour>
        <pt x="666" y="28" on="1"/>
        <pt x="666" y="17" on="0"/>
        <pt x="663" y="0" on="0"/>
        <pt x="652" y="0" on="1"/>
        <pt x="649" y="0" on="0"/>
        <pt x="627" y="9" on="0"/>
        <pt x="597" y="24" on="0"/>
        <pt x="566" y="43" on="0"/>
        <pt x="555" y="52" on="1"/>
        <pt x="549" y="44" on="0"/>
        <pt x="527" y="22" on="0"/>
        <pt x="491" y="3" on="0"/>
        <pt x="441" y="-11" on="0"/>
        <pt x="408" y="-11" on="1"/>
        <pt x="334" y="-11" on="0"/>
        <pt x="206" y="36" on="0"/>
        <pt x="111" y="126" on="0"/>
        <pt x="56" y="258" on="0"/>
        <pt x="56" y="343" on="1"/>
        <pt x="56" y="427" on="0"/>
        <pt x="110" y="559" on="0"/>
        <pt x="204" y="649" on="0"/>
        <pt x="333" y="697" on="0"/>
        <pt x="408" y="697" on="1"/>
        <pt x="447" y="697" on="0"/>
        <pt x="530" y="671" on="0"/>
        <pt x="571" y="635" on="1"/>
        <pt x="629" y="688" on="1"/>
        <pt x="635" y="693" on="0"/>
        <pt x="641" y="697" on="0"/>
        <pt x="648" y="697" on="1"/>
        <pt x="662" y="697" on="0"/>
        <pt x="666" y="683" on="0"/>
        <pt x="666" y="669" on="1"/>
        <pt x="666" y="454" on="1"/>
        <pt x="666" y="434" on="0"/>
        <pt x="659" y="426" on="0"/>
        <pt x="639" y="426" on="1"/>
        <pt x="626" y="426" on="0"/>
        <pt x="615" y="430" on="0"/>
        <pt x="613" y="442" on="1"/>
        <pt x="605" y="498" on="0"/>
        <pt x="567" y="577" on="0"/>
        <pt x="516" y="627" on="0"/>
        <pt x="456" y="650" on="0"/>
        <pt x="427" y="650" on="1"/>
        <pt x="411" y="650" on="0"/>
        <pt x="366" y="644" on="0"/>
        <pt x="317" y="625" on="0"/>
        <pt x="269" y="588" on="0"/>
        <pt x="249" y="557" on="1"/>
        <pt x="234" y="534" on="0"/>
        <pt x="218" y="476" on="0"/>
        <pt x="210" y="418" on="0"/>
        <pt x="209" y="363" on="0"/>
        <pt x="209" y="343" on="1"/>
        <pt x="209" y="318" on="0"/>
        <pt x="211" y="262" on="0"/>
        <pt x="219" y="206" on="0"/>
        <pt x="235" y="152" on="0"/>
        <pt x="250" y="128" on="1"/>
        <pt x="268" y="100" on="0"/>
        <pt x="315" y="64" on="0"/>
        <pt x="364" y="44" on="0"/>
        <pt x="411" y="36" on="0"/>
        <pt x="429" y="36" on="1"/>
        <pt x="440" y="36" on="0"/>
        <pt x="472" y="43" on="0"/>
        <pt x="502" y="62" on="0"/>
        <pt x="524" y="98" on="0"/>
        <pt x="524" y="128" on="1"/>
        <pt x="524" y="229" on="1"/>
        <pt x="399" y="229" on="1"/>
        <pt x="399" y="276" on="1"/>
        <pt x="416" y="275" on="0"/>
        <pt x="465" y="274" on="0"/>
        <pt x="517" y="273" on="0"/>
        <pt x="568" y="273" on="0"/>
        <pt x="586" y="273" on="1"/>
        <pt x="601" y="273" on="0"/>
        <pt x="641" y="273" on="0"/>
        <pt x="682" y="274" on="0"/>
        <pt x="721" y="275" on="0"/>
        <pt x="735" y="276" on="1"/>
        <pt x="735" y="229" on="1"/>
        <pt x="666" y="229" on="1"/>
      </contour>
    </TTGlyph>
    <TTGlyph name="Gamma" xMin="34" yMin="0" xMax="557" yMax="680">
      <contour>
        <pt x="557" y="439" on="1"/>
        <pt x="510" y="439" on="1"/>
        <pt x="504" y="481" on="0"/>
        <pt x="491" y="552" on="0"/>
        <pt x="457" y="604" on="0"/>
        <pt x="396" y="633" on="0"/>
        <pt x="342" y="633" on="1"/>
        <pt x="270" y="633" on="1"/>
        <pt x="270" y="47" on="1"/>
        <pt x="388" y="47" on="1"/>
        <pt x="388" y="0" on="1"/>
        <pt x="373" y="1" on="0"/>
        <pt x="324" y="2" on="0"/>
        <pt x="271" y="3" on="0"/>
        <pt x="220" y="3" on="0"/>
        <pt x="203" y="3" on="1"/>
        <pt x="188" y="3" on="0"/>
        <pt x="141" y="3" on="0"/>
        <pt x="92" y="2" on="0"/>
        <pt x="47" y="1" on="0"/>
        <pt x="34" y="0" on="1"/>
        <pt x="34" y="47" on="1"/>
        <pt x="128" y="47" on="1"/>
        <pt x="128" y="633" on="1"/>
        <pt x="34" y="633" on="1"/>
        <pt x="34" y="680" on="1"/>
        <pt x="526" y="680" on="1"/>
      </contour>
    </TTGlyph>
    <TTGlyph name="H" xMin="34" yMin="0" xMax="748" yMax="686">
      <contour>
        <pt x="654" y="47" on="1"/>
        <pt x="748" y="47" on="1"/>
        <pt x="748" y="0" on="1"/>
        <pt x="735" y="1" on="0"/>
        <pt x="691" y="2" on="0"/>
        <pt x="643" y="3" on="0"/>
        <pt x="598" y="3" on="0"/>
        <pt x="583" y="3" on="1"/>
        <pt x="568" y="3" on="0"/>
        <pt x="523" y="3" on="0"/>
        <pt x="475" y="2" on="0"/>
        <pt x="431" y="1" on="0"/>
        <pt x="418" y="0" on="1"/>
        <pt x="418" y="47" on="1"/>
        <pt x="512" y="47" on="1"/>
        <pt x="512" y="333" on="1"/>
        <pt x="270" y="333" on="1"/>
        <pt x="270" y="47" on="1"/>
        <pt x="364" y="47" on="1"/>
        <pt x="364" y="0" on="1"/>
        <pt x="351" y="1" on="0"/>
        <pt x="307" y="2" on="0"/>
        <pt x="259" y="3" on="0"/>
        <pt x="214" y="3" on="0"/>
        <pt x="199" y="3" on="1"/>
        <pt x="184" y="3" on="0"/>
        <pt x="139" y="3" on="0"/>
        <pt x="91" y="2" on="0"/>
        <pt x="47" y="1" on="0"/>
        <pt x="34" y="0" on="1"/>
        <pt x="34" y="47" on="1"/>
        <pt x="128" y="47" on="1"/>
        <pt x="128" y="639" on="1"/>
        <pt x="34" y="639" on="1"/>
        <pt x="34" y="686" on="1"/>
        <pt x="47" y="685" on="0"/>
        <pt x="91" y="684" on="0"/>
        <pt x="139" y="683" on="0"/>
        <pt x="184" y="683" on="0"/>
        <pt x="199" y="683" on="1"/>
        <pt x="214" y="683" on="0"/>
        <pt x="259" y="683" on="0"/>
        <pt x="307" y="684" on="0"/>
        <pt x="351" y="685" on="0"/>
        <pt x="364" y="686" on="1"/>
        <pt x="364" y="639" on="1"/>
        <pt x="270" y="639" on="1"/>
        <pt x="270" y="380" on="1"/>
        <pt x="512" y="380" on="1"/>
        <pt x="512" y="639" on="1"/>
        <pt x="418" y="639" on="1"/>
        <pt x="418" y="686" on="1"/>
        <pt x="431" y="685" on="0"/>
        <pt x="475" y="684" on="0"/>
        <pt x="523" y="683" on="0"/>
        <pt x="568" y="683" on="0"/>
        <pt x="583" y="683" on="1"/>
        <pt x="598" y="683" on="0"/>
        <pt x="643" y="683" on="0"/>
        <pt x="691" y="684" on="0"/>
        <pt x="735" y="685" on="0"/>
        <pt x="748" y="686" on="1"/>
        <pt x="748" y="639" on="1"/>
        <pt x="654" y="639" on="1"/>
      </contour>
    </TTGlyph>
    <TTGlyph name="I" xMin="28" yMin="0" xMax="368" yMax="686">
      <contour>
        <pt x="269" y="47" on="1"/>
        <pt x="368" y="47" on="1"/>
        <pt x="368" y="0" on="1"/>
        <pt x="355" y="1" on="0"/>
        <pt x="310" y="2" on="0"/>
        <pt x="260" y="3" on="0"/>
        <pt x="213" y="3" on="0"/>
        <pt x="198" y="3" on="1"/>
        <pt x="183" y="3" on="0"/>
        <pt x="136" y="3" on="0"/>
        <pt x="86" y="2" on="0"/>
        <pt x="42" y="1" on="0"/>
        <pt x="28" y="0" on="1"/>
        <pt x="28" y="47" on="1"/>
        <pt x="127" y="47" on="1"/>
        <pt x="127" y="639" on="1"/>
        <pt x="28" y="639" on="1"/>
        <pt x="28" y="686" on="1"/>
        <pt x="42" y="685" on="0"/>
        <pt x="86" y="684" on="0"/>
        <pt x="136" y="683" on="0"/>
        <pt x="183" y="683" on="0"/>
        <pt x="198" y="683" on="1"/>
        <pt x="213" y="683" on="0"/>
        <pt x="260" y="683" on="0"/>
        <pt x="310" y="684" on="0"/>
        <pt x="355" y="685" on="0"/>
        <pt x="368" y="686" on="1"/>
        <pt x="368" y="639" on="1"/>
        <pt x="269" y="639" on="1"/>
      </contour>
    </TTGlyph>
    <TTGlyph name="J" xMin="0" yMin="-11" xMax="459" yMax="686">
      <contour>
        <pt x="388" y="149" on="1"/>
        <pt x="388" y="110" on="0"/>
        <pt x="356" y="51" on="0"/>
        <pt x="299" y="10" on="0"/>
        <pt x="222" y="-11" on="0"/>
        <pt x="176" y="-11" on="1"/>
        <pt x="137" y="-11" on="0"/>
        <pt x="73" y="8" on="0"/>
        <pt x="26" y="41" on="0"/>
        <pt x="0" y="87" on="0"/>
        <pt x="0" y="114" on="1"/>
        <pt x="0" y="153" on="0"/>
        <pt x="49" y="191" on="0"/>
        <pt x="77" y="191" on="1"/>
        <pt x="89" y="191" on="0"/>
        <pt x="116" y="182" on="0"/>
        <pt x="139" y="163" on="0"/>
        <pt x="153" y="134" on="0"/>
        <pt x="153" y="114" on="1"/>
        <pt x="153" y="96" on="0"/>
        <pt x="140" y="69" on="0"/>
        <pt x="124" y="52" on="0"/>
        <pt x="107" y="43" on="0"/>
        <pt x="103" y="41" on="1"/>
        <pt x="125" y="30" on="0"/>
        <pt x="166" y="25" on="0"/>
        <pt x="171" y="25" on="1"/>
        <pt x="203" y="25" on="0"/>
        <pt x="252" y="80" on="0"/>
        <pt x="252" y="147" on="1"/>
        <pt x="252" y="639" on="1"/>
        <pt x="129" y="639" on="1"/>
        <pt x="129" y="686" on="1"/>
        <pt x="144" y="685" on="0"/>
        <pt x="193" y="684" on="0"/>
        <pt x="245" y="683" on="0"/>
        <pt x="295" y="683" on="0"/>
        <pt x="312" y="683" on="1"/>
        <pt x="327" y="683" on="0"/>
        <pt x="366" y="683" on="0"/>
        <pt x="407" y="684" on="0"/>
        <pt x="445" y="685" on="0"/>
        <pt x="459" y="686" on="1"/>
        <pt x="459" y="639" on="1"/>
        <pt x="388" y="639" on="1"/>
      </contour>
    </TTGlyph>
    <TTGlyph name="K" xMin="34" yMin="0" xMax="741" yMax="686">
      <contour>
        <pt x="657" y="66" on="1"/>
        <pt x="660" y="61" on="0"/>
        <pt x="667" y="54" on="0"/>
        <pt x="679" y="49" on="0"/>
        <pt x="700" y="47" on="0"/>
        <pt x="718" y="47" on="1"/>
        <pt x="741" y="47" on="1"/>
        <pt x="741" y="0" on="1"/>
        <pt x="709" y="2" on="0"/>
        <pt x="639" y="3" on="0"/>
        <pt x="607" y="3" on="1"/>
        <pt x="592" y="3" on="0"/>
        <pt x="549" y="3" on="0"/>
        <pt x="503" y="2" on="0"/>
        <pt x="461" y="1" on="0"/>
        <pt x="448" y="0" on="1"/>
        <pt x="448" y="47" on="1"/>
        <pt x="456" y="47" on="0"/>
        <pt x="478" y="47" on="0"/>
        <pt x="498" y="49" on="0"/>
        <pt x="512" y="54" on="0"/>
        <pt x="512" y="58" on="1"/>
        <pt x="512" y="59" on="0"/>
        <pt x="511" y="63" on="0"/>
        <pt x="506" y="69" on="1"/>
        <pt x="338" y="333" on="1"/>
        <pt x="270" y="266" on="1"/>
        <pt x="270" y="47" on="1"/>
        <pt x="364" y="47" on="1"/>
        <pt x="364" y="0" on="1"/>
        <pt x="351" y="1" on="0"/>
        <pt x="307" y="2" on="0"/>
        <pt x="259" y="3" on="0"/>
        <pt x="214" y="3" on="0"/>
        <pt x="199" y="3" on="1"/>
        <pt x="184" y="3" on="0"/>
        <pt x="139" y="3" on="0"/>
        <pt x="91" y="2" on="0"/>
        <pt x="47" y="1" on="0"/>
        <pt x="34" y="0" on="1"/>
        <pt x="34" y="47" on="1"/>
        <pt x="128" y="47" on="1"/>
        <pt x="128" y="639" on="1"/>
        <pt x="34" y="639" on="1"/>
        <pt x="34" y="686" on="1"/>
        <pt x="47" y="685" on="0"/>
        <pt x="91" y="684" on="0"/>
        <pt x="139" y="683" on="0"/>
        <pt x="184" y="683" on="0"/>
        <pt x="199" y="683" on="1"/>
        <pt x="214" y="683" on="0"/>
        <pt x="259" y="683" on="0"/>
        <pt x="307" y="684" on="0"/>
        <pt x="351" y="685" on="0"/>
        <pt x="364" y="686" on="1"/>
        <pt x="364" y="639" on="1"/>
        <pt x="270" y="639" on="1"/>
        <pt x="270" y="332" on="1"/>
        <pt x="560" y="618" on="1"/>
        <pt x="565" y="622" on="0"/>
        <pt x="567" y="626" on="0"/>
        <pt x="569" y="629" on="1"/>
        <pt x="550" y="637" on="0"/>
        <pt x="518" y="639" on="0"/>
        <pt x="505" y="639" on="1"/>
        <pt x="505" y="686" on="1"/>
        <pt x="533" y="684" on="0"/>
        <pt x="606" y="683" on="0"/>
        <pt x="635" y="683" on="1"/>
        <pt x="682" y="683" on="0"/>
        <pt x="727" y="686" on="1"/>
        <pt x="727" y="639" on="1"/>
        <pt x="697" y="639" on="0"/>
        <pt x="663" y="637" on="0"/>
        <pt x="642" y="630" on="0"/>
        <pt x="628" y="618" on="0"/>
        <pt x="617" y="608" on="1"/>
        <pt x="429" y="423" on="1"/>
      </contour>
    </TTGlyph>
    <TTGlyph name="L" xMin="34" yMin="0" xMax="557" yMax="686">
      <contour>
        <pt x="526" y="0" on="1"/>
        <pt x="34" y="0" on="1"/>
        <pt x="34" y="47" on="1"/>
        <pt x="128" y="47" on="1"/>
        <pt x="128" y="639" on="1"/>
        <pt x="34" y="639" on="1"/>
        <pt x="34" y="686" on="1"/>
        <pt x="47" y="685" on="0"/>
        <pt x="92" y="684" on="0"/>
        <pt x="141" y="683" on="0"/>
        <pt x="188" y="683" on="0"/>
        <pt x="203" y="683" on="1"/>
        <pt x="220" y="683" on="0"/>
        <pt x="270" y="683" on="0"/>
        <pt x="324" y="684" on="0"/>
        <pt x="373" y="685" on="0"/>
        <pt x="388" y="686" on="1"/>
        <pt x="388" y="639" on="1"/>
        <pt x="270" y="639" on="1"/>
        <pt x="270" y="47" on="1"/>
        <pt x="336" y="47" on="1"/>
        <pt x="392" y="47" on="0"/>
        <pt x="459" y="98" on="0"/>
        <pt x="495" y="169" on="0"/>
        <pt x="507" y="247" on="0"/>
        <pt x="510" y="274" on="1"/>
        <pt x="557" y="274" on="1"/>
      </contour>
    </TTGlyph>
    <TTGlyph name="Lambda" xMin="35" yMin="0" xMax="664" yMax="698">
      <contour>
        <pt x="590" y="47" on="1"/>
        <pt x="664" y="47" on="1"/>
        <pt x="664" y="0" on="1"/>
        <pt x="650" y="1" on="0"/>
        <pt x="613" y="2" on="0"/>
        <pt x="573" y="3" on="0"/>
        <pt x="535" y="3" on="0"/>
        <pt x="520" y="3" on="1"/>
        <pt x="505" y="3" on="0"/>
        <pt x="460" y="3" on="0"/>
        <pt x="413" y="2" on="0"/>
        <pt x="370" y="1" on="0"/>
        <pt x="356" y="0" on="1"/>
        <pt x="356" y="47" on="1"/>
        <pt x="440" y="47" on="1"/>
        <pt x="303" y="469" on="1"/>
        <pt x="169" y="57" on="1"/>
        <pt x="189" y="49" on="0"/>
        <pt x="234" y="47" on="0"/>
        <pt x="249" y="47" on="1"/>
        <pt x="249" y="0" on="1"/>
        <pt x="228" y="1" on="0"/>
        <pt x="161" y="3" on="0"/>
        <pt x="132" y="3" on="1"/>
        <pt x="109" y="3" on="0"/>
        <pt x="58" y="2" on="0"/>
        <pt x="35" y="0" on="1"/>
        <pt x="35" y="47" on="1"/>
        <pt x="63" y="47" on="0"/>
        <pt x="94" y="50" on="0"/>
        <pt x="110" y="55" on="0"/>
        <pt x="115" y="64" on="0"/>
        <pt x="117" y="70" on="1"/>
        <pt x="313" y="673" on="1"/>
        <pt x="319" y="692" on="0"/>
        <pt x="338" y="698" on="0"/>
        <pt x="350" y="698" on="1"/>
        <pt x="361" y="698" on="0"/>
        <pt x="380" y="692" on="0"/>
        <pt x="386" y="673" on="1"/>
      </contour>
    </TTGlyph>
    <TTGlyph name="M" xMin="34" yMin="0" xMax="915" yMax="686">
      <contour>
        <pt x="666" y="661" on="1"/>
        <pt x="673" y="680" on="0"/>
        <pt x="691" y="686" on="0"/>
        <pt x="707" y="686" on="1"/>
        <pt x="915" y="686" on="1"/>
        <pt x="915" y="639" on="1"/>
        <pt x="821" y="639" on="1"/>
        <pt x="821" y="47" on="1"/>
        <pt x="915" y="47" on="1"/>
        <pt x="915" y="0" on="1"/>
        <pt x="902" y="1" on="0"/>
        <pt x="861" y="2" on="0"/>
        <pt x="816" y="3" on="0"/>
        <pt x="773" y="3" on="0"/>
        <pt x="758" y="3" on="1"/>
        <pt x="743" y="3" on="0"/>
        <pt x="701" y="3" on="0"/>
        <pt x="656" y="2" on="0"/>
        <pt x="615" y="1" on="0"/>
        <pt x="602" y="0" on="1"/>
        <pt x="602" y="47" on="1"/>
        <pt x="696" y="47" on="1"/>
        <pt x="696" y="629" on="1"/>
        <pt x="695" y="629" on="1"/>
        <pt x="465" y="25" on="1"/>
        <pt x="461" y="16" on="0"/>
        <pt x="451" y="0" on="0"/>
        <pt x="436" y="0" on="1"/>
        <pt x="420" y="0" on="0"/>
        <pt x="410" y="15" on="0"/>
        <pt x="406" y="25" on="1"/>
        <pt x="182" y="613" on="1"/>
        <pt x="181" y="613" on="1"/>
        <pt x="181" y="76" on="1"/>
        <pt x="181" y="59" on="0"/>
        <pt x="187" y="52" on="0"/>
        <pt x="206" y="50" on="1"/>
        <pt x="211" y="49" on="0"/>
        <pt x="239" y="47" on="0"/>
        <pt x="255" y="47" on="1"/>
        <pt x="275" y="47" on="1"/>
        <pt x="275" y="0" on="1"/>
        <pt x="248" y="1" on="0"/>
        <pt x="182" y="3" on="0"/>
        <pt x="154" y="3" on="1"/>
        <pt x="127" y="3" on="0"/>
        <pt x="62" y="1" on="0"/>
        <pt x="34" y="0" on="1"/>
        <pt x="34" y="47" on="1"/>
        <pt x="54" y="47" on="1"/>
        <pt x="59" y="47" on="0"/>
        <pt x="87" y="48" on="0"/>
        <pt x="104" y="50" on="1"/>
        <pt x="122" y="52" on="0"/>
        <pt x="128" y="59" on="0"/>
        <pt x="128" y="76" on="1"/>
        <pt x="128" y="639" on="1"/>
        <pt x="34" y="639" on="1"/>
        <pt x="34" y="686" on="1"/>
        <pt x="243" y="686" on="1"/>
        <pt x="263" y="686" on="0"/>
        <pt x="277" y="677" on="0"/>
        <pt x="284" y="660" on="1"/>
        <pt x="475" y="158" on="1"/>
      </contour>
    </TTGlyph>
    <TTGlyph name="N" xMin="34" yMin="0" xMax="748" yMax="686">
      <contour>
        <pt x="601" y="225" on="1"/>
        <pt x="601" y="610" on="1"/>
        <pt x="601" y="627" on="0"/>
        <pt x="595" y="634" on="0"/>
        <pt x="576" y="636" on="1"/>
        <pt x="571" y="637" on="0"/>
        <pt x="543" y="639" on="0"/>
        <pt x="527" y="639" on="1"/>
        <pt x="507" y="639" on="1"/>
        <pt x="507" y="686" on="1"/>
        <pt x="534" y="685" on="0"/>
        <pt x="600" y="683" on="0"/>
        <pt x="628" y="683" on="1"/>
        <pt x="655" y="683" on="0"/>
        <pt x="720" y="685" on="0"/>
        <pt x="748" y="686" on="1"/>
        <pt x="748" y="639" on="1"/>
        <pt x="728" y="639" on="1"/>
        <pt x="723" y="639" on="0"/>
        <pt x="695" y="638" on="0"/>
        <pt x="678" y="636" on="1"/>
        <pt x="660" y="634" on="0"/>
        <pt x="654" y="627" on="0"/>
        <pt x="654" y="610" on="1"/>
        <pt x="654" y="32" on="1"/>
        <pt x="654" y="15" on="0"/>
        <pt x="647" y="0" on="0"/>
        <pt x="627" y="0" on="1"/>
        <pt x="617" y="0" on="0"/>
        <pt x="607" y="3" on="0"/>
        <pt x="600" y="13" on="1"/>
        <pt x="181" y="589" on="1"/>
        <pt x="181" y="76" on="1"/>
        <pt x="181" y="59" on="0"/>
        <pt x="187" y="52" on="0"/>
        <pt x="206" y="50" on="1"/>
        <pt x="211" y="49" on="0"/>
        <pt x="239" y="47" on="0"/>
        <pt x="255" y="47" on="1"/>
        <pt x="275" y="47" on="1"/>
        <pt x="275" y="0" on="1"/>
        <pt x="248" y="1" on="0"/>
        <pt x="182" y="3" on="0"/>
        <pt x="154" y="3" on="1"/>
        <pt x="127" y="3" on="0"/>
        <pt x="62" y="1" on="0"/>
        <pt x="34" y="0" on="1"/>
        <pt x="34" y="47" on="1"/>
        <pt x="54" y="47" on="1"/>
        <pt x="59" y="47" on="0"/>
        <pt x="87" y="48" on="0"/>
        <pt x="104" y="50" on="1"/>
        <pt x="122" y="52" on="0"/>
        <pt x="128" y="59" on="0"/>
        <pt x="128" y="76" on="1"/>
        <pt x="128" y="639" on="1"/>
        <pt x="34" y="639" on="1"/>
        <pt x="34" y="686" on="1"/>
        <pt x="242" y="686" on="1"/>
        <pt x="258" y="686" on="0"/>
        <pt x="269" y="682" on="0"/>
        <pt x="277" y="671" on="1"/>
      </contour>
    </TTGlyph>
    <TTGlyph name="O" xMin="56" yMin="-11" xMax="693" yMax="697">
      <contour>
        <pt x="693" y="339" on="1"/>
        <pt x="693" y="255" on="0"/>
        <pt x="645" y="125" on="0"/>
        <pt x="559" y="35" on="0"/>
        <pt x="442" y="-11" on="0"/>
        <pt x="374" y="-11" on="1"/>
        <pt x="309" y="-11" on="0"/>
        <pt x="193" y="33" on="0"/>
        <pt x="106" y="121" on="0"/>
        <pt x="56" y="252" on="0"/>
        <pt x="56" y="339" on="1"/>
        <pt x="56" y="426" on="0"/>
        <pt x="105" y="559" on="0"/>
        <pt x="191" y="650" on="0"/>
        <pt x="308" y="697" on="0"/>
        <pt x="375" y="697" on="1"/>
        <pt x="440" y="697" on="0"/>
        <pt x="555" y="652" on="0"/>
        <pt x="642" y="562" on="0"/>
        <pt x="693" y="428" on="0"/>
      </contour>
      <contour>
        <pt x="375" y="31" on="1"/>
        <pt x="417" y="31" on="0"/>
        <pt x="490" y="86" on="0"/>
        <pt x="510" y="134" on="1"/>
        <pt x="532" y="188" on="0"/>
        <pt x="540" y="293" on="0"/>
        <pt x="540" y="353" on="1"/>
        <pt x="540" y="408" on="0"/>
        <pt x="533" y="505" on="0"/>
        <pt x="513" y="553" on="1"/>
        <pt x="492" y="604" on="0"/>
        <pt x="417" y="657" on="0"/>
        <pt x="374" y="657" on="1"/>
        <pt x="356" y="657" on="0"/>
        <pt x="318" y="647" on="0"/>
        <pt x="282" y="623" on="0"/>
        <pt x="249" y="585" on="0"/>
        <pt x="237" y="557" on="1"/>
        <pt x="216" y="508" on="0"/>
        <pt x="209" y="401" on="0"/>
        <pt x="209" y="353" on="1"/>
        <pt x="209" y="297" on="0"/>
        <pt x="218" y="183" on="0"/>
        <pt x="241" y="130" on="1"/>
        <pt x="261" y="86" on="0"/>
        <pt x="330" y="31" on="0"/>
      </contour>
    </TTGlyph>
    <TTGlyph name="OE" xMin="73" yMin="-11" xMax="988" yMax="697">
      <contour>
        <pt x="942" y="0" on="1"/>
        <pt x="574" y="0" on="1"/>
        <pt x="551" y="0" on="0"/>
        <pt x="499" y="-5" on="0"/>
        <pt x="476" y="-7" on="1"/>
        <pt x="474" y="-7" on="0"/>
        <pt x="430" y="-11" on="0"/>
        <pt x="407" y="-11" on="1"/>
        <pt x="334" y="-11" on="0"/>
        <pt x="211" y="37" on="0"/>
        <pt x="122" y="127" on="0"/>
        <pt x="73" y="257" on="0"/>
        <pt x="73" y="340" on="1"/>
        <pt x="73" y="420" on="0"/>
        <pt x="120" y="552" on="0"/>
        <pt x="207" y="646" on="0"/>
        <pt x="331" y="697" on="0"/>
        <pt x="407" y="697" on="1"/>
        <pt x="433" y="697" on="0"/>
        <pt x="472" y="694" on="0"/>
        <pt x="497" y="691" on="1"/>
        <pt x="529" y="687" on="0"/>
        <pt x="571" y="686" on="0"/>
        <pt x="574" y="686" on="1"/>
        <pt x="929" y="686" on="1"/>
        <pt x="960" y="445" on="1"/>
        <pt x="913" y="445" on="1"/>
        <pt x="907" y="487" on="0"/>
        <pt x="893" y="558" on="0"/>
        <pt x="857" y="610" on="0"/>
        <pt x="792" y="639" on="0"/>
        <pt x="736" y="639" on="1"/>
        <pt x="640" y="639" on="1"/>
        <pt x="640" y="380" on="1"/>
        <pt x="700" y="380" on="1"/>
        <pt x="736" y="380" on="0"/>
        <pt x="778" y="396" on="0"/>
        <pt x="799" y="427" on="0"/>
        <pt x="804" y="470" on="0"/>
        <pt x="804" y="497" on="1"/>
        <pt x="851" y="497" on="1"/>
        <pt x="851" y="216" on="1"/>
        <pt x="804" y="216" on="1"/>
        <pt x="804" y="243" on="0"/>
        <pt x="799" y="287" on="0"/>
        <pt x="778" y="317" on="0"/>
        <pt x="736" y="333" on="0"/>
        <pt x="700" y="333" on="1"/>
        <pt x="640" y="333" on="1"/>
        <pt x="640" y="47" on="1"/>
        <pt x="741" y="47" on="1"/>
        <pt x="801" y="47" on="0"/>
        <pt x="873" y="82" on="0"/>
        <pt x="914" y="143" on="0"/>
        <pt x="933" y="226" on="0"/>
        <pt x="941" y="274" on="1"/>
        <pt x="988" y="274" on="1"/>
      </contour>
      <contour>
        <pt x="408" y="25" on="1"/>
        <pt x="440" y="25" on="0"/>
        <pt x="479" y="39" on="0"/>
        <pt x="501" y="65" on="0"/>
        <pt x="510" y="103" on="0"/>
        <pt x="513" y="127" on="1"/>
        <pt x="516" y="153" on="0"/>
        <pt x="517" y="259" on="0"/>
        <pt x="517" y="344" on="1"/>
        <pt x="517" y="374" on="0"/>
        <pt x="517" y="439" on="0"/>
        <pt x="516" y="498" on="0"/>
        <pt x="515" y="546" on="0"/>
        <pt x="513" y="560" on="1"/>
        <pt x="510" y="584" on="0"/>
        <pt x="500" y="622" on="0"/>
        <pt x="478" y="648" on="0"/>
        <pt x="439" y="661" on="0"/>
        <pt x="408" y="661" on="1"/>
        <pt x="375" y="661" on="0"/>
        <pt x="308" y="629" on="0"/>
        <pt x="254" y="557" on="0"/>
        <pt x="220" y="440" on="0"/>
        <pt x="220" y="355" on="1"/>
        <pt x="220" y="269" on="0"/>
        <pt x="251" y="144" on="0"/>
        <pt x="304" y="63" on="0"/>
        <pt x="372" y="25" on="0"/>
      </contour>
    </TTGlyph>
    <TTGlyph name="Oslash" xMin="56" yMin="-59" xMax="721" yMax="745">
      <contour>
        <pt x="583" y="640" on="1"/>
        <pt x="620" y="615" on="0"/>
        <pt x="673" y="547" on="0"/>
        <pt x="706" y="469" on="0"/>
        <pt x="721" y="383" on="0"/>
        <pt x="721" y="340" on="1"/>
        <pt x="721" y="255" on="0"/>
        <pt x="670" y="123" on="0"/>
        <pt x="580" y="35" on="0"/>
        <pt x="459" y="-11" on="0"/>
        <pt x="389" y="-11" on="1"/>
        <pt x="350" y="-11" on="0"/>
        <pt x="267" y="5" on="0"/>
        <pt x="228" y="25" on="1"/>
        <pt x="180" y="-59" on="1"/>
        <pt x="146" y="-39" on="1"/>
        <pt x="194" y="45" on="1"/>
        <pt x="173" y="58" on="0"/>
        <pt x="125" y="105" on="0"/>
        <pt x="84" y="177" on="0"/>
        <pt x="56" y="276" on="0"/>
        <pt x="56" y="340" on="1"/>
        <pt x="56" y="423" on="0"/>
        <pt x="105" y="555" on="0"/>
        <pt x="193" y="647" on="0"/>
        <pt x="315" y="697" on="0"/>
        <pt x="389" y="697" on="1"/>
        <pt x="424" y="697" on="0"/>
        <pt x="504" y="682" on="0"/>
        <pt x="549" y="661" on="1"/>
        <pt x="597" y="745" on="1"/>
        <pt x="631" y="725" on="1"/>
      </contour>
      <contour>
        <pt x="517" y="607" on="1"/>
        <pt x="512" y="612" on="0"/>
        <pt x="491" y="630" on="0"/>
        <pt x="458" y="648" on="0"/>
        <pt x="415" y="661" on="0"/>
        <pt x="388" y="661" on="1"/>
        <pt x="372" y="661" on="0"/>
        <pt x="329" y="653" on="0"/>
        <pt x="285" y="631" on="0"/>
        <pt x="243" y="590" on="0"/>
        <pt x="227" y="558" on="1"/>
        <pt x="216" y="535" on="0"/>
        <pt x="204" y="481" on="0"/>
        <pt x="199" y="424" on="0"/>
        <pt x="198" y="366" on="0"/>
        <pt x="198" y="340" on="1"/>
        <pt x="198" y="311" on="0"/>
        <pt x="199" y="251" on="0"/>
        <pt x="206" y="193" on="0"/>
        <pt x="220" y="138" on="0"/>
        <pt x="233" y="114" on="1"/>
      </contour>
      <contour>
        <pt x="259" y="78" on="1"/>
        <pt x="314" y="25" on="0"/>
        <pt x="389" y="25" on="1"/>
        <pt x="406" y="25" on="0"/>
        <pt x="447" y="33" on="0"/>
        <pt x="489" y="53" on="0"/>
        <pt x="529" y="87" on="0"/>
        <pt x="544" y="113" on="1"/>
        <pt x="557" y="137" on="0"/>
        <pt x="571" y="192" on="0"/>
        <pt x="578" y="251" on="0"/>
        <pt x="579" y="311" on="0"/>
        <pt x="579" y="340" on="1"/>
        <pt x="579" y="368" on="0"/>
        <pt x="578" y="429" on="0"/>
        <pt x="571" y="490" on="0"/>
        <pt x="557" y="547" on="0"/>
        <pt x="543" y="571" on="1"/>
      </contour>
    </TTGlyph>
    <TTGlyph name="P" xMin="34" yMin="0" xMax="626" yMax="686">
      <contour>
        <pt x="270" y="47" on="1"/>
        <pt x="364" y="47" on="1"/>
        <pt x="364" y="0" on="1"/>
        <pt x="351" y="1" on="0"/>
        <pt x="307" y="2" on="0"/>
        <pt x="259" y="3" on="0"/>
        <pt x="214" y="3" on="0"/>
        <pt x="199" y="3" on="1"/>
        <pt x="184" y="3" on="0"/>
        <pt x="139" y="3" on="0"/>
        <pt x="91" y="2" on="0"/>
        <pt x="47" y="1" on="0"/>
        <pt x="34" y="0" on="1"/>
        <pt x="34" y="47" on="1"/>
        <pt x="128" y="47" on="1"/>
        <pt x="128" y="639" on="1"/>
        <pt x="34" y="639" on="1"/>
        <pt x="34" y="686" on="1"/>
        <pt x="393" y="686" on="1"/>
        <pt x="449" y="686" on="0"/>
        <pt x="536" y="656" on="0"/>
        <pt x="595" y="603" on="0"/>
        <pt x="626" y="532" on="0"/>
        <pt x="626" y="491" on="1"/>
        <pt x="626" y="446" on="0"/>
        <pt x="591" y="376" on="0"/>
        <pt x="530" y="328" on="0"/>
        <pt x="448" y="302" on="0"/>
        <pt x="402" y="302" on="1"/>
        <pt x="270" y="302" on="1"/>
      </contour>
      <contour>
        <pt x="264" y="343" on="1"/>
        <pt x="352" y="343" on="1"/>
        <pt x="397" y="343" on="0"/>
        <pt x="447" y="365" on="0"/>
        <pt x="469" y="404" on="0"/>
        <pt x="473" y="459" on="0"/>
        <pt x="473" y="491" on="1"/>
        <pt x="473" y="524" on="0"/>
        <pt x="469" y="578" on="0"/>
        <pt x="447" y="617" on="0"/>
        <pt x="397" y="639" on="0"/>
        <pt x="352" y="639" on="1"/>
        <pt x="264" y="639" on="1"/>
      </contour>
    </TTGlyph>
    <TTGlyph name="Phi" xMin="56" yMin="0" xMax="665" yMax="686">
      <contour>
        <pt x="421" y="639" on="1"/>
        <pt x="421" y="533" on="1"/>
        <pt x="486" y="527" on="0"/>
        <pt x="579" y="490" on="0"/>
        <pt x="638" y="437" on="0"/>
        <pt x="665" y="374" on="0"/>
        <pt x="665" y="343" on="1"/>
        <pt x="665" y="313" on="0"/>
        <pt x="638" y="250" on="0"/>
        <pt x="580" y="197" on="0"/>
        <pt x="487" y="159" on="0"/>
        <pt x="421" y="153" on="1"/>
        <pt x="421" y="47" on="1"/>
        <pt x="539" y="47" on="1"/>
        <pt x="539" y="0" on="1"/>
        <pt x="525" y="1" on="0"/>
        <pt x="476" y="2" on="0"/>
        <pt x="422" y="3" on="0"/>
        <pt x="372" y="3" on="0"/>
        <pt x="355" y="3" on="1"/>
        <pt x="339" y="3" on="0"/>
        <pt x="288" y="3" on="0"/>
        <pt x="235" y="2" on="0"/>
        <pt x="186" y="1" on="0"/>
        <pt x="172" y="0" on="1"/>
        <pt x="172" y="47" on="1"/>
        <pt x="290" y="47" on="1"/>
        <pt x="290" y="154" on="1"/>
        <pt x="234" y="160" on="0"/>
        <pt x="147" y="194" on="0"/>
        <pt x="87" y="245" on="0"/>
        <pt x="56" y="308" on="0"/>
        <pt x="56" y="343" on="1"/>
        <pt x="56" y="378" on="0"/>
        <pt x="87" y="441" on="0"/>
        <pt x="146" y="492" on="0"/>
        <pt x="233" y="526" on="0"/>
        <pt x="290" y="532" on="1"/>
        <pt x="290" y="639" on="1"/>
        <pt x="172" y="639" on="1"/>
        <pt x="172" y="686" on="1"/>
        <pt x="186" y="685" on="0"/>
        <pt x="235" y="684" on="0"/>
        <pt x="289" y="683" on="0"/>
        <pt x="340" y="683" on="0"/>
        <pt x="356" y="683" on="1"/>
        <pt x="372" y="683" on="0"/>
        <pt x="423" y="683" on="0"/>
        <pt x="476" y="684" on="0"/>
        <pt x="525" y="685" on="0"/>
        <pt x="539" y="686" on="1"/>
        <pt x="539" y="639" on="1"/>
      </contour>
      <contour>
        <pt x="290" y="492" on="1"/>
        <pt x="257" y="483" on="0"/>
        <pt x="222" y="451" on="0"/>
        <pt x="206" y="411" on="0"/>
        <pt x="203" y="366" on="0"/>
        <pt x="203" y="343" on="1"/>
        <pt x="203" y="320" on="0"/>
        <pt x="206" y="275" on="0"/>
        <pt x="222" y="235" on="0"/>
        <pt x="257" y="203" on="0"/>
        <pt x="290" y="194" on="1"/>
      </contour>
      <contour>
        <pt x="421" y="192" on="1"/>
        <pt x="457" y="200" on="0"/>
        <pt x="497" y="231" on="0"/>
        <pt x="515" y="273" on="0"/>
        <pt x="518" y="320" on="0"/>
        <pt x="518" y="343" on="1"/>
        <pt x="518" y="366" on="0"/>
        <pt x="515" y="413" on="0"/>
        <pt x="497" y="455" on="0"/>
        <pt x="457" y="487" on="0"/>
        <pt x="421" y="494" on="1"/>
      </contour>
    </TTGlyph>
    <TTGlyph name="Pi" xMin="34" yMin="0" xMax="748" yMax="680">
      <contour>
        <pt x="654" y="47" on="1"/>
        <pt x="748" y="47" on="1"/>
        <pt x="748" y="0" on="1"/>
        <pt x="735" y="1" on="0"/>
        <pt x="691" y="2" on="0"/>
        <pt x="643" y="3" on="0"/>
        <pt x="598" y="3" on="0"/>
        <pt x="583" y="3" on="1"/>
        <pt x="568" y="3" on="0"/>
        <pt x="523" y="3" on="0"/>
        <pt x="475" y="2" on="0"/>
        <pt x="431" y="1" on="0"/>
        <pt x="418" y="0" on="1"/>
        <pt x="418" y="47" on="1"/>
        <pt x="512" y="47" on="1"/>
        <pt x="512" y="633" on="1"/>
        <pt x="270" y="633" on="1"/>
        <pt x="270" y="47" on="1"/>
        <pt x="364" y="47" on="1"/>
        <pt x="364" y="0" on="1"/>
        <pt x="351" y="1" on="0"/>
        <pt x="307" y="2" on="0"/>
        <pt x="259" y="3" on="0"/>
        <pt x="214" y="3" on="0"/>
        <pt x="199" y="3" on="1"/>
        <pt x="184" y="3" on="0"/>
        <pt x="139" y="3" on="0"/>
        <pt x="91" y="2" on="0"/>
        <pt x="47" y="1" on="0"/>
        <pt x="34" y="0" on="1"/>
        <pt x="34" y="47" on="1"/>
        <pt x="128" y="47" on="1"/>
        <pt x="128" y="633" on="1"/>
        <pt x="34" y="633" on="1"/>
        <pt x="34" y="680" on="1"/>
        <pt x="748" y="680" on="1"/>
        <pt x="748" y="633" on="1"/>
        <pt x="654" y="633" on="1"/>
      </contour>
    </TTGlyph>
    <TTGlyph name="Psi" xMin="56" yMin="0" xMax="721" yMax="686">
      <contour>
        <pt x="449" y="199" on="1"/>
        <pt x="485" y="214" on="0"/>
        <pt x="524" y="270" on="0"/>
        <pt x="542" y="334" on="0"/>
        <pt x="545" y="400" on="0"/>
        <pt x="545" y="425" on="1"/>
        <pt x="545" y="462" on="0"/>
        <pt x="553" y="509" on="0"/>
        <pt x="571" y="536" on="0"/>
        <pt x="598" y="547" on="0"/>
        <pt x="617" y="547" on="1"/>
        <pt x="689" y="547" on="1"/>
        <pt x="700" y="547" on="0"/>
        <pt x="721" y="543" on="0"/>
        <pt x="721" y="529" on="1"/>
        <pt x="721" y="518" on="0"/>
        <pt x="706" y="512" on="0"/>
        <pt x="701" y="511" on="1"/>
        <pt x="692" y="510" on="0"/>
        <pt x="681" y="492" on="0"/>
        <pt x="677" y="466" on="0"/>
        <pt x="676" y="435" on="0"/>
        <pt x="676" y="420" on="1"/>
        <pt x="676" y="376" on="0"/>
        <pt x="657" y="287" on="0"/>
        <pt x="606" y="214" on="0"/>
        <pt x="518" y="162" on="0"/>
        <pt x="449" y="154" on="1"/>
        <pt x="449" y="47" on="1"/>
        <pt x="567" y="47" on="1"/>
        <pt x="567" y="0" on="1"/>
        <pt x="553" y="1" on="0"/>
        <pt x="504" y="2" on="0"/>
        <pt x="450" y="3" on="0"/>
        <pt x="400" y="3" on="0"/>
        <pt x="383" y="3" on="1"/>
        <pt x="367" y="3" on="0"/>
        <pt x="316" y="3" on="0"/>
        <pt x="263" y="2" on="0"/>
        <pt x="214" y="1" on="0"/>
        <pt x="200" y="0" on="1"/>
        <pt x="200" y="47" on="1"/>
        <pt x="318" y="47" on="1"/>
        <pt x="318" y="154" on="1"/>
        <pt x="206" y="170" on="0"/>
        <pt x="102" y="304" on="0"/>
        <pt x="101" y="416" on="1"/>
        <pt x="101" y="430" on="0"/>
        <pt x="100" y="462" on="0"/>
        <pt x="96" y="489" on="0"/>
        <pt x="87" y="509" on="0"/>
        <pt x="78" y="510" on="1"/>
        <pt x="70" y="512" on="0"/>
        <pt x="56" y="518" on="0"/>
        <pt x="56" y="529" on="1"/>
        <pt x="56" y="543" on="0"/>
        <pt x="77" y="547" on="0"/>
        <pt x="88" y="547" on="1"/>
        <pt x="160" y="547" on="1"/>
        <pt x="186" y="547" on="0"/>
        <pt x="215" y="526" on="0"/>
        <pt x="229" y="489" on="0"/>
        <pt x="232" y="439" on="0"/>
        <pt x="232" y="409" on="1"/>
        <pt x="232" y="381" on="0"/>
        <pt x="238" y="319" on="0"/>
        <pt x="256" y="262" on="0"/>
        <pt x="290" y="215" on="0"/>
        <pt x="318" y="201" on="1"/>
        <pt x="318" y="639" on="1"/>
        <pt x="200" y="639" on="1"/>
        <pt x="200" y="686" on="1"/>
        <pt x="214" y="685" on="0"/>
        <pt x="263" y="684" on="0"/>
        <pt x="317" y="683" on="0"/>
        <pt x="368" y="683" on="0"/>
        <pt x="384" y="683" on="1"/>
        <pt x="400" y="683" on="0"/>
        <pt x="451" y="683" on="0"/>
        <pt x="504" y="684" on="0"/>
        <pt x="553" y="685" on="0"/>
        <pt x="567" y="686" on="1"/>
        <pt x="567" y="639" on="1"/>
        <pt x="449" y="639" on="1"/>
      </contour>
    </TTGlyph>
    <TTGlyph name="Q" xMin="56" yMin="-194" xMax="699" yMax="697">
      <contour>
        <pt x="514" y="18" on="1"/>
        <pt x="526" y="-4" on="0"/>
        <pt x="548" y="-28" on="0"/>
        <pt x="568" y="-39" on="0"/>
        <pt x="585" y="-41" on="0"/>
        <pt x="592" y="-41" on="1"/>
        <pt x="599" y="-41" on="0"/>
        <pt x="622" y="-38" on="0"/>
        <pt x="644" y="-30" on="0"/>
        <pt x="661" y="-15" on="0"/>
        <pt x="663" y="-3" on="1"/>
        <pt x="664" y="3" on="0"/>
        <pt x="670" y="18" on="0"/>
        <pt x="681" y="18" on="1"/>
        <pt x="695" y="18" on="0"/>
        <pt x="699" y="-2" on="0"/>
        <pt x="699" y="-10" on="1"/>
        <pt x="699" y="-24" on="0"/>
        <pt x="692" y="-84" on="0"/>
        <pt x="667" y="-147" on="0"/>
        <pt x="619" y="-194" on="0"/>
        <pt x="578" y="-194" on="1"/>
        <pt x="542" y="-194" on="0"/>
        <pt x="499" y="-163" on="0"/>
        <pt x="474" y="-110" on="0"/>
        <pt x="461" y="-41" on="0"/>
        <pt x="456" y="-2" on="1"/>
        <pt x="454" y="-3" on="0"/>
        <pt x="406" y="-11" on="0"/>
        <pt x="375" y="-11" on="1"/>
        <pt x="308" y="-11" on="0"/>
        <pt x="191" y="35" on="0"/>
        <pt x="105" y="123" on="0"/>
        <pt x="56" y="254" on="0"/>
        <pt x="56" y="339" on="1"/>
        <pt x="56" y="426" on="0"/>
        <pt x="105" y="559" on="0"/>
        <pt x="191" y="650" on="0"/>
        <pt x="308" y="697" on="0"/>
        <pt x="375" y="697" on="1"/>
        <pt x="440" y="697" on="0"/>
        <pt x="555" y="652" on="0"/>
        <pt x="642" y="562" on="0"/>
        <pt x="693" y="428" on="0"/>
        <pt x="693" y="339" on="1"/>
        <pt x="693" y="302" on="0"/>
        <pt x="680" y="212" on="0"/>
        <pt x="641" y="124" on="0"/>
        <pt x="571" y="44" on="0"/>
      </contour>
      <contour>
        <pt x="288" y="60" on="1"/>
        <pt x="287" y="63" on="0"/>
        <pt x="287" y="71" on="0"/>
        <pt x="287" y="73" on="1"/>
        <pt x="287" y="107" on="0"/>
        <pt x="337" y="155" on="0"/>
        <pt x="375" y="155" on="1"/>
        <pt x="413" y="155" on="0"/>
        <pt x="464" y="109" on="0"/>
        <pt x="481" y="78" on="1"/>
        <pt x="505" y="104" on="0"/>
        <pt x="532" y="171" on="0"/>
        <pt x="544" y="243" on="0"/>
        <pt x="546" y="313" on="0"/>
        <pt x="546" y="340" on="1"/>
        <pt x="546" y="396" on="0"/>
        <pt x="538" y="495" on="0"/>
        <pt x="520" y="542" on="1"/>
        <pt x="508" y="573" on="0"/>
        <pt x="475" y="616" on="0"/>
        <pt x="436" y="644" on="0"/>
        <pt x="394" y="657" on="0"/>
        <pt x="374" y="657" on="1"/>
        <pt x="359" y="657" on="0"/>
        <pt x="319" y="647" on="0"/>
        <pt x="278" y="620" on="0"/>
        <pt x="240" y="572" on="0"/>
        <pt x="226" y="534" on="1"/>
        <pt x="209" y="485" on="0"/>
        <pt x="203" y="380" on="0"/>
        <pt x="203" y="340" on="1"/>
        <pt x="203" y="301" on="0"/>
        <pt x="207" y="221" on="0"/>
        <pt x="224" y="148" on="0"/>
        <pt x="258" y="84" on="0"/>
      </contour>
      <contour>
        <pt x="446" y="49" on="1"/>
        <pt x="438" y="83" on="0"/>
        <pt x="405" y="119" on="0"/>
        <pt x="376" y="119" on="1"/>
        <pt x="351" y="119" on="0"/>
        <pt x="323" y="90" on="0"/>
        <pt x="323" y="73" on="1"/>
        <pt x="323" y="70" on="0"/>
        <pt x="326" y="55" on="0"/>
        <pt x="336" y="40" on="0"/>
        <pt x="357" y="29" on="0"/>
        <pt x="375" y="29" on="1"/>
        <pt x="394" y="29" on="0"/>
        <pt x="432" y="40" on="0"/>
      </contour>
    </TTGlyph>
    <TTGlyph name="R" xMin="34" yMin="-11" xMax="756" yMax="686">
      <contour>
        <pt x="482" y="339" on="1"/>
        <pt x="522" y="322" on="0"/>
        <pt x="577" y="265" on="0"/>
        <pt x="585" y="219" on="1"/>
        <pt x="585" y="218" on="0"/>
        <pt x="588" y="201" on="0"/>
        <pt x="591" y="178" on="0"/>
        <pt x="594" y="154" on="0"/>
        <pt x="595" y="145" on="1"/>
        <pt x="598" y="121" on="0"/>
        <pt x="605" y="78" on="0"/>
        <pt x="618" y="45" on="0"/>
        <pt x="639" y="25" on="0"/>
        <pt x="657" y="25" on="1"/>
        <pt x="678" y="25" on="0"/>
        <pt x="706" y="61" on="0"/>
        <pt x="709" y="94" on="1"/>
        <pt x="710" y="106" on="0"/>
        <pt x="718" y="117" on="0"/>
        <pt x="732" y="117" on="1"/>
        <pt x="740" y="117" on="0"/>
        <pt x="756" y="111" on="0"/>
        <pt x="756" y="94" on="1"/>
        <pt x="756" y="90" on="0"/>
        <pt x="750" y="56" on="0"/>
        <pt x="729" y="19" on="0"/>
        <pt x="687" y="-11" on="0"/>
        <pt x="650" y="-11" on="1"/>
        <pt x="628" y="-11" on="0"/>
        <pt x="568" y="-5" on="0"/>
        <pt x="510" y="14" on="0"/>
        <pt x="462" y="50" on="0"/>
        <pt x="451" y="80" on="1"/>
        <pt x="448" y="88" on="0"/>
        <pt x="446" y="100" on="0"/>
        <pt x="444" y="118" on="0"/>
        <pt x="444" y="145" on="0"/>
        <pt x="444" y="169" on="1"/>
        <pt x="444" y="195" on="0"/>
        <pt x="441" y="251" on="0"/>
        <pt x="423" y="296" on="0"/>
        <pt x="385" y="325" on="0"/>
        <pt x="350" y="325" on="1"/>
        <pt x="264" y="325" on="1"/>
        <pt x="264" y="47" on="1"/>
        <pt x="358" y="47" on="1"/>
        <pt x="358" y="0" on="1"/>
        <pt x="345" y="1" on="0"/>
        <pt x="302" y="2" on="0"/>
        <pt x="256" y="3" on="0"/>
        <pt x="211" y="3" on="0"/>
        <pt x="196" y="3" on="1"/>
        <pt x="181" y="3" on="0"/>
        <pt x="136" y="3" on="0"/>
        <pt x="90" y="2" on="0"/>
        <pt x="47" y="1" on="0"/>
        <pt x="34" y="0" on="1"/>
        <pt x="34" y="47" on="1"/>
        <pt x="128" y="47" on="1"/>
        <pt x="128" y="639" on="1"/>
        <pt x="34" y="639" on="1"/>
        <pt x="34" y="686" on="1"/>
        <pt x="367" y="686" on="1"/>
        <pt x="431" y="686" on="0"/>
        <pt x="530" y="657" on="0"/>
        <pt x="598" y="606" on="0"/>
        <pt x="634" y="539" on="0"/>
        <pt x="634" y="500" on="1"/>
        <pt x="634" y="446" on="0"/>
        <pt x="555" y="358" on="0"/>
      </contour>
      <contour>
        <pt x="344" y="361" on="1"/>
        <pt x="395" y="361" on="0"/>
        <pt x="451" y="385" on="0"/>
        <pt x="477" y="424" on="0"/>
        <pt x="481" y="474" on="0"/>
        <pt x="481" y="500" on="1"/>
        <pt x="481" y="527" on="0"/>
        <pt x="477" y="577" on="0"/>
        <pt x="451" y="616" on="0"/>
        <pt x="397" y="639" on="0"/>
        <pt x="346" y="639" on="1"/>
        <pt x="264" y="639" on="1"/>
        <pt x="264" y="361" on="1"/>
      </contour>
    </TTGlyph>
    <TTGlyph name="S" xMin="56" yMin="-11" xMax="499" yMax="697">
      <contour>
        <pt x="472" y="486" on="1"/>
        <pt x="472" y="469" on="0"/>
        <pt x="466" y="458" on="0"/>
        <pt x="448" y="458" on="1"/>
        <pt x="436" y="458" on="0"/>
        <pt x="426" y="464" on="0"/>
        <pt x="424" y="475" on="1"/>
        <pt x="422" y="489" on="0"/>
        <pt x="409" y="549" on="0"/>
        <pt x="373" y="609" on="0"/>
        <pt x="307" y="654" on="0"/>
        <pt x="252" y="654" on="1"/>
        <pt x="224" y="654" on="0"/>
        <pt x="186" y="635" on="0"/>
        <pt x="163" y="604" on="0"/>
        <pt x="153" y="567" on="0"/>
        <pt x="153" y="549" on="1"/>
        <pt x="153" y="512" on="0"/>
        <pt x="190" y="459" on="0"/>
        <pt x="216" y="449" on="1"/>
        <pt x="224" y="446" on="0"/>
        <pt x="268" y="435" on="0"/>
        <pt x="289" y="430" on="1"/>
        <pt x="321" y="422" on="0"/>
        <pt x="369" y="409" on="0"/>
        <pt x="407" y="391" on="0"/>
        <pt x="439" y="364" on="0"/>
        <pt x="455" y="343" on="1"/>
        <pt x="474" y="317" on="0"/>
        <pt x="499" y="248" on="0"/>
        <pt x="499" y="203" on="1"/>
        <pt x="499" y="159" on="0"/>
        <pt x="474" y="81" on="0"/>
        <pt x="425" y="23" on="0"/>
        <pt x="351" y="-11" on="0"/>
        <pt x="302" y="-11" on="1"/>
        <pt x="287" y="-11" on="0"/>
        <pt x="248" y="-7" on="0"/>
        <pt x="203" y="3" on="0"/>
        <pt x="157" y="24" on="0"/>
        <pt x="135" y="40" on="1"/>
        <pt x="107" y="12" on="1"/>
        <pt x="90" y="-5" on="0"/>
        <pt x="81" y="-11" on="0"/>
        <pt x="74" y="-11" on="1"/>
        <pt x="60" y="-11" on="0"/>
        <pt x="56" y="3" on="0"/>
        <pt x="56" y="17" on="1"/>
        <pt x="56" y="199" on="1"/>
        <pt x="56" y="216" on="0"/>
        <pt x="62" y="228" on="0"/>
        <pt x="80" y="228" on="1"/>
        <pt x="97" y="228" on="0"/>
        <pt x="102" y="219" on="0"/>
        <pt x="103" y="205" on="1"/>
        <pt x="106" y="153" on="0"/>
        <pt x="148" y="87" on="0"/>
        <pt x="208" y="49" on="0"/>
        <pt x="274" y="36" on="0"/>
        <pt x="301" y="36" on="1"/>
        <pt x="331" y="36" on="0"/>
        <pt x="371" y="59" on="0"/>
        <pt x="393" y="93" on="0"/>
        <pt x="402" y="135" on="0"/>
        <pt x="402" y="153" on="1"/>
        <pt x="402" y="184" on="0"/>
        <pt x="373" y="249" on="0"/>
        <pt x="336" y="266" on="1"/>
        <pt x="334" y="267" on="0"/>
        <pt x="318" y="271" on="0"/>
        <pt x="298" y="276" on="0"/>
        <pt x="277" y="281" on="0"/>
        <pt x="268" y="283" on="1"/>
        <pt x="235" y="291" on="0"/>
        <pt x="187" y="304" on="0"/>
        <pt x="149" y="320" on="0"/>
        <pt x="119" y="343" on="0"/>
        <pt x="104" y="361" on="1"/>
        <pt x="84" y="386" on="0"/>
        <pt x="56" y="452" on="0"/>
        <pt x="56" y="497" on="1"/>
        <pt x="56" y="539" on="0"/>
        <pt x="82" y="612" on="0"/>
        <pt x="131" y="666" on="0"/>
        <pt x="204" y="697" on="0"/>
        <pt x="251" y="697" on="1"/>
        <pt x="295" y="697" on="0"/>
        <pt x="365" y="672" on="0"/>
        <pt x="394" y="647" on="1"/>
        <pt x="421" y="674" on="1"/>
        <pt x="438" y="691" on="0"/>
        <pt x="447" y="697" on="0"/>
        <pt x="454" y="697" on="1"/>
        <pt x="468" y="697" on="0"/>
        <pt x="472" y="683" on="0"/>
        <pt x="472" y="669" on="1"/>
      </contour>
    </TTGlyph>
    <TTGlyph name="Sigma" xMin="56" yMin="0" xMax="665" yMax="686">
      <contour>
        <pt x="172" y="66" on="1"/>
        <pt x="391" y="66" on="1"/>
        <pt x="448" y="66" on="0"/>
        <pt x="529" y="84" on="0"/>
        <pt x="582" y="129" on="0"/>
        <pt x="611" y="204" on="0"/>
        <pt x="618" y="260" on="1"/>
        <pt x="665" y="260" on="1"/>
        <pt x="634" y="0" on="1"/>
        <pt x="88" y="0" on="1"/>
        <pt x="77" y="0" on="0"/>
        <pt x="56" y="4" on="0"/>
        <pt x="56" y="18" on="1"/>
        <pt x="56" y="23" on="0"/>
        <pt x="61" y="30" on="0"/>
        <pt x="68" y="37" on="1"/>
        <pt x="316" y="283" on="1"/>
        <pt x="65" y="638" on="1"/>
        <pt x="58" y="648" on="0"/>
        <pt x="56" y="656" on="0"/>
        <pt x="56" y="662" on="1"/>
        <pt x="56" y="680" on="0"/>
        <pt x="73" y="686" on="0"/>
        <pt x="88" y="686" on="1"/>
        <pt x="634" y="686" on="1"/>
        <pt x="665" y="445" on="1"/>
        <pt x="618" y="445" on="1"/>
        <pt x="611" y="499" on="0"/>
        <pt x="583" y="574" on="0"/>
        <pt x="532" y="619" on="0"/>
        <pt x="453" y="639" on="0"/>
        <pt x="395" y="639" on="1"/>
        <pt x="239" y="639" on="1"/>
        <pt x="435" y="361" on="1"/>
        <pt x="443" y="348" on="0"/>
        <pt x="443" y="343" on="1"/>
        <pt x="443" y="338" on="0"/>
        <pt x="440" y="332" on="0"/>
        <pt x="429" y="322" on="1"/>
      </contour>
    </TTGlyph>
    <TTGlyph name="T" xMin="36" yMin="0" xMax="657" yMax="675">
      <contour>
        <pt x="657" y="434" on="1"/>
        <pt x="610" y="434" on="1"/>
        <pt x="607" y="476" on="0"/>
        <pt x="597" y="547" on="0"/>
        <pt x="568" y="599" on="0"/>
        <pt x="514" y="628" on="0"/>
        <pt x="466" y="628" on="1"/>
        <pt x="418" y="628" on="1"/>
        <pt x="418" y="47" on="1"/>
        <pt x="552" y="47" on="1"/>
        <pt x="552" y="0" on="1"/>
        <pt x="534" y="1" on="0"/>
        <pt x="480" y="2" on="0"/>
        <pt x="422" y="3" on="0"/>
        <pt x="367" y="3" on="0"/>
        <pt x="347" y="3" on="1"/>
        <pt x="327" y="3" on="0"/>
        <pt x="272" y="3" on="0"/>
        <pt x="214" y="2" on="0"/>
        <pt x="160" y="1" on="0"/>
        <pt x="142" y="0" on="1"/>
        <pt x="142" y="47" on="1"/>
        <pt x="276" y="47" on="1"/>
        <pt x="276" y="628" on="1"/>
        <pt x="227" y="628" on="1"/>
        <pt x="179" y="628" on="0"/>
        <pt x="125" y="598" on="0"/>
        <pt x="96" y="546" on="0"/>
        <pt x="86" y="475" on="0"/>
        <pt x="83" y="434" on="1"/>
        <pt x="36" y="434" on="1"/>
        <pt x="57" y="675" on="1"/>
        <pt x="636" y="675" on="1"/>
      </contour>
    </TTGlyph>
    <TTGlyph name="Theta" xMin="56" yMin="-11" xMax="721" yMax="697">
      <contour>
        <pt x="721" y="340" on="1"/>
        <pt x="721" y="255" on="0"/>
        <pt x="670" y="123" on="0"/>
        <pt x="580" y="35" on="0"/>
        <pt x="459" y="-11" on="0"/>
        <pt x="389" y="-11" on="1"/>
        <pt x="318" y="-11" on="0"/>
        <pt x="196" y="35" on="0"/>
        <pt x="107" y="124" on="0"/>
        <pt x="56" y="255" on="0"/>
        <pt x="56" y="340" on="1"/>
        <pt x="56" y="423" on="0"/>
        <pt x="105" y="555" on="0"/>
        <pt x="193" y="647" on="0"/>
        <pt x="315" y="697" on="0"/>
        <pt x="389" y="697" on="1"/>
        <pt x="460" y="697" on="0"/>
        <pt x="582" y="649" on="0"/>
        <pt x="671" y="558" on="0"/>
        <pt x="721" y="425" on="0"/>
      </contour>
      <contour>
        <pt x="389" y="27" on="1"/>
        <pt x="428" y="27" on="0"/>
        <pt x="510" y="69" on="0"/>
        <pt x="537" y="115" on="1"/>
        <pt x="552" y="142" on="0"/>
        <pt x="569" y="200" on="0"/>
        <pt x="577" y="259" on="0"/>
        <pt x="579" y="315" on="0"/>
        <pt x="579" y="340" on="1"/>
        <pt x="579" y="361" on="0"/>
        <pt x="578" y="415" on="0"/>
        <pt x="571" y="472" on="0"/>
        <pt x="557" y="529" on="0"/>
        <pt x="545" y="554" on="1"/>
        <pt x="527" y="591" on="0"/>
        <pt x="482" y="634" on="0"/>
        <pt x="438" y="655" on="0"/>
        <pt x="400" y="661" on="0"/>
        <pt x="388" y="661" on="1"/>
        <pt x="340" y="661" on="0"/>
        <pt x="260" y="607" on="0"/>
        <pt x="238" y="565" on="1"/>
        <pt x="213" y="516" on="0"/>
        <pt x="198" y="411" on="0"/>
        <pt x="198" y="340" on="1"/>
        <pt x="198" y="315" on="0"/>
        <pt x="200" y="259" on="0"/>
        <pt x="208" y="202" on="0"/>
        <pt x="224" y="146" on="0"/>
        <pt x="238" y="120" on="1"/>
        <pt x="267" y="69" on="0"/>
        <pt x="350" y="27" on="0"/>
      </contour>
      <contour>
        <pt x="522" y="250" on="1"/>
        <pt x="475" y="250" on="1"/>
        <pt x="475" y="284" on="1"/>
        <pt x="302" y="284" on="1"/>
        <pt x="302" y="250" on="1"/>
        <pt x="255" y="250" on="1"/>
        <pt x="255" y="439" on="1"/>
        <pt x="302" y="439" on="1"/>
        <pt x="302" y="405" on="1"/>
        <pt x="475" y="405" on="1"/>
        <pt x="475" y="439" on="1"/>
        <pt x="522" y="439" on="1"/>
      </contour>
    </TTGlyph>
    <TTGlyph name="U" xMin="34" yMin="-11" xMax="734" yMax="686">
      <contour>
        <pt x="640" y="227" on="1"/>
        <pt x="640" y="178" on="0"/>
        <pt x="610" y="91" on="0"/>
        <pt x="550" y="27" on="0"/>
        <pt x="462" y="-11" on="0"/>
        <pt x="404" y="-11" on="1"/>
        <pt x="339" y="-11" on="0"/>
        <pt x="236" y="26" on="0"/>
        <pt x="165" y="90" on="0"/>
        <pt x="128" y="178" on="0"/>
        <pt x="128" y="229" on="1"/>
        <pt x="128" y="639" on="1"/>
        <pt x="34" y="639" on="1"/>
        <pt x="34" y="686" on="1"/>
        <pt x="47" y="685" on="0"/>
        <pt x="91" y="684" on="0"/>
        <pt x="139" y="683" on="0"/>
        <pt x="184" y="683" on="0"/>
        <pt x="199" y="683" on="1"/>
        <pt x="214" y="683" on="0"/>
        <pt x="259" y="683" on="0"/>
        <pt x="307" y="684" on="0"/>
        <pt x="351" y="685" on="0"/>
        <pt x="364" y="686" on="1"/>
        <pt x="364" y="639" on="1"/>
        <pt x="270" y="639" on="1"/>
        <pt x="270" y="210" on="1"/>
        <pt x="270" y="193" on="0"/>
        <pt x="274" y="135" on="0"/>
        <pt x="300" y="78" on="0"/>
        <pt x="356" y="36" on="0"/>
        <pt x="408" y="36" on="1"/>
        <pt x="439" y="36" on="0"/>
        <pt x="502" y="54" on="0"/>
        <pt x="554" y="99" on="0"/>
        <pt x="587" y="173" on="0"/>
        <pt x="587" y="230" on="1"/>
        <pt x="587" y="610" on="1"/>
        <pt x="587" y="627" on="0"/>
        <pt x="581" y="634" on="0"/>
        <pt x="562" y="636" on="1"/>
        <pt x="557" y="637" on="0"/>
        <pt x="529" y="639" on="0"/>
        <pt x="513" y="639" on="1"/>
        <pt x="493" y="639" on="1"/>
        <pt x="493" y="686" on="1"/>
        <pt x="520" y="685" on="0"/>
        <pt x="586" y="683" on="0"/>
        <pt x="614" y="683" on="1"/>
        <pt x="641" y="683" on="0"/>
        <pt x="706" y="685" on="0"/>
        <pt x="734" y="686" on="1"/>
        <pt x="734" y="639" on="1"/>
        <pt x="714" y="639" on="1"/>
        <pt x="709" y="639" on="0"/>
        <pt x="681" y="638" on="0"/>
        <pt x="664" y="636" on="1"/>
        <pt x="646" y="634" on="0"/>
        <pt x="640" y="627" on="0"/>
        <pt x="640" y="610" on="1"/>
      </contour>
    </TTGlyph>
    <TTGlyph name="Upsilon" xMin="56" yMin="0" xMax="721" yMax="697">
      <contour>
        <pt x="460" y="47" on="1"/>
        <pt x="578" y="47" on="1"/>
        <pt x="578" y="0" on="1"/>
        <pt x="563" y="1" on="0"/>
        <pt x="513" y="2" on="0"/>
        <pt x="458" y="3" on="0"/>
        <pt x="406" y="3" on="0"/>
        <pt x="389" y="3" on="1"/>
        <pt x="372" y="3" on="0"/>
        <pt x="320" y="3" on="0"/>
        <pt x="265" y="2" on="0"/>
        <pt x="215" y="1" on="0"/>
        <pt x="200" y="0" on="1"/>
        <pt x="200" y="47" on="1"/>
        <pt x="318" y="47" on="1"/>
        <pt x="318" y="351" on="1"/>
        <pt x="318" y="355" on="0"/>
        <pt x="317" y="390" on="0"/>
        <pt x="311" y="437" on="0"/>
        <pt x="298" y="491" on="0"/>
        <pt x="286" y="515" on="1"/>
        <pt x="274" y="540" on="0"/>
        <pt x="245" y="567" on="0"/>
        <pt x="217" y="580" on="0"/>
        <pt x="191" y="582" on="0"/>
        <pt x="181" y="582" on="1"/>
        <pt x="141" y="582" on="0"/>
        <pt x="111" y="567" on="0"/>
        <pt x="109" y="551" on="1"/>
        <pt x="107" y="536" on="0"/>
        <pt x="94" y="531" on="0"/>
        <pt x="83" y="531" on="1"/>
        <pt x="72" y="531" on="0"/>
        <pt x="56" y="537" on="0"/>
        <pt x="56" y="554" on="1"/>
        <pt x="56" y="575" on="0"/>
        <pt x="72" y="624" on="0"/>
        <pt x="105" y="668" on="0"/>
        <pt x="156" y="697" on="0"/>
        <pt x="191" y="697" on="1"/>
        <pt x="230" y="697" on="0"/>
        <pt x="293" y="666" on="0"/>
        <pt x="343" y="610" on="0"/>
        <pt x="378" y="533" on="0"/>
        <pt x="388" y="486" on="1"/>
        <pt x="389" y="486" on="1"/>
        <pt x="394" y="509" on="0"/>
        <pt x="418" y="581" on="0"/>
        <pt x="464" y="648" on="0"/>
        <pt x="535" y="697" on="0"/>
        <pt x="586" y="697" on="1"/>
        <pt x="621" y="697" on="0"/>
        <pt x="672" y="668" on="0"/>
        <pt x="705" y="625" on="0"/>
        <pt x="721" y="575" on="0"/>
        <pt x="721" y="554" on="1"/>
        <pt x="721" y="537" on="0"/>
        <pt x="705" y="531" on="0"/>
        <pt x="694" y="531" on="1"/>
        <pt x="677" y="531" on="0"/>
        <pt x="670" y="541" on="0"/>
        <pt x="668" y="553" on="1"/>
        <pt x="667" y="563" on="0"/>
        <pt x="653" y="574" on="0"/>
        <pt x="633" y="580" on="0"/>
        <pt x="609" y="582" on="0"/>
        <pt x="596" y="582" on="1"/>
        <pt x="586" y="582" on="0"/>
        <pt x="559" y="580" on="0"/>
        <pt x="530" y="566" on="0"/>
        <pt x="501" y="537" on="0"/>
        <pt x="488" y="510" on="1"/>
        <pt x="478" y="488" on="0"/>
        <pt x="466" y="435" on="0"/>
        <pt x="461" y="389" on="0"/>
        <pt x="460" y="355" on="0"/>
        <pt x="460" y="351" on="1"/>
      </contour>
    </TTGlyph>
    <TTGlyph name="V" xMin="22" yMin="-8" xMax="733" yMax="686">
      <contour>
        <pt x="415" y="17" on="1"/>
        <pt x="410" y="4" on="0"/>
        <pt x="398" y="-8" on="0"/>
        <pt x="377" y="-8" on="1"/>
        <pt x="357" y="-8" on="0"/>
        <pt x="345" y="4" on="0"/>
        <pt x="340" y="17" on="1"/>
        <pt x="103" y="639" on="1"/>
        <pt x="22" y="639" on="1"/>
        <pt x="22" y="686" on="1"/>
        <pt x="36" y="685" on="0"/>
        <pt x="74" y="684" on="0"/>
        <pt x="115" y="683" on="0"/>
        <pt x="154" y="683" on="0"/>
        <pt x="169" y="683" on="1"/>
        <pt x="184" y="683" on="0"/>
        <pt x="228" y="683" on="0"/>
        <pt x="275" y="684" on="0"/>
        <pt x="318" y="685" on="0"/>
        <pt x="331" y="686" on="1"/>
        <pt x="331" y="639" on="1"/>
        <pt x="249" y="639" on="1"/>
        <pt x="422" y="184" on="1"/>
        <pt x="591" y="629" on="1"/>
        <pt x="572" y="637" on="0"/>
        <pt x="528" y="639" on="0"/>
        <pt x="514" y="639" on="1"/>
        <pt x="514" y="686" on="1"/>
        <pt x="535" y="685" on="0"/>
        <pt x="602" y="683" on="0"/>
        <pt x="631" y="683" on="1"/>
        <pt x="658" y="683" on="0"/>
        <pt x="716" y="685" on="0"/>
        <pt x="733" y="686" on="1"/>
        <pt x="733" y="639" on="1"/>
        <pt x="703" y="639" on="0"/>
        <pt x="670" y="637" on="0"/>
        <pt x="653" y="631" on="0"/>
        <pt x="647" y="622" on="0"/>
        <pt x="644" y="616" on="1"/>
      </contour>
    </TTGlyph>
    <TTGlyph name="W" xMin="21" yMin="-8" xMax="1011" yMax="686">
      <contour>
        <pt x="726" y="17" on="1"/>
        <pt x="722" y="5" on="0"/>
        <pt x="710" y="-8" on="0"/>
        <pt x="693" y="-8" on="1"/>
        <pt x="675" y="-8" on="0"/>
        <pt x="664" y="5" on="0"/>
        <pt x="659" y="18" on="1"/>
        <pt x="516" y="441" on="1"/>
        <pt x="373" y="17" on="1"/>
        <pt x="367" y="0" on="0"/>
        <pt x="350" y="-8" on="0"/>
        <pt x="339" y="-8" on="1"/>
        <pt x="322" y="-8" on="0"/>
        <pt x="310" y="5" on="0"/>
        <pt x="306" y="17" on="1"/>
        <pt x="96" y="639" on="1"/>
        <pt x="21" y="639" on="1"/>
        <pt x="21" y="686" on="1"/>
        <pt x="36" y="685" on="0"/>
        <pt x="72" y="684" on="0"/>
        <pt x="110" y="683" on="0"/>
        <pt x="148" y="683" on="0"/>
        <pt x="163" y="683" on="1"/>
        <pt x="178" y="683" on="0"/>
        <pt x="222" y="683" on="0"/>
        <pt x="268" y="684" on="0"/>
        <pt x="311" y="685" on="0"/>
        <pt x="324" y="686" on="1"/>
        <pt x="324" y="639" on="1"/>
        <pt x="240" y="639" on="1"/>
        <pt x="387" y="205" on="1"/>
        <pt x="491" y="515" on="1"/>
        <pt x="449" y="639" on="1"/>
        <pt x="374" y="639" on="1"/>
        <pt x="374" y="686" on="1"/>
        <pt x="389" y="685" on="0"/>
        <pt x="425" y="684" on="0"/>
        <pt x="463" y="683" on="0"/>
        <pt x="501" y="683" on="0"/>
        <pt x="516" y="683" on="1"/>
        <pt x="531" y="683" on="0"/>
        <pt x="575" y="683" on="0"/>
        <pt x="621" y="684" on="0"/>
        <pt x="664" y="685" on="0"/>
        <pt x="677" y="686" on="1"/>
        <pt x="677" y="639" on="1"/>
        <pt x="593" y="639" on="1"/>
        <pt x="740" y="205" on="1"/>
        <pt x="882" y="628" on="1"/>
        <pt x="861" y="636" on="0"/>
        <pt x="813" y="639" on="0"/>
        <pt x="793" y="639" on="1"/>
        <pt x="793" y="686" on="1"/>
        <pt x="803" y="685" on="0"/>
        <pt x="841" y="684" on="0"/>
        <pt x="879" y="683" on="0"/>
        <pt x="911" y="683" on="0"/>
        <pt x="915" y="683" on="1"/>
        <pt x="932" y="683" on="0"/>
        <pt x="986" y="684" on="0"/>
        <pt x="1011" y="686" on="1"/>
        <pt x="1011" y="639" on="1"/>
        <pt x="983" y="639" on="0"/>
        <pt x="952" y="636" on="0"/>
        <pt x="936" y="631" on="0"/>
        <pt x="930" y="622" on="0"/>
        <pt x="928" y="616" on="1"/>
      </contour>
    </TTGlyph>
    <TTGlyph name="X" xMin="29" yMin="0" xMax="727" yMax="686">
      <contour>
        <pt x="642" y="47" on="1"/>
        <pt x="727" y="47" on="1"/>
        <pt x="727" y="0" on="1"/>
        <pt x="713" y="1" on="0"/>
        <pt x="675" y="2" on="0"/>
        <pt x="634" y="3" on="0"/>
        <pt x="594" y="3" on="0"/>
        <pt x="579" y="3" on="1"/>
        <pt x="564" y="3" on="0"/>
        <pt x="519" y="3" on="0"/>
        <pt x="472" y="2" on="0"/>
        <pt x="429" y="1" on="0"/>
        <pt x="415" y="0" on="1"/>
        <pt x="415" y="47" on="1"/>
        <pt x="488" y="47" on="1"/>
        <pt x="347" y="279" on="1"/>
        <pt x="205" y="58" on="1"/>
        <pt x="228" y="50" on="0"/>
        <pt x="275" y="47" on="0"/>
        <pt x="289" y="47" on="1"/>
        <pt x="289" y="0" on="1"/>
        <pt x="275" y="1" on="0"/>
        <pt x="240" y="2" on="0"/>
        <pt x="202" y="3" on="0"/>
        <pt x="166" y="3" on="0"/>
        <pt x="151" y="3" on="1"/>
        <pt x="122" y="3" on="0"/>
        <pt x="58" y="1" on="0"/>
        <pt x="29" y="0" on="1"/>
        <pt x="29" y="47" on="1"/>
        <pt x="53" y="47" on="1"/>
        <pt x="55" y="47" on="0"/>
        <pt x="75" y="47" on="0"/>
        <pt x="103" y="49" on="0"/>
        <pt x="132" y="53" on="0"/>
        <pt x="141" y="57" on="1"/>
        <pt x="316" y="329" on="1"/>
        <pt x="127" y="639" on="1"/>
        <pt x="42" y="639" on="1"/>
        <pt x="42" y="686" on="1"/>
        <pt x="56" y="685" on="0"/>
        <pt x="94" y="684" on="0"/>
        <pt x="136" y="683" on="0"/>
        <pt x="175" y="683" on="0"/>
        <pt x="190" y="683" on="1"/>
        <pt x="205" y="683" on="0"/>
        <pt x="250" y="683" on="0"/>
        <pt x="297" y="684" on="0"/>
        <pt x="341" y="685" on="0"/>
        <pt x="354" y="686" on="1"/>
        <pt x="354" y="639" on="1"/>
        <pt x="281" y="639" on="1"/>
        <pt x="395" y="451" on="1"/>
        <pt x="501" y="616" on="1"/>
        <pt x="508" y="628" on="1"/>
        <pt x="485" y="636" on="0"/>
        <pt x="435" y="639" on="0"/>
        <pt x="424" y="639" on="1"/>
        <pt x="424" y="686" on="1"/>
        <pt x="438" y="685" on="0"/>
        <pt x="473" y="684" on="0"/>
        <pt x="511" y="683" on="0"/>
        <pt x="548" y="683" on="0"/>
        <pt x="562" y="683" on="1"/>
        <pt x="591" y="683" on="0"/>
        <pt x="655" y="685" on="0"/>
        <pt x="684" y="686" on="1"/>
        <pt x="684" y="639" on="1"/>
        <pt x="660" y="639" on="1"/>
        <pt x="650" y="639" on="0"/>
        <pt x="637" y="639" on="0"/>
        <pt x="627" y="638" on="0"/>
        <pt x="615" y="637" on="0"/>
        <pt x="606" y="636" on="1"/>
        <pt x="595" y="635" on="0"/>
        <pt x="582" y="633" on="0"/>
        <pt x="574" y="629" on="0"/>
        <pt x="569" y="623" on="0"/>
        <pt x="565" y="617" on="1"/>
        <pt x="426" y="401" on="1"/>
      </contour>
    </TTGlyph>
    <TTGlyph name="Xi" xMin="42" yMin="0" xMax="624" yMax="675">
      <contour>
        <pt x="619" y="477" on="1"/>
        <pt x="572" y="477" on="1"/>
        <pt x="570" y="502" on="0"/>
        <pt x="566" y="545" on="0"/>
        <pt x="560" y="554" on="1"/>
        <pt x="558" y="557" on="0"/>
        <pt x="537" y="561" on="0"/>
        <pt x="513" y="563" on="0"/>
        <pt x="491" y="563" on="0"/>
        <pt x="488" y="563" on="1"/>
        <pt x="178" y="563" on="1"/>
        <pt x="168" y="563" on="0"/>
        <pt x="143" y="563" on="0"/>
        <pt x="122" y="560" on="0"/>
        <pt x="106" y="556" on="0"/>
        <pt x="104" y="551" on="1"/>
        <pt x="99" y="540" on="0"/>
        <pt x="95" y="501" on="0"/>
        <pt x="94" y="477" on="1"/>
        <pt x="47" y="477" on="1"/>
        <pt x="56" y="675" on="1"/>
        <pt x="610" y="675" on="1"/>
      </contour>
      <contour>
        <pt x="42" y="209" on="1"/>
        <pt x="89" y="209" on="1"/>
        <pt x="91" y="175" on="0"/>
        <pt x="95" y="136" on="0"/>
        <pt x="100" y="125" on="1"/>
        <pt x="102" y="120" on="0"/>
        <pt x="119" y="115" on="0"/>
        <pt x="142" y="112" on="0"/>
        <pt x="167" y="112" on="0"/>
        <pt x="177" y="112" on="1"/>
        <pt x="489" y="112" on="1"/>
        <pt x="496" y="112" on="0"/>
        <pt x="520" y="112" on="0"/>
        <pt x="544" y="114" on="0"/>
        <pt x="563" y="119" on="0"/>
        <pt x="566" y="123" on="1"/>
        <pt x="571" y="133" on="0"/>
        <pt x="575" y="175" on="0"/>
        <pt x="577" y="209" on="1"/>
        <pt x="624" y="209" on="1"/>
        <pt x="615" y="0" on="1"/>
        <pt x="51" y="0" on="1"/>
      </contour>
      <contour>
        <pt x="527" y="248" on="1"/>
        <pt x="480" y="248" on="1"/>
        <pt x="480" y="295" on="1"/>
        <pt x="186" y="295" on="1"/>
        <pt x="186" y="248" on="1"/>
        <pt x="139" y="248" on="1"/>
        <pt x="139" y="454" on="1"/>
        <pt x="186" y="454" on="1"/>
        <pt x="186" y="407" on="1"/>
        <pt x="480" y="407" on="1"/>
        <pt x="480" y="454" on="1"/>
        <pt x="527" y="454" on="1"/>
      </contour>
    </TTGlyph>
    <TTGlyph name="Y" xMin="16" yMin="0" xMax="739" yMax="686">
      <contour>
        <pt x="445" y="274" on="1"/>
        <pt x="445" y="47" on="1"/>
        <pt x="540" y="47" on="1"/>
        <pt x="540" y="0" on="1"/>
        <pt x="527" y="1" on="0"/>
        <pt x="484" y="2" on="0"/>
        <pt x="437" y="3" on="0"/>
        <pt x="392" y="3" on="0"/>
        <pt x="377" y="3" on="1"/>
        <pt x="362" y="3" on="0"/>
        <pt x="317" y="3" on="0"/>
        <pt x="271" y="2" on="0"/>
        <pt x="228" y="1" on="0"/>
        <pt x="215" y="0" on="1"/>
        <pt x="215" y="47" on="1"/>
        <pt x="309" y="47" on="1"/>
        <pt x="309" y="274" on="1"/>
        <pt x="101" y="639" on="1"/>
        <pt x="16" y="639" on="1"/>
        <pt x="16" y="686" on="1"/>
        <pt x="30" y="685" on="0"/>
        <pt x="69" y="684" on="0"/>
        <pt x="111" y="683" on="0"/>
        <pt x="151" y="683" on="0"/>
        <pt x="166" y="683" on="1"/>
        <pt x="181" y="683" on="0"/>
        <pt x="227" y="683" on="0"/>
        <pt x="275" y="684" on="0"/>
        <pt x="320" y="685" on="0"/>
        <pt x="333" y="686" on="1"/>
        <pt x="333" y="639" on="1"/>
        <pt x="258" y="639" on="1"/>
        <pt x="425" y="346" on="1"/>
        <pt x="587" y="629" on="1"/>
        <pt x="569" y="637" on="0"/>
        <pt x="535" y="639" on="0"/>
        <pt x="518" y="639" on="1"/>
        <pt x="518" y="686" on="1"/>
        <pt x="531" y="685" on="0"/>
        <pt x="566" y="684" on="0"/>
        <pt x="600" y="683" on="0"/>
        <pt x="630" y="683" on="0"/>
        <pt x="637" y="683" on="1"/>
        <pt x="664" y="683" on="0"/>
        <pt x="722" y="685" on="0"/>
        <pt x="739" y="686" on="1"/>
        <pt x="739" y="639" on="1"/>
        <pt x="707" y="639" on="0"/>
        <pt x="671" y="636" on="0"/>
        <pt x="652" y="631" on="0"/>
        <pt x="645" y="623" on="0"/>
        <pt x="642" y="618" on="1"/>
      </contour>
    </TTGlyph>
    <TTGlyph name="Z" xMin="56" yMin="0" xMax="560" yMax="686">
      <contour>
        <pt x="214" y="51" on="1"/>
        <pt x="314" y="51" on="1"/>
        <pt x="384" y="51" on="0"/>
        <pt x="462" y="96" on="0"/>
        <pt x="500" y="164" on="0"/>
        <pt x="511" y="247" on="0"/>
        <pt x="513" y="284" on="1"/>
        <pt x="560" y="284" on="1"/>
        <pt x="542" y="0" on="1"/>
        <pt x="88" y="0" on="1"/>
        <pt x="71" y="0" on="0"/>
        <pt x="56" y="6" on="0"/>
        <pt x="56" y="26" on="1"/>
        <pt x="56" y="33" on="0"/>
        <pt x="58" y="43" on="0"/>
        <pt x="63" y="52" on="1"/>
        <pt x="397" y="639" on="1"/>
        <pt x="303" y="639" on="1"/>
        <pt x="238" y="639" on="0"/>
        <pt x="165" y="597" on="0"/>
        <pt x="128" y="537" on="0"/>
        <pt x="118" y="470" on="0"/>
        <pt x="116" y="445" on="1"/>
        <pt x="69" y="445" on="1"/>
        <pt x="81" y="686" on="1"/>
        <pt x="522" y="686" on="1"/>
        <pt x="538" y="686" on="0"/>
        <pt x="554" y="680" on="0"/>
        <pt x="554" y="661" on="1"/>
        <pt x="554" y="656" on="0"/>
        <pt x="552" y="646" on="0"/>
        <pt x="547" y="637" on="1"/>
      </contour>
    </TTGlyph>
    <TTGlyph name="a" xMin="28" yMin="-6" xMax="485" yMax="453">
      <contour>
        <pt x="417" y="84" on="1"/>
        <pt x="417" y="76" on="0"/>
        <pt x="418" y="63" on="0"/>
        <pt x="427" y="54" on="0"/>
        <pt x="446" y="48" on="0"/>
        <pt x="464" y="47" on="1"/>
        <pt x="472" y="46" on="0"/>
        <pt x="485" y="39" on="0"/>
        <pt x="485" y="24" on="1"/>
        <pt x="485" y="6" on="0"/>
        <pt x="468" y="0" on="0"/>
        <pt x="453" y="0" on="1"/>
        <pt x="411" y="0" on="1"/>
        <pt x="377" y="0" on="0"/>
        <pt x="340" y="17" on="0"/>
        <pt x="323" y="41" on="0"/>
        <pt x="320" y="66" on="0"/>
        <pt x="320" y="74" on="1"/>
        <pt x="304" y="40" on="0"/>
        <pt x="243" y="-6" on="0"/>
        <pt x="197" y="-6" on="1"/>
        <pt x="169" y="-6" on="0"/>
        <pt x="109" y="7" on="0"/>
        <pt x="60" y="34" on="0"/>
        <pt x="28" y="78" on="0"/>
        <pt x="28" y="109" on="1"/>
        <pt x="28" y="148" on="0"/>
        <pt x="73" y="206" on="0"/>
        <pt x="150" y="244" on="0"/>
        <pt x="249" y="264" on="0"/>
        <pt x="303" y="265" on="1"/>
        <pt x="303" y="301" on="1"/>
        <pt x="303" y="352" on="0"/>
        <pt x="262" y="417" on="0"/>
        <pt x="217" y="417" on="1"/>
        <pt x="194" y="417" on="0"/>
        <pt x="174" y="414" on="0"/>
        <pt x="158" y="411" on="1"/>
        <pt x="159" y="410" on="0"/>
        <pt x="181" y="385" on="0"/>
        <pt x="181" y="361" on="1"/>
        <pt x="181" y="329" on="0"/>
        <pt x="141" y="298" on="0"/>
        <pt x="118" y="298" on="1"/>
        <pt x="108" y="298" on="0"/>
        <pt x="86" y="305" on="0"/>
        <pt x="68" y="321" on="0"/>
        <pt x="56" y="345" on="0"/>
        <pt x="56" y="361" on="1"/>
        <pt x="56" y="395" on="0"/>
        <pt x="98" y="432" on="0"/>
        <pt x="153" y="450" on="0"/>
        <pt x="208" y="453" on="0"/>
        <pt x="220" y="453" on="1"/>
        <pt x="313" y="453" on="0"/>
        <pt x="417" y="372" on="0"/>
        <pt x="417" y="300" on="1"/>
      </contour>
      <contour>
        <pt x="303" y="233" on="1"/>
        <pt x="293" y="232" on="0"/>
        <pt x="241" y="224" on="0"/>
        <pt x="187" y="199" on="0"/>
        <pt x="145" y="150" on="0"/>
        <pt x="145" y="109" on="1"/>
        <pt x="145" y="95" on="0"/>
        <pt x="153" y="67" on="0"/>
        <pt x="170" y="44" on="0"/>
        <pt x="194" y="30" on="0"/>
        <pt x="209" y="30" on="1"/>
        <pt x="220" y="30" on="0"/>
        <pt x="252" y="40" on="0"/>
        <pt x="282" y="64" on="0"/>
        <pt x="303" y="106" on="0"/>
        <pt x="303" y="138" on="1"/>
      </contour>
    </TTGlyph>
    <TTGlyph name="acute" xMin="206" yMin="511" xMax="400" yMax="706">
      <contour>
        <pt x="239" y="511" on="1"/>
        <pt x="206" y="544" on="1"/>
        <pt x="290" y="676" on="1"/>
        <pt x="298" y="689" on="0"/>
        <pt x="321" y="706" on="0"/>
        <pt x="338" y="706" on="1"/>
        <pt x="362" y="706" on="0"/>
        <pt x="400" y="668" on="0"/>
        <pt x="400" y="644" on="1"/>
        <pt x="400" y="623" on="0"/>
        <pt x="377" y="601" on="0"/>
        <pt x="368" y="595" on="1"/>
      </contour>
    </TTGlyph>
    <TTGlyph name="ae" xMin="28" yMin="-6" xMax="693" yMax="453">
      <contour>
        <pt x="418" y="218" on="1"/>
        <pt x="418" y="206" on="0"/>
        <pt x="419" y="175" on="0"/>
        <pt x="424" y="141" on="0"/>
        <pt x="433" y="107" on="0"/>
        <pt x="441" y="92" on="1"/>
        <pt x="460" y="58" on="0"/>
        <pt x="514" y="34" on="0"/>
        <pt x="537" y="34" on="1"/>
        <pt x="549" y="34" on="0"/>
        <pt x="579" y="41" on="0"/>
        <pt x="609" y="59" on="0"/>
        <pt x="636" y="91" on="0"/>
        <pt x="645" y="116" on="1"/>
        <pt x="648" y="125" on="0"/>
        <pt x="655" y="135" on="0"/>
        <pt x="669" y="135" on="1"/>
        <pt x="671" y="135" on="0"/>
        <pt x="679" y="134" on="0"/>
        <pt x="687" y="131" on="0"/>
        <pt x="693" y="124" on="0"/>
        <pt x="693" y="117" on="1"/>
        <pt x="693" y="109" on="0"/>
        <pt x="676" y="68" on="0"/>
        <pt x="637" y="26" on="0"/>
        <pt x="574" y="-6" on="0"/>
        <pt x="529" y="-6" on="1"/>
        <pt x="494" y="-6" on="0"/>
        <pt x="408" y="18" on="0"/>
        <pt x="369" y="54" on="1"/>
        <pt x="350" y="35" on="0"/>
        <pt x="305" y="11" on="0"/>
        <pt x="260" y="-2" on="0"/>
        <pt x="218" y="-6" on="0"/>
        <pt x="200" y="-6" on="1"/>
        <pt x="166" y="-6" on="0"/>
        <pt x="104" y="7" on="0"/>
        <pt x="56" y="34" on="0"/>
        <pt x="28" y="75" on="0"/>
        <pt x="28" y="103" on="1"/>
        <pt x="28" y="136" on="0"/>
        <pt x="60" y="182" on="0"/>
        <pt x="110" y="214" on="0"/>
        <pt x="173" y="233" on="0"/>
        <pt x="234" y="243" on="0"/>
        <pt x="288" y="247" on="0"/>
        <pt x="304" y="248" on="1"/>
        <pt x="304" y="301" on="1"/>
        <pt x="304" y="354" on="0"/>
        <pt x="262" y="417" on="0"/>
        <pt x="217" y="417" on="1"/>
        <pt x="194" y="417" on="0"/>
        <pt x="174" y="414" on="0"/>
        <pt x="158" y="411" on="1"/>
        <pt x="159" y="410" on="0"/>
        <pt x="181" y="385" on="0"/>
        <pt x="181" y="361" on="1"/>
        <pt x="181" y="329" on="0"/>
        <pt x="141" y="298" on="0"/>
        <pt x="118" y="298" on="1"/>
        <pt x="108" y="298" on="0"/>
        <pt x="86" y="305" on="0"/>
        <pt x="68" y="321" on="0"/>
        <pt x="56" y="345" on="0"/>
        <pt x="56" y="361" on="1"/>
        <pt x="56" y="395" on="0"/>
        <pt x="98" y="432" on="0"/>
        <pt x="154" y="450" on="0"/>
        <pt x="208" y="453" on="0"/>
        <pt x="221" y="453" on="1"/>
        <pt x="230" y="453" on="0"/>
        <pt x="265" y="451" on="0"/>
        <pt x="309" y="442" on="0"/>
        <pt x="356" y="422" on="0"/>
        <pt x="376" y="403" on="1"/>
        <pt x="408" y="431" on="0"/>
        <pt x="482" y="453" on="0"/>
        <pt x="517" y="453" on="1"/>
        <pt x="562" y="453" on="0"/>
        <pt x="628" y="423" on="0"/>
        <pt x="671" y="368" on="0"/>
        <pt x="693" y="292" on="0"/>
        <pt x="693" y="247" on="1"/>
        <pt x="693" y="226" on="0"/>
        <pt x="680" y="218" on="0"/>
        <pt x="661" y="218" on="1"/>
      </contour>
      <contour>
        <pt x="598" y="251" on="1"/>
        <pt x="598" y="265" on="0"/>
        <pt x="594" y="321" on="0"/>
        <pt x="578" y="376" on="0"/>
        <pt x="546" y="417" on="0"/>
        <pt x="517" y="417" on="1"/>
        <pt x="488" y="417" on="0"/>
        <pt x="447" y="383" on="0"/>
        <pt x="436" y="360" on="1"/>
        <pt x="424" y="334" on="0"/>
        <pt x="419" y="277" on="0"/>
        <pt x="418" y="251" on="1"/>
      </contour>
      <contour>
        <pt x="304" y="214" on="1"/>
        <pt x="293" y="213" on="0"/>
        <pt x="241" y="206" on="0"/>
        <pt x="187" y="183" on="0"/>
        <pt x="145" y="139" on="0"/>
        <pt x="145" y="103" on="1"/>
        <pt x="145" y="91" on="0"/>
        <pt x="153" y="65" on="0"/>
        <pt x="170" y="44" on="0"/>
        <pt x="194" y="30" on="0"/>
        <pt x="210" y="30" on="1"/>
        <pt x="236" y="30" on="0"/>
        <pt x="277" y="48" on="0"/>
        <pt x="307" y="75" on="0"/>
        <pt x="323" y="107" on="0"/>
        <pt x="323" y="121" on="1"/>
        <pt x="323" y="123" on="0"/>
        <pt x="322" y="126" on="0"/>
        <pt x="320" y="130" on="1"/>
        <pt x="311" y="156" on="0"/>
        <pt x="305" y="198" on="0"/>
      </contour>
    </TTGlyph>
    <TTGlyph name="ampersand" xMin="42" yMin="-11" xMax="727" yMax="705">
      <contour>
        <pt x="721" y="118" on="1"/>
        <pt x="720" y="90" on="0"/>
        <pt x="698" y="42" on="0"/>
        <pt x="660" y="8" on="0"/>
        <pt x="609" y="-11" on="0"/>
        <pt x="579" y="-11" on="1"/>
        <pt x="527" y="-11" on="0"/>
        <pt x="432" y="27" on="0"/>
        <pt x="398" y="53" on="1"/>
        <pt x="367" y="29" on="0"/>
        <pt x="279" y="-11" on="0"/>
        <pt x="223" y="-11" on="1"/>
        <pt x="186" y="-11" on="0"/>
        <pt x="120" y="12" on="0"/>
        <pt x="70" y="51" on="0"/>
        <pt x="42" y="106" on="0"/>
        <pt x="42" y="137" on="1"/>
        <pt x="42" y="149" on="0"/>
        <pt x="50" y="189" on="0"/>
        <pt x="67" y="213" on="1"/>
        <pt x="69" y="216" on="0"/>
        <pt x="86" y="234" on="0"/>
        <pt x="110" y="259" on="0"/>
        <pt x="138" y="287" on="0"/>
        <pt x="163" y="312" on="0"/>
        <pt x="182" y="330" on="0"/>
        <pt x="184" y="332" on="1"/>
        <pt x="178" y="347" on="0"/>
        <pt x="164" y="389" on="0"/>
        <pt x="151" y="440" on="0"/>
        <pt x="143" y="498" on="0"/>
        <pt x="143" y="528" on="1"/>
        <pt x="143" y="571" on="0"/>
        <pt x="174" y="637" on="0"/>
        <pt x="222" y="682" on="0"/>
        <pt x="281" y="705" on="0"/>
        <pt x="309" y="705" on="1"/>
        <pt x="337" y="705" on="0"/>
        <pt x="375" y="678" on="0"/>
        <pt x="398" y="639" on="0"/>
        <pt x="408" y="593" on="0"/>
        <pt x="408" y="574" on="1"/>
        <pt x="408" y="546" on="0"/>
        <pt x="374" y="484" on="0"/>
        <pt x="332" y="429" on="0"/>
        <pt x="292" y="389" on="0"/>
        <pt x="286" y="383" on="1"/>
        <pt x="299" y="351" on="0"/>
        <pt x="339" y="283" on="0"/>
        <pt x="383" y="220" on="0"/>
        <pt x="423" y="169" on="0"/>
        <pt x="436" y="153" on="1"/>
        <pt x="462" y="183" on="0"/>
        <pt x="503" y="246" on="0"/>
        <pt x="516" y="269" on="1"/>
        <pt x="519" y="274" on="0"/>
        <pt x="541" y="310" on="0"/>
        <pt x="564" y="350" on="0"/>
        <pt x="583" y="383" on="0"/>
        <pt x="583" y="385" on="1"/>
        <pt x="583" y="390" on="0"/>
        <pt x="562" y="394" on="0"/>
        <pt x="535" y="397" on="0"/>
        <pt x="510" y="397" on="0"/>
        <pt x="506" y="397" on="1"/>
        <pt x="506" y="444" on="1"/>
        <pt x="516" y="443" on="0"/>
        <pt x="554" y="442" on="0"/>
        <pt x="592" y="441" on="0"/>
        <pt x="624" y="441" on="0"/>
        <pt x="628" y="441" on="1"/>
        <pt x="648" y="441" on="0"/>
        <pt x="703" y="442" on="0"/>
        <pt x="727" y="444" on="1"/>
        <pt x="727" y="397" on="1"/>
        <pt x="719" y="397" on="0"/>
        <pt x="679" y="396" on="0"/>
        <pt x="662" y="394" on="1"/>
        <pt x="654" y="393" on="0"/>
        <pt x="645" y="391" on="0"/>
        <pt x="638" y="385" on="0"/>
        <pt x="631" y="375" on="0"/>
        <pt x="626" y="366" on="1"/>
        <pt x="622" y="359" on="0"/>
        <pt x="605" y="331" on="0"/>
        <pt x="603" y="326" on="1"/>
        <pt x="569" y="268" on="0"/>
        <pt x="505" y="165" on="0"/>
        <pt x="465" y="118" on="1"/>
        <pt x="467" y="116" on="0"/>
        <pt x="490" y="90" on="0"/>
        <pt x="525" y="60" on="0"/>
        <pt x="566" y="36" on="0"/>
        <pt x="585" y="36" on="1"/>
        <pt x="593" y="36" on="0"/>
        <pt x="622" y="43" on="0"/>
        <pt x="651" y="61" on="0"/>
        <pt x="673" y="93" on="0"/>
        <pt x="674" y="118" on="1"/>
      </contour>
      <contour>
        <pt x="272" y="421" on="1"/>
        <pt x="300" y="451" on="0"/>
        <pt x="335" y="497" on="0"/>
        <pt x="354" y="534" on="0"/>
        <pt x="361" y="563" on="0"/>
        <pt x="361" y="575" on="1"/>
        <pt x="361" y="578" on="0"/>
        <pt x="359" y="609" on="0"/>
        <pt x="349" y="642" on="0"/>
        <pt x="329" y="669" on="0"/>
        <pt x="311" y="669" on="1"/>
        <pt x="302" y="669" on="0"/>
        <pt x="279" y="660" on="0"/>
        <pt x="260" y="636" on="0"/>
        <pt x="247" y="596" on="0"/>
        <pt x="247" y="565" on="1"/>
        <pt x="247" y="530" on="0"/>
        <pt x="261" y="453" on="0"/>
      </contour>
      <contour>
        <pt x="200" y="297" on="1"/>
        <pt x="189" y="282" on="0"/>
        <pt x="177" y="247" on="0"/>
        <pt x="171" y="212" on="0"/>
        <pt x="170" y="183" on="0"/>
        <pt x="170" y="174" on="1"/>
        <pt x="170" y="127" on="0"/>
        <pt x="182" y="72" on="0"/>
        <pt x="200" y="44" on="0"/>
        <pt x="222" y="36" on="0"/>
        <pt x="233" y="36" on="1"/>
        <pt x="271" y="36" on="0"/>
        <pt x="336" y="63" on="0"/>
        <pt x="362" y="81" on="1"/>
        <pt x="260" y="174" on="0"/>
      </contour>
    </TTGlyph>
    <TTGlyph name="asterisk" xMin="62" yMin="306" xMax="437" yMax="750">
      <contour>
        <pt x="291" y="365" on="1"/>
        <pt x="293" y="355" on="0"/>
        <pt x="294" y="347" on="0"/>
        <pt x="294" y="345" on="1"/>
        <pt x="294" y="328" on="0"/>
        <pt x="266" y="306" on="0"/>
        <pt x="249" y="306" on="1"/>
        <pt x="234" y="306" on="0"/>
        <pt x="205" y="326" on="0"/>
        <pt x="205" y="345" on="1"/>
        <pt x="205" y="347" on="0"/>
        <pt x="206" y="352" on="0"/>
        <pt x="207" y="358" on="1"/>
        <pt x="229" y="492" on="1"/>
        <pt x="135" y="407" on="1"/>
        <pt x="129" y="402" on="0"/>
        <pt x="116" y="394" on="0"/>
        <pt x="107" y="394" on="1"/>
        <pt x="92" y="394" on="0"/>
        <pt x="62" y="420" on="0"/>
        <pt x="62" y="443" on="1"/>
        <pt x="62" y="463" on="0"/>
        <pt x="80" y="476" on="0"/>
        <pt x="91" y="480" on="1"/>
        <pt x="212" y="528" on="1"/>
        <pt x="91" y="576" on="1"/>
        <pt x="80" y="580" on="0"/>
        <pt x="62" y="593" on="0"/>
        <pt x="62" y="613" on="1"/>
        <pt x="62" y="636" on="0"/>
        <pt x="92" y="662" on="0"/>
        <pt x="107" y="662" on="1"/>
        <pt x="116" y="662" on="0"/>
        <pt x="127" y="656" on="0"/>
        <pt x="135" y="648" on="1"/>
        <pt x="229" y="564" on="1"/>
        <pt x="208" y="691" on="1"/>
        <pt x="206" y="701" on="0"/>
        <pt x="205" y="709" on="0"/>
        <pt x="205" y="711" on="1"/>
        <pt x="205" y="728" on="0"/>
        <pt x="233" y="750" on="0"/>
        <pt x="250" y="750" on="1"/>
        <pt x="265" y="750" on="0"/>
        <pt x="294" y="730" on="0"/>
        <pt x="294" y="711" on="1"/>
        <pt x="294" y="709" on="0"/>
        <pt x="293" y="704" on="0"/>
        <pt x="292" y="698" on="1"/>
        <pt x="270" y="564" on="1"/>
        <pt x="364" y="649" on="1"/>
        <pt x="370" y="654" on="0"/>
        <pt x="383" y="662" on="0"/>
        <pt x="392" y="662" on="1"/>
        <pt x="407" y="662" on="0"/>
        <pt x="437" y="636" on="0"/>
        <pt x="437" y="613" on="1"/>
        <pt x="437" y="593" on="0"/>
        <pt x="419" y="580" on="0"/>
        <pt x="408" y="576" on="1"/>
        <pt x="287" y="528" on="1"/>
        <pt x="408" y="480" on="1"/>
        <pt x="419" y="476" on="0"/>
        <pt x="437" y="463" on="0"/>
        <pt x="437" y="443" on="1"/>
        <pt x="437" y="420" on="0"/>
        <pt x="407" y="394" on="0"/>
        <pt x="392" y="394" on="1"/>
        <pt x="383" y="394" on="0"/>
        <pt x="372" y="400" on="0"/>
        <pt x="364" y="408" on="1"/>
        <pt x="270" y="492" on="1"/>
      </contour>
    </TTGlyph>
    <TTGlyph name="at" xMin="56" yMin="-6" xMax="721" yMax="700">
      <contour>
        <pt x="588" y="221" on="1"/>
        <pt x="588" y="216" on="0"/>
        <pt x="589" y="197" on="0"/>
        <pt x="594" y="178" on="0"/>
        <pt x="604" y="164" on="0"/>
        <pt x="614" y="164" on="1"/>
        <pt x="635" y="164" on="0"/>
        <pt x="659" y="194" on="0"/>
        <pt x="671" y="242" on="0"/>
        <pt x="674" y="302" on="0"/>
        <pt x="674" y="332" on="1"/>
        <pt x="674" y="350" on="0"/>
        <pt x="672" y="406" on="0"/>
        <pt x="658" y="471" on="0"/>
        <pt x="628" y="541" on="0"/>
        <pt x="600" y="573" on="1"/>
        <pt x="578" y="599" on="0"/>
        <pt x="524" y="634" on="0"/>
        <pt x="468" y="655" on="0"/>
        <pt x="413" y="664" on="0"/>
        <pt x="388" y="664" on="1"/>
        <pt x="330" y="664" on="0"/>
        <pt x="226" y="624" on="0"/>
        <pt x="148" y="545" on="0"/>
        <pt x="103" y="426" on="0"/>
        <pt x="103" y="347" on="1"/>
        <pt x="103" y="274" on="0"/>
        <pt x="144" y="156" on="0"/>
        <pt x="219" y="74" on="0"/>
        <pt x="326" y="30" on="0"/>
        <pt x="391" y="30" on="1"/>
        <pt x="445" y="30" on="0"/>
        <pt x="569" y="54" on="0"/>
        <pt x="638" y="86" on="1"/>
        <pt x="648" y="91" on="0"/>
        <pt x="657" y="93" on="0"/>
        <pt x="669" y="93" on="1"/>
        <pt x="693" y="93" on="1"/>
        <pt x="704" y="93" on="0"/>
        <pt x="721" y="90" on="0"/>
        <pt x="721" y="79" on="1"/>
        <pt x="721" y="75" on="0"/>
        <pt x="718" y="70" on="0"/>
        <pt x="718" y="69" on="1"/>
        <pt x="685" y="51" on="0"/>
        <pt x="603" y="23" on="0"/>
        <pt x="516" y="4" on="0"/>
        <pt x="430" y="-6" on="0"/>
        <pt x="392" y="-6" on="1"/>
        <pt x="313" y="-6" on="0"/>
        <pt x="189" y="46" on="0"/>
        <pt x="102" y="139" on="0"/>
        <pt x="56" y="269" on="0"/>
        <pt x="56" y="347" on="1"/>
        <pt x="56" y="431" on="0"/>
        <pt x="107" y="562" on="0"/>
        <pt x="196" y="653" on="0"/>
        <pt x="317" y="700" on="0"/>
        <pt x="388" y="700" on="1"/>
        <pt x="456" y="700" on="0"/>
        <pt x="576" y="656" on="0"/>
        <pt x="668" y="567" on="0"/>
        <pt x="721" y="433" on="0"/>
        <pt x="721" y="343" on="1"/>
        <pt x="721" y="293" on="0"/>
        <pt x="709" y="213" on="0"/>
        <pt x="682" y="158" on="0"/>
        <pt x="637" y="128" on="0"/>
        <pt x="605" y="128" on="1"/>
        <pt x="598" y="128" on="0"/>
        <pt x="570" y="130" on="0"/>
        <pt x="538" y="137" on="0"/>
        <pt x="504" y="153" on="0"/>
        <pt x="491" y="168" on="1"/>
        <pt x="470" y="149" on="0"/>
        <pt x="418" y="128" on="0"/>
        <pt x="387" y="128" on="1"/>
        <pt x="348" y="128" on="0"/>
        <pt x="277" y="155" on="0"/>
        <pt x="222" y="209" on="0"/>
        <pt x="189" y="292" on="0"/>
        <pt x="189" y="347" on="1"/>
        <pt x="189" y="402" on="0"/>
        <pt x="222" y="484" on="0"/>
        <pt x="276" y="539" on="0"/>
        <pt x="348" y="566" on="0"/>
        <pt x="387" y="566" on="1"/>
        <pt x="405" y="566" on="0"/>
        <pt x="443" y="557" on="0"/>
        <pt x="479" y="538" on="0"/>
        <pt x="512" y="506" on="0"/>
        <pt x="524" y="482" on="1"/>
        <pt x="558" y="482" on="1"/>
        <pt x="580" y="482" on="0"/>
        <pt x="588" y="473" on="0"/>
        <pt x="588" y="453" on="1"/>
      </contour>
      <contour>
        <pt x="474" y="453" on="1"/>
        <pt x="474" y="464" on="0"/>
        <pt x="475" y="473" on="0"/>
        <pt x="477" y="478" on="1"/>
        <pt x="459" y="505" on="0"/>
        <pt x="412" y="530" on="0"/>
        <pt x="390" y="530" on="1"/>
        <pt x="373" y="530" on="0"/>
        <pt x="342" y="508" on="0"/>
        <pt x="318" y="463" on="0"/>
        <pt x="303" y="394" on="0"/>
        <pt x="303" y="347" on="1"/>
        <pt x="303" y="253" on="0"/>
        <pt x="356" y="164" on="0"/>
        <pt x="390" y="164" on="1"/>
        <pt x="416" y="164" on="0"/>
        <pt x="458" y="191" on="0"/>
        <pt x="474" y="211" on="1"/>
      </contour>
    </TTGlyph>
    <TTGlyph name="b" xMin="16" yMin="-6" xMax="522" yMax="694">
      <contour>
        <pt x="193" y="408" on="1"/>
        <pt x="219" y="428" on="0"/>
        <pt x="278" y="450" on="0"/>
        <pt x="314" y="450" on="1"/>
        <pt x="355" y="450" on="0"/>
        <pt x="430" y="422" on="0"/>
        <pt x="488" y="365" on="0"/>
        <pt x="522" y="279" on="0"/>
        <pt x="522" y="222" on="1"/>
        <pt x="522" y="167" on="0"/>
        <pt x="487" y="82" on="0"/>
        <pt x="427" y="24" on="0"/>
        <pt x="347" y="-6" on="0"/>
        <pt x="302" y="-6" on="1"/>
        <pt x="257" y="-6" on="0"/>
        <pt x="198" y="29" on="0"/>
        <pt x="181" y="47" on="1"/>
        <pt x="133" y="0" on="1"/>
        <pt x="85" y="0" on="1"/>
        <pt x="85" y="600" on="1"/>
        <pt x="85" y="615" on="0"/>
        <pt x="81" y="630" on="0"/>
        <pt x="67" y="638" on="0"/>
        <pt x="39" y="639" on="0"/>
        <pt x="16" y="639" on="1"/>
        <pt x="16" y="686" on="1"/>
        <pt x="193" y="694" on="1"/>
      </contour>
      <contour>
        <pt x="199" y="89" on="1"/>
        <pt x="238" y="30" on="0"/>
        <pt x="294" y="30" on="1"/>
        <pt x="322" y="30" on="0"/>
        <pt x="368" y="62" on="0"/>
        <pt x="379" y="88" on="1"/>
        <pt x="390" y="117" on="0"/>
        <pt x="394" y="187" on="0"/>
        <pt x="394" y="223" on="1"/>
        <pt x="394" y="253" on="0"/>
        <pt x="391" y="327" on="0"/>
        <pt x="382" y="352" on="1"/>
        <pt x="373" y="381" on="0"/>
        <pt x="331" y="414" on="0"/>
        <pt x="304" y="414" on="1"/>
        <pt x="279" y="414" on="0"/>
        <pt x="224" y="389" on="0"/>
        <pt x="199" y="357" on="1"/>
      </contour>
    </TTGlyph>
    <TTGlyph name="bracketleft" xMin="107" yMin="-250" xMax="257" yMax="750">
      <contour>
        <pt x="107" y="-250" on="1"/>
        <pt x="107" y="750" on="1"/>
        <pt x="257" y="750" on="1"/>
        <pt x="257" y="689" on="1"/>
        <pt x="168" y="689" on="1"/>
        <pt x="168" y="-189" on="1"/>
        <pt x="257" y="-189" on="1"/>
        <pt x="257" y="-250" on="1"/>
      </contour>
    </TTGlyph>
    <TTGlyph name="bracketright" xMin="22" yMin="-250" xMax="172" yMax="750">
      <contour>
        <pt x="172" y="-250" on="1"/>
        <pt x="22" y="-250" on="1"/>
        <pt x="22" y="-189" on="1"/>
        <pt x="111" y="-189" on="1"/>
        <pt x="111" y="689" on="1"/>
        <pt x="22" y="689" on="1"/>
        <pt x="22" y="750" on="1"/>
        <pt x="172" y="750" on="1"/>
      </contour>
    </TTGlyph>
    <TTGlyph name="breve" xMin="93" yMin="507" xMax="406" yMax="694">
      <contour>
        <pt x="406" y="694" on="1"/>
        <pt x="405" y="649" on="0"/>
        <pt x="378" y="580" on="0"/>
        <pt x="334" y="532" on="0"/>
        <pt x="279" y="507" on="0"/>
        <pt x="250" y="507" on="1"/>
        <pt x="219" y="507" on="0"/>
        <pt x="163" y="533" on="0"/>
        <pt x="120" y="581" on="0"/>
        <pt x="94" y="651" on="0"/>
        <pt x="93" y="694" on="1"/>
        <pt x="129" y="694" on="1"/>
        <pt x="130" y="664" on="0"/>
        <pt x="151" y="618" on="0"/>
        <pt x="185" y="586" on="0"/>
        <pt x="228" y="569" on="0"/>
        <pt x="250" y="569" on="1"/>
        <pt x="271" y="569" on="0"/>
        <pt x="313" y="585" on="0"/>
        <pt x="347" y="617" on="0"/>
        <pt x="369" y="663" on="0"/>
        <pt x="370" y="694" on="1"/>
      </contour>
    </TTGlyph>
    <TTGlyph name="c" xMin="33" yMin="-6" xMax="415" yMax="453">
      <contour>
        <pt x="299" y="408" on="1"/>
        <pt x="287" y="410" on="0"/>
        <pt x="268" y="413" on="0"/>
        <pt x="254" y="413" on="1"/>
        <pt x="219" y="413" on="0"/>
        <pt x="181" y="372" on="0"/>
        <pt x="164" y="314" on="0"/>
        <pt x="161" y="250" on="0"/>
        <pt x="161" y="227" on="1"/>
        <pt x="161" y="191" on="0"/>
        <pt x="166" y="124" on="0"/>
        <pt x="180" y="95" on="1"/>
        <pt x="194" y="66" on="0"/>
        <pt x="238" y="34" on="0"/>
        <pt x="265" y="34" on="1"/>
        <pt x="293" y="34" on="0"/>
        <pt x="330" y="55" on="0"/>
        <pt x="353" y="82" on="0"/>
        <pt x="365" y="111" on="0"/>
        <pt x="368" y="118" on="1"/>
        <pt x="371" y="127" on="0"/>
        <pt x="380" y="131" on="0"/>
        <pt x="391" y="131" on="1"/>
        <pt x="399" y="131" on="0"/>
        <pt x="415" y="128" on="0"/>
        <pt x="415" y="117" on="1"/>
        <pt x="415" y="113" on="0"/>
        <pt x="401" y="73" on="0"/>
        <pt x="364" y="29" on="0"/>
        <pt x="299" y="-6" on="0"/>
        <pt x="248" y="-6" on="1"/>
        <pt x="204" y="-6" on="0"/>
        <pt x="126" y="24" on="0"/>
        <pt x="67" y="81" on="0"/>
        <pt x="33" y="167" on="0"/>
        <pt x="33" y="222" on="1"/>
        <pt x="33" y="275" on="0"/>
        <pt x="64" y="360" on="0"/>
        <pt x="121" y="420" on="0"/>
        <pt x="202" y="453" on="0"/>
        <pt x="251" y="453" on="1"/>
        <pt x="281" y="453" on="0"/>
        <pt x="336" y="443" on="0"/>
        <pt x="378" y="421" on="0"/>
        <pt x="404" y="386" on="0"/>
        <pt x="404" y="361" on="1"/>
        <pt x="404" y="329" on="0"/>
        <pt x="364" y="298" on="0"/>
        <pt x="341" y="298" on="1"/>
        <pt x="331" y="298" on="0"/>
        <pt x="309" y="305" on="0"/>
        <pt x="291" y="321" on="0"/>
        <pt x="279" y="345" on="0"/>
        <pt x="279" y="361" on="1"/>
        <pt x="279" y="378" on="0"/>
        <pt x="292" y="402" on="0"/>
      </contour>
    </TTGlyph>
    <TTGlyph name="caron" xMin="113" yMin="518" xMax="386" yMax="652">
      <contour>
        <pt x="362" y="652" on="1"/>
        <pt x="386" y="612" on="1"/>
        <pt x="249" y="518" on="1"/>
        <pt x="113" y="612" on="1"/>
        <pt x="137" y="652" on="1"/>
        <pt x="250" y="599" on="1"/>
      </contour>
    </TTGlyph>
    <TTGlyph name="cedilla" xMin="109" yMin="-199" xMax="390" yMax="-11">
      <contour>
        <pt x="306" y="-33" on="1"/>
        <pt x="313" y="-35" on="0"/>
        <pt x="341" y="-42" on="0"/>
        <pt x="369" y="-59" on="0"/>
        <pt x="390" y="-88" on="0"/>
        <pt x="390" y="-111" on="1"/>
        <pt x="390" y="-129" on="0"/>
        <pt x="371" y="-161" on="0"/>
        <pt x="320" y="-185" on="0"/>
        <pt x="231" y="-199" on="0"/>
        <pt x="161" y="-199" on="1"/>
        <pt x="109" y="-199" on="1"/>
        <pt x="109" y="-163" on="1"/>
        <pt x="140" y="-163" on="1"/>
        <pt x="210" y="-163" on="0"/>
        <pt x="276" y="-137" on="0"/>
        <pt x="276" y="-111" on="1"/>
        <pt x="276" y="-103" on="0"/>
        <pt x="268" y="-86" on="0"/>
        <pt x="249" y="-71" on="0"/>
        <pt x="217" y="-60" on="0"/>
        <pt x="192" y="-60" on="1"/>
        <pt x="192" y="-11" on="1"/>
        <pt x="306" y="-11" on="1"/>
      </contour>
    </TTGlyph>
    <TTGlyph name="circumflex" xMin="110" yMin="530" xMax="389" yMax="694">
      <contour>
        <pt x="389" y="566" on="1"/>
        <pt x="359" y="531" on="1"/>
        <pt x="249" y="612" on="1"/>
        <pt x="140" y="530" on="1"/>
        <pt x="110" y="567" on="1"/>
        <pt x="250" y="694" on="1"/>
      </contour>
    </TTGlyph>
    <TTGlyph name="colon" xMin="61" yMin="0" xMax="217" yMax="444">
      <contour>
        <pt x="217" y="366" on="1"/>
        <pt x="217" y="334" on="0"/>
        <pt x="171" y="288" on="0"/>
        <pt x="139" y="288" on="1"/>
        <pt x="107" y="288" on="0"/>
        <pt x="61" y="334" on="0"/>
        <pt x="61" y="366" on="1"/>
        <pt x="61" y="398" on="0"/>
        <pt x="107" y="444" on="0"/>
        <pt x="139" y="444" on="1"/>
        <pt x="171" y="444" on="0"/>
        <pt x="217" y="398" on="0"/>
      </contour>
      <contour>
        <pt x="217" y="78" on="1"/>
        <pt x="217" y="46" on="0"/>
        <pt x="171" y="0" on="0"/>
        <pt x="139" y="0" on="1"/>
        <pt x="107" y="0" on="0"/>
        <pt x="61" y="46" on="0"/>
        <pt x="61" y="78" on="1"/>
        <pt x="61" y="110" on="0"/>
        <pt x="107" y="156" on="0"/>
        <pt x="139" y="156" on="1"/>
        <pt x="171" y="156" on="0"/>
        <pt x="217" y="110" on="0"/>
      </contour>
    </TTGlyph>
    <TTGlyph name="comma" xMin="61" yMin="-194" xMax="228" yMax="156">
      <contour>
        <pt x="191" y="18" on="1"/>
        <pt x="185" y="12" on="0"/>
        <pt x="158" y="0" on="0"/>
        <pt x="139" y="0" on="1"/>
        <pt x="101" y="0" on="0"/>
        <pt x="61" y="48" on="0"/>
        <pt x="61" y="78" on="1"/>
        <pt x="61" y="110" on="0"/>
        <pt x="103" y="156" on="0"/>
        <pt x="138" y="156" on="1"/>
        <pt x="160" y="156" on="0"/>
        <pt x="193" y="136" on="0"/>
        <pt x="216" y="102" on="0"/>
        <pt x="228" y="57" on="0"/>
        <pt x="228" y="31" on="1"/>
        <pt x="228" y="-20" on="0"/>
        <pt x="197" y="-103" on="0"/>
        <pt x="157" y="-162" on="0"/>
        <pt x="120" y="-194" on="0"/>
        <pt x="114" y="-194" on="1"/>
        <pt x="108" y="-194" on="0"/>
        <pt x="95" y="-181" on="0"/>
        <pt x="95" y="-174" on="1"/>
        <pt x="95" y="-169" on="0"/>
        <pt x="99" y="-164" on="0"/>
        <pt x="107" y="-157" on="1"/>
        <pt x="116" y="-149" on="0"/>
        <pt x="144" y="-119" on="0"/>
        <pt x="169" y="-75" on="0"/>
        <pt x="189" y="-18" on="0"/>
      </contour>
    </TTGlyph>
    <TTGlyph name="d" xMin="33" yMin="-6" xMax="539" yMax="694">
      <contour>
        <pt x="470" y="694" on="1"/>
        <pt x="470" y="86" on="1"/>
        <pt x="470" y="71" on="0"/>
        <pt x="474" y="56" on="0"/>
        <pt x="488" y="48" on="0"/>
        <pt x="516" y="47" on="0"/>
        <pt x="539" y="47" on="1"/>
        <pt x="539" y="0" on="1"/>
        <pt x="356" y="-6" on="1"/>
        <pt x="356" y="35" on="1"/>
        <pt x="306" y="-6" on="0"/>
        <pt x="242" y="-6" on="1"/>
        <pt x="200" y="-6" on="0"/>
        <pt x="125" y="23" on="0"/>
        <pt x="67" y="80" on="0"/>
        <pt x="33" y="165" on="0"/>
        <pt x="33" y="222" on="1"/>
        <pt x="33" y="278" on="0"/>
        <pt x="68" y="363" on="0"/>
        <pt x="128" y="420" on="0"/>
        <pt x="207" y="450" on="0"/>
        <pt x="252" y="450" on="1"/>
        <pt x="270" y="450" on="0"/>
        <pt x="328" y="438" on="0"/>
        <pt x="362" y="412" on="1"/>
        <pt x="362" y="600" on="1"/>
        <pt x="362" y="615" on="0"/>
        <pt x="358" y="630" on="0"/>
        <pt x="344" y="638" on="0"/>
        <pt x="316" y="639" on="0"/>
        <pt x="293" y="639" on="1"/>
        <pt x="293" y="686" on="1"/>
      </contour>
      <contour>
        <pt x="356" y="361" on="1"/>
        <pt x="336" y="390" on="0"/>
        <pt x="285" y="414" on="0"/>
        <pt x="262" y="414" on="1"/>
        <pt x="231" y="414" on="0"/>
        <pt x="184" y="379" on="0"/>
        <pt x="173" y="349" on="1"/>
        <pt x="164" y="323" on="0"/>
        <pt x="161" y="251" on="0"/>
        <pt x="161" y="221" on="1"/>
        <pt x="161" y="208" on="0"/>
        <pt x="161" y="174" on="0"/>
        <pt x="163" y="139" on="0"/>
        <pt x="168" y="106" on="0"/>
        <pt x="172" y="93" on="1"/>
        <pt x="182" y="64" on="0"/>
        <pt x="223" y="30" on="0"/>
        <pt x="251" y="30" on="1"/>
        <pt x="285" y="30" on="0"/>
        <pt x="339" y="67" on="0"/>
        <pt x="356" y="94" on="1"/>
      </contour>
    </TTGlyph>
    <TTGlyph name="dieresis" xMin="80" yMin="550" xMax="419" yMax="695">
      <contour>
        <pt x="225" y="622" on="1"/>
        <pt x="225" y="591" on="0"/>
        <pt x="182" y="550" on="0"/>
        <pt x="153" y="550" on="1"/>
        <pt x="121" y="550" on="0"/>
        <pt x="80" y="595" on="0"/>
        <pt x="80" y="622" on="1"/>
        <pt x="80" y="651" on="0"/>
        <pt x="122" y="695" on="0"/>
        <pt x="153" y="695" on="1"/>
        <pt x="180" y="695" on="0"/>
        <pt x="225" y="655" on="0"/>
      </contour>
      <contour>
        <pt x="419" y="622" on="1"/>
        <pt x="419" y="595" on="0"/>
        <pt x="378" y="550" on="0"/>
        <pt x="346" y="550" on="1"/>
        <pt x="319" y="550" on="0"/>
        <pt x="274" y="590" on="0"/>
        <pt x="274" y="623" on="1"/>
        <pt x="274" y="654" on="0"/>
        <pt x="317" y="695" on="0"/>
        <pt x="346" y="695" on="1"/>
        <pt x="377" y="695" on="0"/>
        <pt x="419" y="652" on="0"/>
      </contour>
    </TTGlyph>
    <TTGlyph name="dollar" xMin="56" yMin="-56" xMax="443" yMax="750">
      <contour>
        <pt x="273" y="428" on="1"/>
        <pt x="328" y="416" on="0"/>
        <pt x="395" y="362" on="0"/>
        <pt x="431" y="297" on="0"/>
        <pt x="443" y="232" on="0"/>
        <pt x="443" y="210" on="1"/>
        <pt x="443" y="173" on="0"/>
        <pt x="425" y="102" on="0"/>
        <pt x="384" y="43" on="0"/>
        <pt x="320" y="1" on="0"/>
        <pt x="273" y="-5" on="1"/>
        <pt x="273" y="-56" on="1"/>
        <pt x="226" y="-56" on="1"/>
        <pt x="226" y="-5" on="1"/>
        <pt x="177" y="0" on="0"/>
        <pt x="112" y="39" on="0"/>
        <pt x="73" y="93" on="0"/>
        <pt x="56" y="156" on="0"/>
        <pt x="56" y="185" on="1"/>
        <pt x="56" y="209" on="0"/>
        <pt x="73" y="236" on="0"/>
        <pt x="96" y="249" on="0"/>
        <pt x="116" y="252" on="0"/>
        <pt x="119" y="252" on="1"/>
        <pt x="128" y="252" on="0"/>
        <pt x="149" y="246" on="0"/>
        <pt x="168" y="231" on="0"/>
        <pt x="181" y="207" on="0"/>
        <pt x="181" y="189" on="1"/>
        <pt x="181" y="182" on="0"/>
        <pt x="176" y="160" on="0"/>
        <pt x="162" y="141" on="0"/>
        <pt x="135" y="127" on="0"/>
        <pt x="114" y="127" on="1"/>
        <pt x="122" y="103" on="0"/>
        <pt x="150" y="72" on="0"/>
        <pt x="182" y="52" on="0"/>
        <pt x="214" y="44" on="0"/>
        <pt x="226" y="42" on="1"/>
        <pt x="226" y="294" on="1"/>
        <pt x="176" y="304" on="0"/>
        <pt x="110" y="351" on="0"/>
        <pt x="71" y="409" on="0"/>
        <pt x="56" y="472" on="0"/>
        <pt x="56" y="498" on="1"/>
        <pt x="56" y="536" on="0"/>
        <pt x="77" y="605" on="0"/>
        <pt x="119" y="659" on="0"/>
        <pt x="183" y="695" on="0"/>
        <pt x="226" y="699" on="1"/>
        <pt x="226" y="750" on="1"/>
        <pt x="273" y="750" on="1"/>
        <pt x="273" y="699" on="1"/>
        <pt x="318" y="695" on="0"/>
        <pt x="382" y="662" on="0"/>
        <pt x="424" y="613" on="0"/>
        <pt x="443" y="553" on="0"/>
        <pt x="443" y="522" on="1"/>
        <pt x="443" y="501" on="0"/>
        <pt x="428" y="475" on="0"/>
        <pt x="408" y="461" on="0"/>
        <pt x="387" y="456" on="0"/>
        <pt x="380" y="456" on="1"/>
        <pt x="370" y="456" on="0"/>
        <pt x="348" y="463" on="0"/>
        <pt x="330" y="478" on="0"/>
        <pt x="318" y="502" on="0"/>
        <pt x="318" y="519" on="1"/>
        <pt x="318" y="528" on="0"/>
        <pt x="324" y="550" on="0"/>
        <pt x="339" y="569" on="0"/>
        <pt x="364" y="581" on="0"/>
        <pt x="383" y="581" on="1"/>
        <pt x="368" y="614" on="0"/>
        <pt x="307" y="648" on="0"/>
        <pt x="273" y="652" on="1"/>
      </contour>
      <contour>
        <pt x="226" y="651" on="1"/>
        <pt x="196" y="646" on="0"/>
        <pt x="161" y="620" on="0"/>
        <pt x="142" y="588" on="0"/>
        <pt x="136" y="557" on="0"/>
        <pt x="136" y="546" on="1"/>
        <pt x="136" y="531" on="0"/>
        <pt x="146" y="499" on="0"/>
        <pt x="167" y="470" on="0"/>
        <pt x="201" y="446" on="0"/>
        <pt x="226" y="440" on="1"/>
      </contour>
      <contour>
        <pt x="273" y="43" on="1"/>
        <pt x="305" y="50" on="0"/>
        <pt x="341" y="82" on="0"/>
        <pt x="359" y="118" on="0"/>
        <pt x="363" y="152" on="0"/>
        <pt x="363" y="161" on="1"/>
        <pt x="363" y="199" on="0"/>
        <pt x="320" y="269" on="0"/>
        <pt x="273" y="282" on="1"/>
      </contour>
    </TTGlyph>
    <TTGlyph name="dotaccent" xMin="60" yMin="539" xMax="217" yMax="695">
      <contour>
        <pt x="217" y="617" on="1"/>
        <pt x="217" y="587" on="0"/>
        <pt x="173" y="539" on="0"/>
        <pt x="138" y="539" on="1"/>
        <pt x="122" y="539" on="0"/>
        <pt x="93" y="552" on="0"/>
        <pt x="72" y="573" on="0"/>
        <pt x="60" y="601" on="0"/>
        <pt x="60" y="617" on="1"/>
        <pt x="60" y="647" on="0"/>
        <pt x="104" y="695" on="0"/>
        <pt x="139" y="695" on="1"/>
        <pt x="155" y="695" on="0"/>
        <pt x="184" y="682" on="0"/>
        <pt x="205" y="661" on="0"/>
        <pt x="217" y="633" on="0"/>
      </contour>
    </TTGlyph>
    <TTGlyph name="dotlessi" xMin="26" yMin="0" xMax="265" yMax="450">
      <contour>
        <pt x="203" y="47" on="1"/>
        <pt x="265" y="47" on="1"/>
        <pt x="265" y="0" on="1"/>
        <pt x="238" y="1" on="0"/>
        <pt x="171" y="3" on="0"/>
        <pt x="148" y="3" on="1"/>
        <pt x="116" y="3" on="0"/>
        <pt x="49" y="1" on="0"/>
        <pt x="26" y="0" on="1"/>
        <pt x="26" y="47" on="1"/>
        <pt x="95" y="47" on="1"/>
        <pt x="95" y="356" on="1"/>
        <pt x="95" y="371" on="0"/>
        <pt x="91" y="386" on="0"/>
        <pt x="77" y="394" on="0"/>
        <pt x="51" y="395" on="0"/>
        <pt x="29" y="395" on="1"/>
        <pt x="29" y="442" on="1"/>
        <pt x="203" y="450" on="1"/>
      </contour>
    </TTGlyph>
    <TTGlyph name="e" xMin="28" yMin="-6" xMax="438" yMax="453">
      <contour>
        <pt x="156" y="218" on="1"/>
        <pt x="156" y="196" on="0"/>
        <pt x="160" y="133" on="0"/>
        <pt x="181" y="75" on="0"/>
        <pt x="226" y="34" on="0"/>
        <pt x="268" y="34" on="1"/>
        <pt x="283" y="34" on="0"/>
        <pt x="318" y="42" on="0"/>
        <pt x="352" y="62" on="0"/>
        <pt x="381" y="93" on="0"/>
        <pt x="390" y="116" on="1"/>
        <pt x="394" y="127" on="0"/>
        <pt x="401" y="135" on="0"/>
        <pt x="414" y="135" on="1"/>
        <pt x="416" y="135" on="0"/>
        <pt x="424" y="134" on="0"/>
        <pt x="432" y="131" on="0"/>
        <pt x="438" y="124" on="0"/>
        <pt x="438" y="117" on="1"/>
        <pt x="438" y="109" on="0"/>
        <pt x="420" y="69" on="0"/>
        <pt x="378" y="27" on="0"/>
        <pt x="309" y="-6" on="0"/>
        <pt x="259" y="-6" on="1"/>
        <pt x="210" y="-6" on="0"/>
        <pt x="125" y="25" on="0"/>
        <pt x="63" y="85" on="0"/>
        <pt x="28" y="171" on="0"/>
        <pt x="28" y="225" on="1"/>
        <pt x="28" y="278" on="0"/>
        <pt x="60" y="362" on="0"/>
        <pt x="118" y="421" on="0"/>
        <pt x="199" y="453" on="0"/>
        <pt x="247" y="453" on="1"/>
        <pt x="305" y="453" on="0"/>
        <pt x="379" y="414" on="0"/>
        <pt x="422" y="353" on="0"/>
        <pt x="438" y="280" on="0"/>
        <pt x="438" y="247" on="1"/>
        <pt x="438" y="226" on="0"/>
        <pt x="425" y="218" on="0"/>
        <pt x="406" y="218" on="1"/>
      </contour>
      <contour>
        <pt x="343" y="251" on="1"/>
        <pt x="343" y="257" on="0"/>
        <pt x="342" y="286" on="0"/>
        <pt x="337" y="323" on="0"/>
        <pt x="325" y="363" on="0"/>
        <pt x="304" y="396" on="0"/>
        <pt x="272" y="417" on="0"/>
        <pt x="248" y="417" on="1"/>
        <pt x="215" y="417" on="0"/>
        <pt x="178" y="379" on="0"/>
        <pt x="160" y="327" on="0"/>
        <pt x="156" y="270" on="0"/>
        <pt x="156" y="251" on="1"/>
      </contour>
    </TTGlyph>
    <TTGlyph name="eight" xMin="42" yMin="-11" xMax="457" yMax="655">
      <contour>
        <pt x="344" y="371" on="1"/>
        <pt x="357" y="363" on="0"/>
        <pt x="396" y="335" on="0"/>
        <pt x="432" y="292" on="0"/>
        <pt x="457" y="231" on="0"/>
        <pt x="457" y="189" on="1"/>
        <pt x="457" y="148" on="0"/>
        <pt x="431" y="75" on="0"/>
        <pt x="378" y="21" on="0"/>
        <pt x="300" y="-11" on="0"/>
        <pt x="248" y="-11" on="1"/>
        <pt x="205" y="-11" on="0"/>
        <pt x="130" y="11" on="0"/>
        <pt x="74" y="55" on="0"/>
        <pt x="42" y="120" on="0"/>
        <pt x="42" y="162" on="1"/>
        <pt x="42" y="196" on="0"/>
        <pt x="62" y="248" on="0"/>
        <pt x="94" y="287" on="0"/>
        <pt x="133" y="316" on="0"/>
        <pt x="151" y="327" on="1"/>
        <pt x="107" y="356" on="0"/>
        <pt x="69" y="436" on="0"/>
        <pt x="69" y="478" on="1"/>
        <pt x="69" y="514" on="0"/>
        <pt x="92" y="578" on="0"/>
        <pt x="137" y="626" on="0"/>
        <pt x="206" y="655" on="0"/>
        <pt x="251" y="655" on="1"/>
        <pt x="289" y="655" on="0"/>
        <pt x="355" y="635" on="0"/>
        <pt x="403" y="598" on="0"/>
        <pt x="430" y="543" on="0"/>
        <pt x="430" y="507" on="1"/>
        <pt x="430" y="462" on="0"/>
        <pt x="386" y="400" on="0"/>
      </contour>
      <contour>
        <pt x="303" y="398" on="1"/>
        <pt x="310" y="404" on="0"/>
        <pt x="328" y="423" on="0"/>
        <pt x="344" y="450" on="0"/>
        <pt x="355" y="485" on="0"/>
        <pt x="355" y="507" on="1"/>
        <pt x="355" y="528" on="0"/>
        <pt x="343" y="567" on="0"/>
        <pt x="317" y="597" on="0"/>
        <pt x="277" y="616" on="0"/>
        <pt x="248" y="616" on="1"/>
        <pt x="227" y="616" on="0"/>
        <pt x="190" y="607" on="0"/>
        <pt x="161" y="587" on="0"/>
        <pt x="144" y="558" on="0"/>
        <pt x="144" y="538" on="1"/>
        <pt x="144" y="524" on="0"/>
        <pt x="154" y="502" on="0"/>
        <pt x="167" y="487" on="0"/>
        <pt x="181" y="477" on="0"/>
        <pt x="185" y="474" on="1"/>
      </contour>
      <contour>
        <pt x="193" y="299" on="1"/>
        <pt x="187" y="294" on="0"/>
        <pt x="165" y="273" on="0"/>
        <pt x="144" y="240" on="0"/>
        <pt x="128" y="194" on="0"/>
        <pt x="128" y="163" on="1"/>
        <pt x="128" y="135" on="0"/>
        <pt x="143" y="87" on="0"/>
        <pt x="174" y="52" on="0"/>
        <pt x="220" y="32" on="0"/>
        <pt x="251" y="32" on="1"/>
        <pt x="301" y="32" on="0"/>
        <pt x="371" y="84" on="0"/>
        <pt x="371" y="133" on="1"/>
        <pt x="371" y="153" on="0"/>
        <pt x="359" y="181" on="0"/>
        <pt x="339" y="204" on="0"/>
        <pt x="313" y="223" on="0"/>
        <pt x="299" y="232" on="1"/>
      </contour>
    </TTGlyph>
    <TTGlyph name="emdash" xMin="0" yMin="256" xMax="999" yMax="292">
      <contour>
        <pt x="0" y="256" on="1"/>
        <pt x="0" y="292" on="1"/>
        <pt x="999" y="292" on="1"/>
        <pt x="999" y="256" on="1"/>
      </contour>
    </TTGlyph>
    <TTGlyph name="endash" xMin="0" yMin="256" xMax="499" yMax="292">
      <contour>
        <pt x="0" y="256" on="1"/>
        <pt x="0" y="292" on="1"/>
        <pt x="499" y="292" on="1"/>
        <pt x="499" y="256" on="1"/>
      </contour>
    </TTGlyph>
    <TTGlyph name="equal" xMin="56" yMin="108" xMax="721" yMax="393">
      <contour>
        <pt x="97" y="332" on="1"/>
        <pt x="93" y="332" on="0"/>
        <pt x="79" y="333" on="0"/>
        <pt x="65" y="339" on="0"/>
        <pt x="56" y="351" on="0"/>
        <pt x="56" y="362" on="1"/>
        <pt x="56" y="374" on="0"/>
        <pt x="66" y="386" on="0"/>
        <pt x="81" y="392" on="0"/>
        <pt x="96" y="393" on="0"/>
        <pt x="102" y="393" on="1"/>
        <pt x="675" y="393" on="1"/>
        <pt x="681" y="393" on="0"/>
        <pt x="696" y="392" on="0"/>
        <pt x="711" y="386" on="0"/>
        <pt x="721" y="374" on="0"/>
        <pt x="721" y="362" on="1"/>
        <pt x="721" y="351" on="0"/>
        <pt x="712" y="339" on="0"/>
        <pt x="698" y="333" on="0"/>
        <pt x="685" y="332" on="0"/>
        <pt x="680" y="332" on="1"/>
      </contour>
      <contour>
        <pt x="102" y="108" on="1"/>
        <pt x="96" y="108" on="0"/>
        <pt x="81" y="109" on="0"/>
        <pt x="66" y="115" on="0"/>
        <pt x="56" y="127" on="0"/>
        <pt x="56" y="139" on="1"/>
        <pt x="56" y="150" on="0"/>
        <pt x="65" y="162" on="0"/>
        <pt x="79" y="168" on="0"/>
        <pt x="93" y="169" on="0"/>
        <pt x="97" y="169" on="1"/>
        <pt x="680" y="169" on="1"/>
        <pt x="685" y="169" on="0"/>
        <pt x="698" y="168" on="0"/>
        <pt x="712" y="162" on="0"/>
        <pt x="721" y="150" on="0"/>
        <pt x="721" y="139" on="1"/>
        <pt x="721" y="127" on="0"/>
        <pt x="711" y="115" on="0"/>
        <pt x="696" y="109" on="0"/>
        <pt x="681" y="108" on="0"/>
        <pt x="675" y="108" on="1"/>
      </contour>
    </TTGlyph>
    <TTGlyph name="exclam" xMin="74" yMin="0" xMax="232" yMax="705">
      <contour>
        <pt x="178" y="248" on="1"/>
        <pt x="176" y="233" on="0"/>
        <pt x="167" y="226" on="0"/>
        <pt x="153" y="226" on="1"/>
        <pt x="137" y="226" on="0"/>
        <pt x="130" y="234" on="0"/>
        <pt x="128" y="252" on="1"/>
        <pt x="76" y="616" on="1"/>
        <pt x="74" y="624" on="0"/>
        <pt x="74" y="629" on="0"/>
        <pt x="74" y="634" on="1"/>
        <pt x="74" y="663" on="0"/>
        <pt x="121" y="705" on="0"/>
        <pt x="153" y="705" on="1"/>
        <pt x="185" y="705" on="0"/>
        <pt x="232" y="663" on="0"/>
        <pt x="232" y="634" on="1"/>
        <pt x="232" y="632" on="0"/>
        <pt x="230" y="623" on="0"/>
        <pt x="230" y="621" on="1"/>
      </contour>
      <contour>
        <pt x="231" y="78" on="1"/>
        <pt x="231" y="46" on="0"/>
        <pt x="185" y="0" on="0"/>
        <pt x="153" y="0" on="1"/>
        <pt x="121" y="0" on="0"/>
        <pt x="75" y="46" on="0"/>
        <pt x="75" y="78" on="1"/>
        <pt x="75" y="110" on="0"/>
        <pt x="121" y="156" on="0"/>
        <pt x="153" y="156" on="1"/>
        <pt x="185" y="156" on="0"/>
        <pt x="231" y="110" on="0"/>
      </contour>
    </TTGlyph>
    <TTGlyph name="exclamdown" xMin="74" yMin="-205" xMax="232" yMax="500">
      <contour>
        <pt x="231" y="422" on="1"/>
        <pt x="231" y="390" on="0"/>
        <pt x="185" y="344" on="0"/>
        <pt x="153" y="344" on="1"/>
        <pt x="121" y="344" on="0"/>
        <pt x="75" y="390" on="0"/>
        <pt x="75" y="422" on="1"/>
        <pt x="75" y="454" on="0"/>
        <pt x="121" y="500" on="0"/>
        <pt x="153" y="500" on="1"/>
        <pt x="185" y="500" on="0"/>
        <pt x="231" y="454" on="0"/>
      </contour>
      <contour>
        <pt x="128" y="249" on="1"/>
        <pt x="130" y="266" on="0"/>
        <pt x="137" y="274" on="0"/>
        <pt x="153" y="274" on="1"/>
        <pt x="167" y="274" on="0"/>
        <pt x="176" y="266" on="0"/>
        <pt x="178" y="252" on="1"/>
        <pt x="230" y="-116" on="1"/>
        <pt x="232" y="-124" on="0"/>
        <pt x="232" y="-129" on="0"/>
        <pt x="232" y="-134" on="1"/>
        <pt x="232" y="-163" on="0"/>
        <pt x="185" y="-205" on="0"/>
        <pt x="153" y="-205" on="1"/>
        <pt x="121" y="-205" on="0"/>
        <pt x="74" y="-163" on="0"/>
        <pt x="74" y="-134" on="1"/>
        <pt x="74" y="-132" on="0"/>
        <pt x="76" y="-123" on="0"/>
        <pt x="76" y="-121" on="1"/>
      </contour>
    </TTGlyph>
    <TTGlyph name="f" xMin="27" yMin="0" xMax="398" yMax="700">
      <contour>
        <pt x="204" y="47" on="1"/>
        <pt x="291" y="47" on="1"/>
        <pt x="291" y="0" on="1"/>
        <pt x="278" y="1" on="0"/>
        <pt x="242" y="2" on="0"/>
        <pt x="204" y="3" on="0"/>
        <pt x="167" y="3" on="0"/>
        <pt x="153" y="3" on="1"/>
        <pt x="118" y="3" on="0"/>
        <pt x="53" y="1" on="0"/>
        <pt x="27" y="0" on="1"/>
        <pt x="27" y="47" on="1"/>
        <pt x="96" y="47" on="1"/>
        <pt x="96" y="397" on="1"/>
        <pt x="38" y="397" on="1"/>
        <pt x="38" y="444" on="1"/>
        <pt x="96" y="444" on="1"/>
        <pt x="96" y="545" on="1"/>
        <pt x="96" y="588" on="0"/>
        <pt x="131" y="647" on="0"/>
        <pt x="187" y="684" on="0"/>
        <pt x="257" y="700" on="0"/>
        <pt x="291" y="700" on="1"/>
        <pt x="318" y="700" on="0"/>
        <pt x="358" y="685" on="0"/>
        <pt x="385" y="660" on="0"/>
        <pt x="398" y="629" on="0"/>
        <pt x="398" y="613" on="1"/>
        <pt x="398" y="582" on="0"/>
        <pt x="359" y="551" on="0"/>
        <pt x="336" y="551" on="1"/>
        <pt x="326" y="551" on="0"/>
        <pt x="305" y="558" on="0"/>
        <pt x="287" y="573" on="0"/>
        <pt x="275" y="597" on="0"/>
        <pt x="275" y="613" on="1"/>
        <pt x="275" y="633" on="0"/>
        <pt x="291" y="658" on="0"/>
        <pt x="299" y="663" on="1"/>
        <pt x="295" y="664" on="0"/>
        <pt x="288" y="664" on="1"/>
        <pt x="284" y="664" on="0"/>
        <pt x="255" y="660" on="0"/>
        <pt x="223" y="638" on="0"/>
        <pt x="198" y="590" on="0"/>
        <pt x="198" y="546" on="1"/>
        <pt x="198" y="444" on="1"/>
        <pt x="297" y="444" on="1"/>
        <pt x="297" y="397" on="1"/>
        <pt x="204" y="397" on="1"/>
      </contour>
    </TTGlyph>
    <TTGlyph name="f_f" xMin="16" yMin="0" xMax="664" yMax="700">
      <contour>
        <pt x="469" y="47" on="1"/>
        <pt x="556" y="47" on="1"/>
        <pt x="556" y="0" on="1"/>
        <pt x="543" y="1" on="0"/>
        <pt x="507" y="2" on="0"/>
        <pt x="469" y="3" on="0"/>
        <pt x="432" y="3" on="0"/>
        <pt x="418" y="3" on="1"/>
        <pt x="383" y="3" on="0"/>
        <pt x="318" y="1" on="0"/>
        <pt x="292" y="0" on="1"/>
        <pt x="292" y="47" on="1"/>
        <pt x="361" y="47" on="1"/>
        <pt x="361" y="397" on="1"/>
        <pt x="193" y="397" on="1"/>
        <pt x="193" y="47" on="1"/>
        <pt x="262" y="47" on="1"/>
        <pt x="262" y="0" on="1"/>
        <pt x="236" y="1" on="0"/>
        <pt x="171" y="3" on="0"/>
        <pt x="139" y="3" on="1"/>
        <pt x="107" y="3" on="0"/>
        <pt x="40" y="1" on="0"/>
        <pt x="16" y="0" on="1"/>
        <pt x="16" y="47" on="1"/>
        <pt x="85" y="47" on="1"/>
        <pt x="85" y="397" on="1"/>
        <pt x="27" y="397" on="1"/>
        <pt x="27" y="444" on="1"/>
        <pt x="85" y="444" on="1"/>
        <pt x="85" y="544" on="1"/>
        <pt x="85" y="587" on="0"/>
        <pt x="128" y="647" on="0"/>
        <pt x="196" y="684" on="0"/>
        <pt x="281" y="700" on="0"/>
        <pt x="324" y="700" on="1"/>
        <pt x="331" y="700" on="0"/>
        <pt x="354" y="699" on="0"/>
        <pt x="382" y="693" on="0"/>
        <pt x="413" y="679" on="0"/>
        <pt x="428" y="667" on="1"/>
        <pt x="443" y="677" on="0"/>
        <pt x="478" y="690" on="0"/>
        <pt x="513" y="697" on="0"/>
        <pt x="545" y="700" on="0"/>
        <pt x="556" y="700" on="1"/>
        <pt x="584" y="700" on="0"/>
        <pt x="625" y="684" on="0"/>
        <pt x="651" y="659" on="0"/>
        <pt x="664" y="628" on="0"/>
        <pt x="664" y="613" on="1"/>
        <pt x="664" y="582" on="0"/>
        <pt x="625" y="551" on="0"/>
        <pt x="602" y="551" on="1"/>
        <pt x="592" y="551" on="0"/>
        <pt x="571" y="558" on="0"/>
        <pt x="553" y="573" on="0"/>
        <pt x="541" y="597" on="0"/>
        <pt x="541" y="613" on="1"/>
        <pt x="541" y="633" on="0"/>
        <pt x="557" y="658" on="0"/>
        <pt x="565" y="663" on="1"/>
        <pt x="561" y="664" on="0"/>
        <pt x="554" y="664" on="1"/>
        <pt x="549" y="664" on="0"/>
        <pt x="519" y="660" on="0"/>
        <pt x="488" y="637" on="0"/>
        <pt x="463" y="590" on="0"/>
        <pt x="463" y="546" on="1"/>
        <pt x="463" y="444" on="1"/>
        <pt x="563" y="444" on="1"/>
        <pt x="563" y="397" on="1"/>
        <pt x="469" y="397" on="1"/>
      </contour>
      <contour>
        <pt x="361" y="444" on="1"/>
        <pt x="361" y="550" on="1"/>
        <pt x="347" y="559" on="0"/>
        <pt x="336" y="587" on="0"/>
        <pt x="336" y="600" on="1"/>
        <pt x="336" y="626" on="0"/>
        <pt x="361" y="651" on="0"/>
        <pt x="368" y="655" on="1"/>
        <pt x="354" y="661" on="0"/>
        <pt x="327" y="664" on="0"/>
        <pt x="319" y="664" on="1"/>
        <pt x="250" y="664" on="0"/>
        <pt x="187" y="596" on="0"/>
        <pt x="187" y="543" on="1"/>
        <pt x="187" y="444" on="1"/>
      </contour>
    </TTGlyph>
    <TTGlyph name="f_f_i" xMin="16" yMin="0" xMax="816" yMax="700">
      <contour>
        <pt x="747" y="454" on="1"/>
        <pt x="747" y="47" on="1"/>
        <pt x="816" y="47" on="1"/>
        <pt x="816" y="0" on="1"/>
        <pt x="790" y="1" on="0"/>
        <pt x="725" y="3" on="0"/>
        <pt x="693" y="3" on="1"/>
        <pt x="661" y="3" on="0"/>
        <pt x="594" y="1" on="0"/>
        <pt x="570" y="0" on="1"/>
        <pt x="570" y="47" on="1"/>
        <pt x="639" y="47" on="1"/>
        <pt x="639" y="362" on="1"/>
        <pt x="639" y="388" on="0"/>
        <pt x="627" y="397" on="0"/>
        <pt x="609" y="397" on="1"/>
        <pt x="470" y="397" on="1"/>
        <pt x="470" y="47" on="1"/>
        <pt x="539" y="47" on="1"/>
        <pt x="539" y="0" on="1"/>
        <pt x="513" y="1" on="0"/>
        <pt x="448" y="3" on="0"/>
        <pt x="416" y="3" on="1"/>
        <pt x="384" y="3" on="0"/>
        <pt x="317" y="1" on="0"/>
        <pt x="293" y="0" on="1"/>
        <pt x="293" y="47" on="1"/>
        <pt x="362" y="47" on="1"/>
        <pt x="362" y="397" on="1"/>
        <pt x="193" y="397" on="1"/>
        <pt x="193" y="47" on="1"/>
        <pt x="262" y="47" on="1"/>
        <pt x="262" y="0" on="1"/>
        <pt x="236" y="1" on="0"/>
        <pt x="171" y="3" on="0"/>
        <pt x="139" y="3" on="1"/>
        <pt x="107" y="3" on="0"/>
        <pt x="40" y="1" on="0"/>
        <pt x="16" y="0" on="1"/>
        <pt x="16" y="47" on="1"/>
        <pt x="85" y="47" on="1"/>
        <pt x="85" y="397" on="1"/>
        <pt x="27" y="397" on="1"/>
        <pt x="27" y="444" on="1"/>
        <pt x="85" y="444" on="1"/>
        <pt x="85" y="544" on="1"/>
        <pt x="85" y="587" on="0"/>
        <pt x="128" y="647" on="0"/>
        <pt x="196" y="684" on="0"/>
        <pt x="282" y="700" on="0"/>
        <pt x="325" y="700" on="1"/>
        <pt x="332" y="700" on="0"/>
        <pt x="355" y="699" on="0"/>
        <pt x="383" y="691" on="0"/>
        <pt x="414" y="675" on="0"/>
        <pt x="430" y="660" on="1"/>
        <pt x="453" y="673" on="0"/>
        <pt x="502" y="689" on="0"/>
        <pt x="548" y="697" on="0"/>
        <pt x="589" y="700" on="0"/>
        <pt x="605" y="700" on="1"/>
        <pt x="642" y="700" on="0"/>
        <pt x="695" y="677" on="0"/>
        <pt x="728" y="643" on="0"/>
        <pt x="743" y="603" on="0"/>
        <pt x="743" y="585" on="1"/>
        <pt x="743" y="551" on="0"/>
        <pt x="703" y="518" on="0"/>
        <pt x="677" y="518" on="1"/>
        <pt x="650" y="518" on="0"/>
        <pt x="612" y="554" on="0"/>
        <pt x="612" y="583" on="1"/>
        <pt x="612" y="613" on="0"/>
        <pt x="645" y="643" on="0"/>
        <pt x="660" y="647" on="1"/>
        <pt x="633" y="664" on="0"/>
        <pt x="600" y="664" on="1"/>
        <pt x="536" y="664" on="0"/>
        <pt x="464" y="601" on="0"/>
        <pt x="464" y="543" on="1"/>
        <pt x="464" y="444" on="1"/>
        <pt x="570" y="444" on="1"/>
        <pt x="570" y="447" on="0"/>
        <pt x="571" y="448" on="1"/>
      </contour>
      <contour>
        <pt x="362" y="444" on="1"/>
        <pt x="362" y="526" on="1"/>
        <pt x="339" y="539" on="0"/>
        <pt x="329" y="575" on="0"/>
        <pt x="329" y="583" on="1"/>
        <pt x="329" y="598" on="0"/>
        <pt x="348" y="638" on="0"/>
        <pt x="378" y="647" on="1"/>
        <pt x="363" y="657" on="0"/>
        <pt x="335" y="664" on="0"/>
        <pt x="320" y="664" on="1"/>
        <pt x="261" y="664" on="0"/>
        <pt x="187" y="605" on="0"/>
        <pt x="187" y="543" on="1"/>
        <pt x="187" y="444" on="1"/>
      </contour>
    </TTGlyph>
    <TTGlyph name="f_f_l" xMin="16" yMin="0" xMax="816" yMax="700">
      <contour>
        <pt x="747" y="47" on="1"/>
        <pt x="816" y="47" on="1"/>
        <pt x="816" y="0" on="1"/>
        <pt x="790" y="1" on="0"/>
        <pt x="725" y="3" on="0"/>
        <pt x="693" y="3" on="1"/>
        <pt x="661" y="3" on="0"/>
        <pt x="594" y="1" on="0"/>
        <pt x="570" y="0" on="1"/>
        <pt x="570" y="47" on="1"/>
        <pt x="639" y="47" on="1"/>
        <pt x="639" y="397" on="1"/>
        <pt x="470" y="397" on="1"/>
        <pt x="470" y="47" on="1"/>
        <pt x="539" y="47" on="1"/>
        <pt x="539" y="0" on="1"/>
        <pt x="513" y="1" on="0"/>
        <pt x="448" y="3" on="0"/>
        <pt x="416" y="3" on="1"/>
        <pt x="384" y="3" on="0"/>
        <pt x="317" y="1" on="0"/>
        <pt x="293" y="0" on="1"/>
        <pt x="293" y="47" on="1"/>
        <pt x="362" y="47" on="1"/>
        <pt x="362" y="397" on="1"/>
        <pt x="193" y="397" on="1"/>
        <pt x="193" y="47" on="1"/>
        <pt x="262" y="47" on="1"/>
        <pt x="262" y="0" on="1"/>
        <pt x="236" y="1" on="0"/>
        <pt x="171" y="3" on="0"/>
        <pt x="139" y="3" on="1"/>
        <pt x="107" y="3" on="0"/>
        <pt x="40" y="1" on="0"/>
        <pt x="16" y="0" on="1"/>
        <pt x="16" y="47" on="1"/>
        <pt x="85" y="47" on="1"/>
        <pt x="85" y="397" on="1"/>
        <pt x="27" y="397" on="1"/>
        <pt x="27" y="444" on="1"/>
        <pt x="85" y="444" on="1"/>
        <pt x="85" y="544" on="1"/>
        <pt x="85" y="587" on="0"/>
        <pt x="128" y="647" on="0"/>
        <pt x="196" y="684" on="0"/>
        <pt x="282" y="700" on="0"/>
        <pt x="325" y="700" on="1"/>
        <pt x="332" y="700" on="0"/>
        <pt x="357" y="699" on="0"/>
        <pt x="387" y="692" on="0"/>
        <pt x="420" y="676" on="0"/>
        <pt x="435" y="662" on="1"/>
        <pt x="480" y="688" on="0"/>
        <pt x="572" y="700" on="0"/>
        <pt x="603" y="700" on="1"/>
        <pt x="613" y="700" on="0"/>
        <pt x="646" y="698" on="0"/>
        <pt x="666" y="692" on="1"/>
        <pt x="673" y="690" on="0"/>
        <pt x="678" y="689" on="0"/>
        <pt x="681" y="689" on="1"/>
        <pt x="682" y="689" on="0"/>
        <pt x="701" y="690" on="0"/>
        <pt x="723" y="692" on="0"/>
        <pt x="744" y="694" on="0"/>
        <pt x="747" y="694" on="1"/>
      </contour>
      <contour>
        <pt x="362" y="444" on="1"/>
        <pt x="362" y="550" on="1"/>
        <pt x="348" y="560" on="0"/>
        <pt x="337" y="589" on="0"/>
        <pt x="337" y="600" on="1"/>
        <pt x="337" y="626" on="0"/>
        <pt x="363" y="652" on="0"/>
        <pt x="369" y="655" on="1"/>
        <pt x="354" y="662" on="0"/>
        <pt x="325" y="664" on="0"/>
        <pt x="320" y="664" on="1"/>
        <pt x="261" y="664" on="0"/>
        <pt x="187" y="605" on="0"/>
        <pt x="187" y="543" on="1"/>
        <pt x="187" y="444" on="1"/>
      </contour>
      <contour>
        <pt x="639" y="444" on="1"/>
        <pt x="639" y="545" on="1"/>
        <pt x="639" y="557" on="0"/>
        <pt x="638" y="564" on="0"/>
        <pt x="634" y="567" on="1"/>
        <pt x="622" y="577" on="0"/>
        <pt x="614" y="604" on="0"/>
        <pt x="614" y="613" on="1"/>
        <pt x="614" y="619" on="0"/>
        <pt x="621" y="648" on="0"/>
        <pt x="635" y="660" on="1"/>
        <pt x="630" y="662" on="0"/>
        <pt x="612" y="664" on="0"/>
        <pt x="598" y="664" on="1"/>
        <pt x="538" y="664" on="0"/>
        <pt x="464" y="606" on="0"/>
        <pt x="464" y="543" on="1"/>
        <pt x="464" y="444" on="1"/>
      </contour>
    </TTGlyph>
    <TTGlyph name="fi" xMin="16" yMin="0" xMax="539" yMax="700">
      <contour>
        <pt x="470" y="454" on="1"/>
        <pt x="470" y="47" on="1"/>
        <pt x="539" y="47" on="1"/>
        <pt x="539" y="0" on="1"/>
        <pt x="513" y="1" on="0"/>
        <pt x="448" y="3" on="0"/>
        <pt x="416" y="3" on="1"/>
        <pt x="384" y="3" on="0"/>
        <pt x="317" y="1" on="0"/>
        <pt x="293" y="0" on="1"/>
        <pt x="293" y="47" on="1"/>
        <pt x="362" y="47" on="1"/>
        <pt x="362" y="362" on="1"/>
        <pt x="362" y="388" on="0"/>
        <pt x="350" y="397" on="0"/>
        <pt x="332" y="397" on="1"/>
        <pt x="193" y="397" on="1"/>
        <pt x="193" y="47" on="1"/>
        <pt x="262" y="47" on="1"/>
        <pt x="262" y="0" on="1"/>
        <pt x="236" y="1" on="0"/>
        <pt x="171" y="3" on="0"/>
        <pt x="139" y="3" on="1"/>
        <pt x="107" y="3" on="0"/>
        <pt x="40" y="1" on="0"/>
        <pt x="16" y="0" on="1"/>
        <pt x="16" y="47" on="1"/>
        <pt x="85" y="47" on="1"/>
        <pt x="85" y="397" on="1"/>
        <pt x="27" y="397" on="1"/>
        <pt x="27" y="444" on="1"/>
        <pt x="85" y="444" on="1"/>
        <pt x="85" y="544" on="1"/>
        <pt x="85" y="588" on="0"/>
        <pt x="129" y="647" on="0"/>
        <pt x="199" y="684" on="0"/>
        <pt x="285" y="700" on="0"/>
        <pt x="328" y="700" on="1"/>
        <pt x="365" y="700" on="0"/>
        <pt x="418" y="677" on="0"/>
        <pt x="451" y="643" on="0"/>
        <pt x="466" y="603" on="0"/>
        <pt x="466" y="585" on="1"/>
        <pt x="466" y="551" on="0"/>
        <pt x="426" y="518" on="0"/>
        <pt x="400" y="518" on="1"/>
        <pt x="373" y="518" on="0"/>
        <pt x="335" y="554" on="0"/>
        <pt x="335" y="583" on="1"/>
        <pt x="335" y="613" on="0"/>
        <pt x="368" y="643" on="0"/>
        <pt x="383" y="647" on="1"/>
        <pt x="356" y="664" on="0"/>
        <pt x="323" y="664" on="1"/>
        <pt x="259" y="664" on="0"/>
        <pt x="187" y="601" on="0"/>
        <pt x="187" y="543" on="1"/>
        <pt x="187" y="444" on="1"/>
        <pt x="293" y="444" on="1"/>
        <pt x="293" y="447" on="0"/>
        <pt x="294" y="448" on="1"/>
      </contour>
    </TTGlyph>
    <TTGlyph name="five" xMin="50" yMin="-11" xMax="449" yMax="655">
      <contour>
        <pt x="143" y="378" on="1"/>
        <pt x="176" y="401" on="0"/>
        <pt x="234" y="409" on="0"/>
        <pt x="248" y="409" on="1"/>
        <pt x="293" y="409" on="0"/>
        <pt x="367" y="379" on="0"/>
        <pt x="420" y="325" on="0"/>
        <pt x="449" y="249" on="0"/>
        <pt x="449" y="202" on="1"/>
        <pt x="449" y="152" on="0"/>
        <pt x="414" y="73" on="0"/>
        <pt x="353" y="18" on="0"/>
        <pt x="269" y="-11" on="0"/>
        <pt x="220" y="-11" on="1"/>
        <pt x="179" y="-11" on="0"/>
        <pt x="116" y="20" on="0"/>
        <pt x="72" y="69" on="0"/>
        <pt x="50" y="129" on="0"/>
        <pt x="50" y="159" on="1"/>
        <pt x="50" y="182" on="0"/>
        <pt x="67" y="209" on="0"/>
        <pt x="89" y="224" on="0"/>
        <pt x="111" y="229" on="0"/>
        <pt x="117" y="229" on="1"/>
        <pt x="126" y="229" on="0"/>
        <pt x="149" y="223" on="0"/>
        <pt x="170" y="207" on="0"/>
        <pt x="184" y="181" on="0"/>
        <pt x="184" y="161" on="1"/>
        <pt x="184" y="135" on="0"/>
        <pt x="150" y="96" on="0"/>
        <pt x="115" y="94" on="1"/>
        <pt x="133" y="62" on="0"/>
        <pt x="190" y="32" on="0"/>
        <pt x="216" y="32" on="1"/>
        <pt x="239" y="32" on="0"/>
        <pt x="286" y="58" on="0"/>
        <pt x="296" y="87" on="1"/>
        <pt x="304" y="110" on="0"/>
        <pt x="307" y="173" on="0"/>
        <pt x="307" y="208" on="1"/>
        <pt x="307" y="243" on="0"/>
        <pt x="305" y="303" on="0"/>
        <pt x="293" y="347" on="0"/>
        <pt x="268" y="373" on="0"/>
        <pt x="244" y="373" on="1"/>
        <pt x="218" y="373" on="0"/>
        <pt x="180" y="359" on="0"/>
        <pt x="153" y="341" on="0"/>
        <pt x="137" y="321" on="0"/>
        <pt x="133" y="315" on="1"/>
        <pt x="129" y="310" on="0"/>
        <pt x="121" y="305" on="0"/>
        <pt x="113" y="305" on="1"/>
        <pt x="96" y="305" on="0"/>
        <pt x="90" y="323" on="0"/>
        <pt x="90" y="338" on="1"/>
        <pt x="90" y="626" on="1"/>
        <pt x="90" y="638" on="0"/>
        <pt x="94" y="655" on="0"/>
        <pt x="105" y="655" on="1"/>
        <pt x="107" y="655" on="0"/>
        <pt x="112" y="653" on="0"/>
        <pt x="117" y="651" on="1"/>
        <pt x="138" y="642" on="0"/>
        <pt x="204" y="623" on="0"/>
        <pt x="250" y="623" on="1"/>
        <pt x="281" y="623" on="0"/>
        <pt x="348" y="636" on="0"/>
        <pt x="383" y="650" on="1"/>
        <pt x="389" y="654" on="0"/>
        <pt x="394" y="655" on="0"/>
        <pt x="396" y="655" on="1"/>
        <pt x="405" y="655" on="0"/>
        <pt x="410" y="642" on="0"/>
        <pt x="410" y="637" on="1"/>
        <pt x="410" y="627" on="0"/>
        <pt x="381" y="582" on="0"/>
        <pt x="326" y="535" on="0"/>
        <pt x="246" y="499" on="0"/>
        <pt x="195" y="499" on="1"/>
        <pt x="173" y="499" on="0"/>
        <pt x="155" y="501" on="0"/>
        <pt x="143" y="504" on="1"/>
      </contour>
    </TTGlyph>
    <TTGlyph name="fl" xMin="16" yMin="0" xMax="539" yMax="700">
      <contour>
        <pt x="470" y="47" on="1"/>
        <pt x="539" y="47" on="1"/>
        <pt x="539" y="0" on="1"/>
        <pt x="513" y="1" on="0"/>
        <pt x="448" y="3" on="0"/>
        <pt x="416" y="3" on="1"/>
        <pt x="384" y="3" on="0"/>
        <pt x="317" y="1" on="0"/>
        <pt x="293" y="0" on="1"/>
        <pt x="293" y="47" on="1"/>
        <pt x="362" y="47" on="1"/>
        <pt x="362" y="397" on="1"/>
        <pt x="193" y="397" on="1"/>
        <pt x="193" y="47" on="1"/>
        <pt x="262" y="47" on="1"/>
        <pt x="262" y="0" on="1"/>
        <pt x="236" y="1" on="0"/>
        <pt x="171" y="3" on="0"/>
        <pt x="139" y="3" on="1"/>
        <pt x="107" y="3" on="0"/>
        <pt x="40" y="1" on="0"/>
        <pt x="16" y="0" on="1"/>
        <pt x="16" y="47" on="1"/>
        <pt x="85" y="47" on="1"/>
        <pt x="85" y="397" on="1"/>
        <pt x="27" y="397" on="1"/>
        <pt x="27" y="444" on="1"/>
        <pt x="85" y="444" on="1"/>
        <pt x="85" y="544" on="1"/>
        <pt x="85" y="586" on="0"/>
        <pt x="127" y="646" on="0"/>
        <pt x="194" y="683" on="0"/>
        <pt x="281" y="700" on="0"/>
        <pt x="326" y="700" on="1"/>
        <pt x="336" y="700" on="0"/>
        <pt x="369" y="698" on="0"/>
        <pt x="389" y="692" on="1"/>
        <pt x="396" y="690" on="0"/>
        <pt x="401" y="689" on="0"/>
        <pt x="404" y="689" on="1"/>
        <pt x="405" y="689" on="0"/>
        <pt x="424" y="690" on="0"/>
        <pt x="446" y="692" on="0"/>
        <pt x="467" y="694" on="0"/>
        <pt x="470" y="694" on="1"/>
      </contour>
      <contour>
        <pt x="362" y="444" on="1"/>
        <pt x="362" y="545" on="1"/>
        <pt x="362" y="557" on="0"/>
        <pt x="361" y="564" on="0"/>
        <pt x="357" y="567" on="1"/>
        <pt x="345" y="577" on="0"/>
        <pt x="337" y="604" on="0"/>
        <pt x="337" y="613" on="1"/>
        <pt x="337" y="619" on="0"/>
        <pt x="344" y="648" on="0"/>
        <pt x="358" y="660" on="1"/>
        <pt x="353" y="662" on="0"/>
        <pt x="335" y="664" on="0"/>
        <pt x="321" y="664" on="1"/>
        <pt x="261" y="664" on="0"/>
        <pt x="187" y="606" on="0"/>
        <pt x="187" y="543" on="1"/>
        <pt x="187" y="444" on="1"/>
      </contour>
    </TTGlyph>
    <TTGlyph name="four" xMin="28" yMin="0" xMax="471" yMax="656">
      <contour>
        <pt x="395" y="47" on="1"/>
        <pt x="471" y="47" on="1"/>
        <pt x="471" y="0" on="1"/>
        <pt x="456" y="1" on="0"/>
        <pt x="420" y="2" on="0"/>
        <pt x="382" y="3" on="0"/>
        <pt x="344" y="3" on="0"/>
        <pt x="329" y="3" on="1"/>
        <pt x="314" y="3" on="0"/>
        <pt x="272" y="3" on="0"/>
        <pt x="227" y="2" on="0"/>
        <pt x="186" y="1" on="0"/>
        <pt x="173" y="0" on="1"/>
        <pt x="173" y="47" on="1"/>
        <pt x="270" y="47" on="1"/>
        <pt x="270" y="156" on="1"/>
        <pt x="28" y="156" on="1"/>
        <pt x="28" y="203" on="1"/>
        <pt x="335" y="641" on="1"/>
        <pt x="343" y="652" on="0"/>
        <pt x="354" y="656" on="0"/>
        <pt x="366" y="656" on="1"/>
        <pt x="387" y="656" on="0"/>
        <pt x="395" y="643" on="0"/>
        <pt x="395" y="624" on="1"/>
        <pt x="395" y="203" on="1"/>
        <pt x="471" y="203" on="1"/>
        <pt x="471" y="156" on="1"/>
        <pt x="395" y="156" on="1"/>
      </contour>
      <contour>
        <pt x="77" y="203" on="1"/>
        <pt x="281" y="203" on="1"/>
        <pt x="281" y="493" on="1"/>
      </contour>
    </TTGlyph>
    <TTGlyph name="g" xMin="26" yMin="-201" xMax="485" yMax="455">
      <contour>
        <pt x="215" y="83" on="1"/>
        <pt x="259" y="83" on="0"/>
        <pt x="350" y="78" on="0"/>
        <pt x="425" y="49" on="0"/>
        <pt x="473" y="-13" on="0"/>
        <pt x="473" y="-71" on="1"/>
        <pt x="473" y="-97" on="0"/>
        <pt x="447" y="-144" on="0"/>
        <pt x="393" y="-180" on="0"/>
        <pt x="308" y="-201" on="0"/>
        <pt x="249" y="-201" on="1"/>
        <pt x="183" y="-201" on="0"/>
        <pt x="96" y="-175" on="0"/>
        <pt x="46" y="-137" on="0"/>
        <pt x="26" y="-93" on="0"/>
        <pt x="26" y="-75" on="1"/>
        <pt x="26" y="-54" on="0"/>
        <pt x="44" y="-23" on="0"/>
        <pt x="67" y="-3" on="0"/>
        <pt x="91" y="9" on="0"/>
        <pt x="97" y="11" on="1"/>
        <pt x="82" y="23" on="0"/>
        <pt x="66" y="52" on="0"/>
        <pt x="58" y="79" on="0"/>
        <pt x="56" y="100" on="0"/>
        <pt x="56" y="104" on="1"/>
        <pt x="56" y="115" on="0"/>
        <pt x="67" y="166" on="0"/>
        <pt x="90" y="196" on="1"/>
        <pt x="68" y="213" on="0"/>
        <pt x="42" y="270" on="0"/>
        <pt x="42" y="302" on="1"/>
        <pt x="42" y="331" on="0"/>
        <pt x="64" y="385" on="0"/>
        <pt x="109" y="426" on="0"/>
        <pt x="177" y="450" on="0"/>
        <pt x="222" y="450" on="1"/>
        <pt x="243" y="450" on="0"/>
        <pt x="310" y="439" on="0"/>
        <pt x="340" y="418" on="1"/>
        <pt x="369" y="444" on="0"/>
        <pt x="418" y="455" on="0"/>
        <pt x="429" y="455" on="1"/>
        <pt x="444" y="455" on="0"/>
        <pt x="466" y="443" on="0"/>
        <pt x="479" y="426" on="0"/>
        <pt x="485" y="406" on="0"/>
        <pt x="485" y="397" on="1"/>
        <pt x="485" y="379" on="0"/>
        <pt x="462" y="354" on="0"/>
        <pt x="442" y="354" on="1"/>
        <pt x="422" y="354" on="0"/>
        <pt x="399" y="378" on="0"/>
        <pt x="399" y="397" on="1"/>
        <pt x="399" y="405" on="0"/>
        <pt x="401" y="413" on="0"/>
        <pt x="402" y="415" on="1"/>
        <pt x="391" y="412" on="0"/>
        <pt x="374" y="405" on="0"/>
        <pt x="365" y="399" on="1"/>
        <pt x="369" y="395" on="0"/>
        <pt x="381" y="378" on="0"/>
        <pt x="393" y="353" on="0"/>
        <pt x="402" y="321" on="0"/>
        <pt x="402" y="302" on="1"/>
        <pt x="402" y="273" on="0"/>
        <pt x="380" y="220" on="0"/>
        <pt x="335" y="179" on="0"/>
        <pt x="268" y="154" on="0"/>
        <pt x="222" y="154" on="1"/>
        <pt x="177" y="154" on="0"/>
        <pt x="124" y="174" on="0"/>
        <pt x="114" y="179" on="1"/>
        <pt x="113" y="178" on="0"/>
        <pt x="105" y="161" on="0"/>
        <pt x="105" y="144" on="1"/>
        <pt x="105" y="116" on="0"/>
        <pt x="137" y="85" on="0"/>
        <pt x="157" y="83" on="1"/>
      </contour>
      <contour>
        <pt x="222" y="190" on="1"/>
        <pt x="248" y="190" on="0"/>
        <pt x="276" y="211" on="0"/>
        <pt x="289" y="243" on="0"/>
        <pt x="291" y="283" on="0"/>
        <pt x="291" y="302" on="1"/>
        <pt x="291" y="321" on="0"/>
        <pt x="289" y="360" on="0"/>
        <pt x="276" y="393" on="0"/>
        <pt x="248" y="414" on="0"/>
        <pt x="222" y="414" on="1"/>
        <pt x="196" y="414" on="0"/>
        <pt x="168" y="393" on="0"/>
        <pt x="155" y="361" on="0"/>
        <pt x="153" y="321" on="0"/>
        <pt x="153" y="302" on="1"/>
        <pt x="153" y="283" on="0"/>
        <pt x="155" y="244" on="0"/>
        <pt x="168" y="211" on="0"/>
        <pt x="196" y="190" on="0"/>
      </contour>
      <contour>
        <pt x="173" y="-13" on="1"/>
        <pt x="167" y="-13" on="0"/>
        <pt x="146" y="-15" on="0"/>
        <pt x="126" y="-26" on="0"/>
        <pt x="112" y="-51" on="0"/>
        <pt x="112" y="-73" on="1"/>
        <pt x="112" y="-90" on="0"/>
        <pt x="127" y="-123" on="0"/>
        <pt x="160" y="-149" on="0"/>
        <pt x="213" y="-165" on="0"/>
        <pt x="250" y="-165" on="1"/>
        <pt x="289" y="-165" on="0"/>
        <pt x="342" y="-148" on="0"/>
        <pt x="373" y="-121" on="0"/>
        <pt x="387" y="-90" on="0"/>
        <pt x="387" y="-75" on="1"/>
        <pt x="387" y="-41" on="0"/>
        <pt x="325" y="-13" on="0"/>
        <pt x="267" y="-13" on="1"/>
      </contour>
    </TTGlyph>
    <TTGlyph name="germandbls" xMin="16" yMin="-6" xMax="531" yMax="700">
      <contour>
        <pt x="379" y="422" on="1"/>
        <pt x="450" y="395" on="0"/>
        <pt x="531" y="265" on="0"/>
        <pt x="531" y="180" on="1"/>
        <pt x="531" y="134" on="0"/>
        <pt x="497" y="64" on="0"/>
        <pt x="441" y="17" on="0"/>
        <pt x="367" y="-6" on="0"/>
        <pt x="326" y="-6" on="1"/>
        <pt x="301" y="-6" on="0"/>
        <pt x="262" y="9" on="0"/>
        <pt x="235" y="34" on="0"/>
        <pt x="222" y="65" on="0"/>
        <pt x="222" y="80" on="1"/>
        <pt x="222" y="95" on="0"/>
        <pt x="233" y="115" on="0"/>
        <pt x="248" y="126" on="0"/>
        <pt x="266" y="131" on="0"/>
        <pt x="272" y="131" on="1"/>
        <pt x="292" y="131" on="0"/>
        <pt x="322" y="104" on="0"/>
        <pt x="322" y="81" on="1"/>
        <pt x="322" y="77" on="0"/>
        <pt x="314" y="46" on="0"/>
        <pt x="296" y="37" on="1"/>
        <pt x="307" y="30" on="0"/>
        <pt x="323" y="30" on="1"/>
        <pt x="357" y="30" on="0"/>
        <pt x="393" y="67" on="0"/>
        <pt x="410" y="117" on="0"/>
        <pt x="413" y="166" on="0"/>
        <pt x="413" y="179" on="1"/>
        <pt x="413" y="191" on="0"/>
        <pt x="412" y="233" on="0"/>
        <pt x="404" y="282" on="0"/>
        <pt x="386" y="333" on="0"/>
        <pt x="354" y="376" on="0"/>
        <pt x="303" y="405" on="0"/>
        <pt x="267" y="408" on="1"/>
        <pt x="260" y="409" on="0"/>
        <pt x="249" y="413" on="0"/>
        <pt x="249" y="426" on="1"/>
        <pt x="249" y="439" on="0"/>
        <pt x="261" y="443" on="0"/>
        <pt x="271" y="444" on="1"/>
        <pt x="307" y="446" on="0"/>
        <pt x="352" y="468" on="0"/>
        <pt x="376" y="501" on="0"/>
        <pt x="385" y="542" on="0"/>
        <pt x="385" y="563" on="1"/>
        <pt x="385" y="572" on="0"/>
        <pt x="382" y="606" on="0"/>
        <pt x="364" y="639" on="0"/>
        <pt x="326" y="664" on="0"/>
        <pt x="291" y="664" on="1"/>
        <pt x="254" y="664" on="0"/>
        <pt x="214" y="639" on="0"/>
        <pt x="196" y="604" on="0"/>
        <pt x="193" y="569" on="0"/>
        <pt x="193" y="559" on="1"/>
        <pt x="193" y="0" on="1"/>
        <pt x="173" y="2" on="0"/>
        <pt x="149" y="3" on="0"/>
        <pt x="128" y="3" on="1"/>
        <pt x="116" y="3" on="0"/>
        <pt x="85" y="2" on="0"/>
        <pt x="53" y="1" on="0"/>
        <pt x="25" y="0" on="0"/>
        <pt x="16" y="0" on="1"/>
        <pt x="16" y="47" on="1"/>
        <pt x="85" y="47" on="1"/>
        <pt x="85" y="397" on="1"/>
        <pt x="16" y="397" on="1"/>
        <pt x="16" y="444" on="1"/>
        <pt x="85" y="444" on="1"/>
        <pt x="85" y="556" on="1"/>
        <pt x="85" y="592" on="0"/>
        <pt x="116" y="646" on="0"/>
        <pt x="171" y="682" on="0"/>
        <pt x="247" y="700" on="0"/>
        <pt x="292" y="700" on="1"/>
        <pt x="349" y="700" on="0"/>
        <pt x="429" y="676" on="0"/>
        <pt x="480" y="637" on="0"/>
        <pt x="503" y="587" on="0"/>
        <pt x="503" y="562" on="1"/>
        <pt x="503" y="510" on="0"/>
        <pt x="432" y="441" on="0"/>
      </contour>
    </TTGlyph>
    <TTGlyph name="grave" xMin="99" yMin="511" xMax="293" yMax="706">
      <contour>
        <pt x="293" y="544" on="1"/>
        <pt x="260" y="511" on="1"/>
        <pt x="131" y="595" on="1"/>
        <pt x="122" y="601" on="0"/>
        <pt x="99" y="623" on="0"/>
        <pt x="99" y="644" on="1"/>
        <pt x="99" y="668" on="0"/>
        <pt x="137" y="706" on="0"/>
        <pt x="161" y="706" on="1"/>
        <pt x="183" y="706" on="0"/>
        <pt x="205" y="682" on="0"/>
        <pt x="211" y="673" on="1"/>
      </contour>
    </TTGlyph>
    <TTGlyph name="h" xMin="24" yMin="0" xMax="553" yMax="694">
      <contour>
        <pt x="484" y="47" on="1"/>
        <pt x="553" y="47" on="1"/>
        <pt x="553" y="0" on="1"/>
        <pt x="546" y="0" on="0"/>
        <pt x="517" y="1" on="0"/>
        <pt x="483" y="2" on="0"/>
        <pt x="445" y="3" on="0"/>
        <pt x="428" y="3" on="1"/>
        <pt x="399" y="3" on="0"/>
        <pt x="332" y="1" on="0"/>
        <pt x="305" y="0" on="1"/>
        <pt x="305" y="47" on="1"/>
        <pt x="370" y="47" on="1"/>
        <pt x="370" y="321" on="1"/>
        <pt x="370" y="354" on="0"/>
        <pt x="363" y="391" on="0"/>
        <pt x="353" y="410" on="0"/>
        <pt x="340" y="414" on="0"/>
        <pt x="334" y="414" on="1"/>
        <pt x="315" y="414" on="0"/>
        <pt x="271" y="396" on="0"/>
        <pt x="233" y="357" on="0"/>
        <pt x="207" y="298" on="0"/>
        <pt x="207" y="256" on="1"/>
        <pt x="207" y="47" on="1"/>
        <pt x="276" y="47" on="1"/>
        <pt x="276" y="0" on="1"/>
        <pt x="266" y="0" on="0"/>
        <pt x="234" y="1" on="0"/>
        <pt x="200" y="2" on="0"/>
        <pt x="165" y="3" on="0"/>
        <pt x="150" y="3" on="1"/>
        <pt x="136" y="3" on="0"/>
        <pt x="101" y="2" on="0"/>
        <pt x="66" y="1" on="0"/>
        <pt x="35" y="0" on="0"/>
        <pt x="24" y="0" on="1"/>
        <pt x="24" y="47" on="1"/>
        <pt x="93" y="47" on="1"/>
        <pt x="93" y="600" on="1"/>
        <pt x="93" y="615" on="0"/>
        <pt x="89" y="630" on="0"/>
        <pt x="75" y="638" on="0"/>
        <pt x="47" y="639" on="0"/>
        <pt x="24" y="639" on="1"/>
        <pt x="24" y="686" on="1"/>
        <pt x="201" y="694" on="1"/>
        <pt x="201" y="359" on="1"/>
        <pt x="202" y="359" on="1"/>
        <pt x="223" y="397" on="0"/>
        <pt x="295" y="450" on="0"/>
        <pt x="349" y="450" on="1"/>
        <pt x="391" y="450" on="0"/>
        <pt x="443" y="427" on="0"/>
        <pt x="473" y="388" on="0"/>
        <pt x="484" y="337" on="0"/>
        <pt x="484" y="309" on="1"/>
      </contour>
    </TTGlyph>
    <TTGlyph name="hungarumlaut" xMin="118" yMin="517" xMax="428" yMax="712">
      <contour>
        <pt x="160" y="517" on="1"/>
        <pt x="118" y="538" on="1"/>
        <pt x="140" y="658" on="1"/>
        <pt x="141" y="662" on="0"/>
        <pt x="145" y="680" on="0"/>
        <pt x="157" y="698" on="0"/>
        <pt x="178" y="712" on="0"/>
        <pt x="194" y="712" on="1"/>
        <pt x="219" y="712" on="0"/>
        <pt x="261" y="677" on="0"/>
        <pt x="261" y="653" on="1"/>
        <pt x="261" y="640" on="0"/>
        <pt x="248" y="618" on="0"/>
        <pt x="240" y="608" on="1"/>
      </contour>
      <contour>
        <pt x="307" y="658" on="1"/>
        <pt x="308" y="662" on="0"/>
        <pt x="312" y="680" on="0"/>
        <pt x="324" y="698" on="0"/>
        <pt x="345" y="712" on="0"/>
        <pt x="361" y="712" on="1"/>
        <pt x="386" y="712" on="0"/>
        <pt x="428" y="677" on="0"/>
        <pt x="428" y="653" on="1"/>
        <pt x="428" y="640" on="0"/>
        <pt x="415" y="618" on="0"/>
        <pt x="407" y="608" on="1"/>
        <pt x="327" y="517" on="1"/>
        <pt x="285" y="538" on="1"/>
      </contour>
    </TTGlyph>
    <TTGlyph name="hyphen" xMin="11" yMin="174" xMax="276" yMax="271">
      <contour>
        <pt x="11" y="174" on="1"/>
        <pt x="11" y="271" on="1"/>
        <pt x="276" y="271" on="1"/>
        <pt x="276" y="174" on="1"/>
      </contour>
    </TTGlyph>
    <TTGlyph name="i" xMin="26" yMin="0" xMax="265" yMax="695">
      <contour>
        <pt x="213" y="617" on="1"/>
        <pt x="213" y="584" on="0"/>
        <pt x="167" y="539" on="0"/>
        <pt x="135" y="539" on="1"/>
        <pt x="103" y="539" on="0"/>
        <pt x="57" y="585" on="0"/>
        <pt x="57" y="617" on="1"/>
        <pt x="57" y="649" on="0"/>
        <pt x="103" y="695" on="0"/>
        <pt x="135" y="695" on="1"/>
        <pt x="167" y="695" on="0"/>
        <pt x="213" y="650" on="0"/>
      </contour>
      <contour>
        <pt x="203" y="450" on="1"/>
        <pt x="203" y="47" on="1"/>
        <pt x="265" y="47" on="1"/>
        <pt x="265" y="0" on="1"/>
        <pt x="238" y="1" on="0"/>
        <pt x="171" y="3" on="0"/>
        <pt x="148" y="3" on="1"/>
        <pt x="116" y="3" on="0"/>
        <pt x="49" y="1" on="0"/>
        <pt x="26" y="0" on="1"/>
        <pt x="26" y="47" on="1"/>
        <pt x="95" y="47" on="1"/>
        <pt x="95" y="356" on="1"/>
        <pt x="95" y="371" on="0"/>
        <pt x="91" y="386" on="0"/>
        <pt x="77" y="394" on="0"/>
        <pt x="51" y="395" on="0"/>
        <pt x="29" y="395" on="1"/>
        <pt x="29" y="442" on="1"/>
      </contour>
    </TTGlyph>
    <TTGlyph name="j" xMin="-62" yMin="-200" xMax="242" yMax="695">
      <contour>
        <pt x="242" y="617" on="1"/>
        <pt x="242" y="585" on="0"/>
        <pt x="196" y="539" on="0"/>
        <pt x="164" y="539" on="1"/>
        <pt x="132" y="539" on="0"/>
        <pt x="86" y="585" on="0"/>
        <pt x="86" y="617" on="1"/>
        <pt x="86" y="649" on="0"/>
        <pt x="132" y="695" on="0"/>
        <pt x="164" y="695" on="1"/>
        <pt x="196" y="695" on="0"/>
        <pt x="242" y="649" on="0"/>
      </contour>
      <contour>
        <pt x="242" y="450" on="1"/>
        <pt x="242" y="-42" on="1"/>
        <pt x="242" y="-81" on="0"/>
        <pt x="212" y="-140" on="0"/>
        <pt x="163" y="-180" on="0"/>
        <pt x="102" y="-200" on="0"/>
        <pt x="71" y="-200" on="1"/>
        <pt x="45" y="-200" on="0"/>
        <pt x="-3" y="-188" on="0"/>
        <pt x="-40" y="-165" on="0"/>
        <pt x="-62" y="-131" on="0"/>
        <pt x="-62" y="-109" on="1"/>
        <pt x="-62" y="-82" on="0"/>
        <pt x="-28" y="-46" on="0"/>
        <pt x="1" y="-46" on="1"/>
        <pt x="28" y="-46" on="0"/>
        <pt x="63" y="-82" on="0"/>
        <pt x="63" y="-108" on="1"/>
        <pt x="63" y="-115" on="0"/>
        <pt x="55" y="-147" on="0"/>
        <pt x="37" y="-159" on="1"/>
        <pt x="42" y="-161" on="0"/>
        <pt x="58" y="-164" on="0"/>
        <pt x="69" y="-164" on="1"/>
        <pt x="90" y="-164" on="0"/>
        <pt x="116" y="-138" on="0"/>
        <pt x="130" y="-101" on="0"/>
        <pt x="134" y="-59" on="0"/>
        <pt x="134" y="-44" on="1"/>
        <pt x="134" y="355" on="1"/>
        <pt x="134" y="371" on="0"/>
        <pt x="129" y="390" on="0"/>
        <pt x="112" y="393" on="1"/>
        <pt x="101" y="395" on="0"/>
        <pt x="71" y="395" on="0"/>
        <pt x="58" y="395" on="1"/>
        <pt x="58" y="442" on="1"/>
      </contour>
    </TTGlyph>
    <TTGlyph name="k" xMin="16" yMin="0" xMax="511" yMax="694">
      <contour>
        <pt x="441" y="66" on="1"/>
        <pt x="448" y="56" on="0"/>
        <pt x="456" y="50" on="0"/>
        <pt x="467" y="48" on="1"/>
        <pt x="475" y="47" on="0"/>
        <pt x="497" y="47" on="0"/>
        <pt x="511" y="47" on="1"/>
        <pt x="511" y="0" on="1"/>
        <pt x="494" y="1" on="0"/>
        <pt x="440" y="3" on="0"/>
        <pt x="410" y="3" on="1"/>
        <pt x="398" y="3" on="0"/>
        <pt x="352" y="2" on="0"/>
        <pt x="307" y="1" on="0"/>
        <pt x="290" y="0" on="1"/>
        <pt x="290" y="47" on="1"/>
        <pt x="301" y="47" on="0"/>
        <pt x="327" y="49" on="0"/>
        <pt x="327" y="57" on="1"/>
        <pt x="327" y="59" on="0"/>
        <pt x="298" y="103" on="0"/>
        <pt x="262" y="157" on="0"/>
        <pt x="229" y="205" on="0"/>
        <pt x="224" y="212" on="1"/>
        <pt x="188" y="179" on="1"/>
        <pt x="188" y="47" on="1"/>
        <pt x="257" y="47" on="1"/>
        <pt x="257" y="0" on="1"/>
        <pt x="230" y="1" on="0"/>
        <pt x="164" y="3" on="0"/>
        <pt x="136" y="3" on="1"/>
        <pt x="109" y="3" on="0"/>
        <pt x="44" y="1" on="0"/>
        <pt x="16" y="0" on="1"/>
        <pt x="16" y="47" on="1"/>
        <pt x="85" y="47" on="1"/>
        <pt x="85" y="600" on="1"/>
        <pt x="85" y="615" on="0"/>
        <pt x="81" y="630" on="0"/>
        <pt x="67" y="638" on="0"/>
        <pt x="39" y="639" on="0"/>
        <pt x="16" y="639" on="1"/>
        <pt x="16" y="686" on="1"/>
        <pt x="193" y="694" on="1"/>
        <pt x="193" y="248" on="1"/>
        <pt x="332" y="376" on="1"/>
        <pt x="334" y="377" on="0"/>
        <pt x="340" y="384" on="0"/>
        <pt x="340" y="386" on="1"/>
        <pt x="340" y="391" on="0"/>
        <pt x="311" y="397" on="0"/>
        <pt x="297" y="397" on="1"/>
        <pt x="297" y="444" on="1"/>
        <pt x="302" y="444" on="0"/>
        <pt x="328" y="443" on="0"/>
        <pt x="361" y="442" on="0"/>
        <pt x="397" y="441" on="0"/>
        <pt x="411" y="441" on="1"/>
        <pt x="429" y="441" on="0"/>
        <pt x="471" y="442" on="0"/>
        <pt x="488" y="444" on="1"/>
        <pt x="488" y="397" on="1"/>
        <pt x="464" y="397" on="0"/>
        <pt x="435" y="394" on="0"/>
        <pt x="418" y="390" on="0"/>
        <pt x="408" y="383" on="0"/>
        <pt x="403" y="378" on="1"/>
        <pt x="296" y="279" on="1"/>
      </contour>
    </TTGlyph>
    <TTGlyph name="l" xMin="26" yMin="0" xMax="272" yMax="694">
      <contour>
        <pt x="203" y="47" on="1"/>
        <pt x="272" y="47" on="1"/>
        <pt x="272" y="0" on="1"/>
        <pt x="246" y="1" on="0"/>
        <pt x="181" y="3" on="0"/>
        <pt x="149" y="3" on="1"/>
        <pt x="117" y="3" on="0"/>
        <pt x="50" y="1" on="0"/>
        <pt x="26" y="0" on="1"/>
        <pt x="26" y="47" on="1"/>
        <pt x="95" y="47" on="1"/>
        <pt x="95" y="600" on="1"/>
        <pt x="95" y="615" on="0"/>
        <pt x="91" y="630" on="0"/>
        <pt x="77" y="638" on="0"/>
        <pt x="49" y="639" on="0"/>
        <pt x="26" y="639" on="1"/>
        <pt x="26" y="686" on="1"/>
        <pt x="203" y="694" on="1"/>
      </contour>
    </TTGlyph>
    <TTGlyph name="m" xMin="24" yMin="0" xMax="830" yMax="450">
      <contour>
        <pt x="761" y="47" on="1"/>
        <pt x="830" y="47" on="1"/>
        <pt x="830" y="0" on="1"/>
        <pt x="823" y="0" on="0"/>
        <pt x="794" y="1" on="0"/>
        <pt x="760" y="2" on="0"/>
        <pt x="722" y="3" on="0"/>
        <pt x="705" y="3" on="1"/>
        <pt x="676" y="3" on="0"/>
        <pt x="609" y="1" on="0"/>
        <pt x="582" y="0" on="1"/>
        <pt x="582" y="47" on="1"/>
        <pt x="647" y="47" on="1"/>
        <pt x="647" y="321" on="1"/>
        <pt x="647" y="354" on="0"/>
        <pt x="640" y="391" on="0"/>
        <pt x="630" y="410" on="0"/>
        <pt x="617" y="414" on="0"/>
        <pt x="611" y="414" on="1"/>
        <pt x="592" y="414" on="0"/>
        <pt x="548" y="396" on="0"/>
        <pt x="510" y="357" on="0"/>
        <pt x="484" y="298" on="0"/>
        <pt x="484" y="256" on="1"/>
        <pt x="484" y="47" on="1"/>
        <pt x="553" y="47" on="1"/>
        <pt x="553" y="0" on="1"/>
        <pt x="546" y="0" on="0"/>
        <pt x="517" y="1" on="0"/>
        <pt x="483" y="2" on="0"/>
        <pt x="445" y="3" on="0"/>
        <pt x="428" y="3" on="1"/>
        <pt x="399" y="3" on="0"/>
        <pt x="332" y="1" on="0"/>
        <pt x="305" y="0" on="1"/>
        <pt x="305" y="47" on="1"/>
        <pt x="370" y="47" on="1"/>
        <pt x="370" y="321" on="1"/>
        <pt x="370" y="354" on="0"/>
        <pt x="363" y="391" on="0"/>
        <pt x="353" y="410" on="0"/>
        <pt x="340" y="414" on="0"/>
        <pt x="334" y="414" on="1"/>
        <pt x="315" y="414" on="0"/>
        <pt x="271" y="396" on="0"/>
        <pt x="233" y="357" on="0"/>
        <pt x="207" y="298" on="0"/>
        <pt x="207" y="256" on="1"/>
        <pt x="207" y="47" on="1"/>
        <pt x="276" y="47" on="1"/>
        <pt x="276" y="0" on="1"/>
        <pt x="266" y="0" on="0"/>
        <pt x="234" y="1" on="0"/>
        <pt x="200" y="2" on="0"/>
        <pt x="165" y="3" on="0"/>
        <pt x="150" y="3" on="1"/>
        <pt x="136" y="3" on="0"/>
        <pt x="101" y="2" on="0"/>
        <pt x="66" y="1" on="0"/>
        <pt x="35" y="0" on="0"/>
        <pt x="24" y="0" on="1"/>
        <pt x="24" y="47" on="1"/>
        <pt x="93" y="47" on="1"/>
        <pt x="93" y="356" on="1"/>
        <pt x="93" y="371" on="0"/>
        <pt x="89" y="386" on="0"/>
        <pt x="75" y="394" on="0"/>
        <pt x="47" y="395" on="0"/>
        <pt x="24" y="395" on="1"/>
        <pt x="24" y="442" on="1"/>
        <pt x="196" y="450" on="1"/>
        <pt x="196" y="349" on="1"/>
        <pt x="197" y="349" on="1"/>
        <pt x="219" y="394" on="0"/>
        <pt x="295" y="450" on="0"/>
        <pt x="349" y="450" on="1"/>
        <pt x="361" y="450" on="0"/>
        <pt x="400" y="446" on="0"/>
        <pt x="439" y="429" on="0"/>
        <pt x="473" y="392" on="0"/>
        <pt x="480" y="359" on="1"/>
        <pt x="500" y="398" on="0"/>
        <pt x="572" y="450" on="0"/>
        <pt x="626" y="450" on="1"/>
        <pt x="668" y="450" on="0"/>
        <pt x="720" y="427" on="0"/>
        <pt x="750" y="388" on="0"/>
        <pt x="761" y="337" on="0"/>
        <pt x="761" y="309" on="1"/>
      </contour>
    </TTGlyph>
    <TTGlyph name="macron" xMin="69" yMin="555" xMax="430" yMax="607">
      <contour>
        <pt x="69" y="555" on="1"/>
        <pt x="69" y="607" on="1"/>
        <pt x="430" y="607" on="1"/>
        <pt x="430" y="555" on="1"/>
      </contour>
    </TTGlyph>
    <TTGlyph name="n" xMin="24" yMin="0" xMax="553" yMax="450">
      <contour>
        <pt x="484" y="47" on="1"/>
        <pt x="553" y="47" on="1"/>
        <pt x="553" y="0" on="1"/>
        <pt x="546" y="0" on="0"/>
        <pt x="517" y="1" on="0"/>
        <pt x="483" y="2" on="0"/>
        <pt x="445" y="3" on="0"/>
        <pt x="428" y="3" on="1"/>
        <pt x="399" y="3" on="0"/>
        <pt x="332" y="1" on="0"/>
        <pt x="305" y="0" on="1"/>
        <pt x="305" y="47" on="1"/>
        <pt x="370" y="47" on="1"/>
        <pt x="370" y="321" on="1"/>
        <pt x="370" y="354" on="0"/>
        <pt x="363" y="391" on="0"/>
        <pt x="353" y="410" on="0"/>
        <pt x="340" y="414" on="0"/>
        <pt x="334" y="414" on="1"/>
        <pt x="315" y="414" on="0"/>
        <pt x="271" y="396" on="0"/>
        <pt x="233" y="357" on="0"/>
        <pt x="207" y="298" on="0"/>
        <pt x="207" y="256" on="1"/>
        <pt x="207" y="47" on="1"/>
        <pt x="276" y="47" on="1"/>
        <pt x="276" y="0" on="1"/>
        <pt x="266" y="0" on="0"/>
        <pt x="234" y="1" on="0"/>
        <pt x="200" y="2" on="0"/>
        <pt x="165" y="3" on="0"/>
        <pt x="150" y="3" on="1"/>
        <pt x="136" y="3" on="0"/>
        <pt x="101" y="2" on="0"/>
        <pt x="66" y="1" on="0"/>
        <pt x="35" y="0" on="0"/>
        <pt x="24" y="0" on="1"/>
        <pt x="24" y="47" on="1"/>
        <pt x="93" y="47" on="1"/>
        <pt x="93" y="356" on="1"/>
        <pt x="93" y="371" on="0"/>
        <pt x="89" y="386" on="0"/>
        <pt x="75" y="394" on="0"/>
        <pt x="47" y="395" on="0"/>
        <pt x="24" y="395" on="1"/>
        <pt x="24" y="442" on="1"/>
        <pt x="196" y="450" on="1"/>
        <pt x="196" y="349" on="1"/>
        <pt x="197" y="349" on="1"/>
        <pt x="219" y="394" on="0"/>
        <pt x="295" y="450" on="0"/>
        <pt x="349" y="450" on="1"/>
        <pt x="391" y="450" on="0"/>
        <pt x="443" y="427" on="0"/>
        <pt x="473" y="388" on="0"/>
        <pt x="484" y="337" on="0"/>
        <pt x="484" y="309" on="1"/>
      </contour>
    </TTGlyph>
    <TTGlyph name="nine" xMin="42" yMin="-11" xMax="457" yMax="655">
      <contour>
        <pt x="321" y="276" on="1"/>
        <pt x="312" y="258" on="0"/>
        <pt x="287" y="238" on="0"/>
        <pt x="263" y="229" on="0"/>
        <pt x="242" y="227" on="0"/>
        <pt x="236" y="227" on="1"/>
        <pt x="198" y="227" on="0"/>
        <pt x="128" y="253" on="0"/>
        <pt x="74" y="306" on="0"/>
        <pt x="42" y="386" on="0"/>
        <pt x="42" y="440" on="1"/>
        <pt x="42" y="490" on="0"/>
        <pt x="67" y="563" on="0"/>
        <pt x="101" y="596" on="1"/>
        <pt x="125" y="620" on="0"/>
        <pt x="192" y="655" on="0"/>
        <pt x="251" y="655" on="1"/>
        <pt x="303" y="655" on="0"/>
        <pt x="373" y="616" on="0"/>
        <pt x="419" y="555" on="0"/>
        <pt x="444" y="480" on="0"/>
        <pt x="455" y="407" on="0"/>
        <pt x="457" y="347" on="0"/>
        <pt x="457" y="330" on="1"/>
        <pt x="457" y="224" on="0"/>
        <pt x="404" y="91" on="0"/>
        <pt x="327" y="16" on="0"/>
        <pt x="241" y="-11" on="0"/>
        <pt x="208" y="-11" on="1"/>
        <pt x="172" y="-11" on="0"/>
        <pt x="119" y="9" on="0"/>
        <pt x="84" y="44" on="0"/>
        <pt x="67" y="89" on="0"/>
        <pt x="67" y="113" on="1"/>
        <pt x="67" y="145" on="0"/>
        <pt x="103" y="178" on="0"/>
        <pt x="130" y="178" on="1"/>
        <pt x="159" y="178" on="0"/>
        <pt x="192" y="142" on="0"/>
        <pt x="192" y="116" on="1"/>
        <pt x="192" y="90" on="0"/>
        <pt x="162" y="58" on="0"/>
        <pt x="140" y="54" on="1"/>
        <pt x="149" y="46" on="0"/>
        <pt x="169" y="37" on="0"/>
        <pt x="188" y="33" on="0"/>
        <pt x="203" y="32" on="0"/>
        <pt x="206" y="32" on="1"/>
        <pt x="224" y="32" on="0"/>
        <pt x="253" y="44" on="0"/>
        <pt x="274" y="60" on="0"/>
        <pt x="289" y="78" on="0"/>
        <pt x="293" y="85" on="1"/>
        <pt x="304" y="105" on="0"/>
        <pt x="315" y="153" on="0"/>
        <pt x="318" y="198" on="1"/>
        <pt x="320" y="218" on="0"/>
        <pt x="320" y="256" on="0"/>
      </contour>
      <contour>
        <pt x="243" y="263" on="1"/>
        <pt x="269" y="263" on="0"/>
        <pt x="299" y="294" on="0"/>
        <pt x="316" y="345" on="0"/>
        <pt x="321" y="411" on="0"/>
        <pt x="321" y="446" on="1"/>
        <pt x="321" y="480" on="0"/>
        <pt x="319" y="523" on="0"/>
        <pt x="317" y="547" on="0"/>
        <pt x="314" y="556" on="0"/>
        <pt x="314" y="557" on="1"/>
        <pt x="311" y="566" on="0"/>
        <pt x="301" y="587" on="0"/>
        <pt x="287" y="605" on="0"/>
        <pt x="267" y="616" on="0"/>
        <pt x="253" y="616" on="1"/>
        <pt x="236" y="616" on="0"/>
        <pt x="211" y="605" on="0"/>
        <pt x="195" y="589" on="0"/>
        <pt x="186" y="570" on="0"/>
        <pt x="184" y="562" on="1"/>
        <pt x="179" y="542" on="0"/>
        <pt x="178" y="471" on="0"/>
        <pt x="178" y="435" on="1"/>
        <pt x="178" y="429" on="0"/>
        <pt x="178" y="399" on="0"/>
        <pt x="179" y="364" on="0"/>
        <pt x="180" y="330" on="0"/>
        <pt x="181" y="320" on="1"/>
        <pt x="184" y="299" on="0"/>
        <pt x="214" y="263" on="0"/>
      </contour>
    </TTGlyph>
    <TTGlyph name="numbersign" xMin="56" yMin="-194" xMax="776" yMax="694">
      <contour>
        <pt x="448" y="-164" on="1"/>
        <pt x="446" y="-171" on="0"/>
        <pt x="434" y="-194" on="0"/>
        <pt x="417" y="-194" on="1"/>
        <pt x="403" y="-194" on="0"/>
        <pt x="386" y="-175" on="0"/>
        <pt x="386" y="-164" on="1"/>
        <pt x="386" y="-161" on="0"/>
        <pt x="387" y="-155" on="0"/>
        <pt x="390" y="-144" on="1"/>
        <pt x="456" y="108" on="1"/>
        <pt x="300" y="108" on="1"/>
        <pt x="229" y="-164" on="1"/>
        <pt x="227" y="-171" on="0"/>
        <pt x="215" y="-194" on="0"/>
        <pt x="198" y="-194" on="1"/>
        <pt x="184" y="-194" on="0"/>
        <pt x="167" y="-175" on="0"/>
        <pt x="167" y="-164" on="1"/>
        <pt x="167" y="-161" on="0"/>
        <pt x="168" y="-155" on="0"/>
        <pt x="171" y="-144" on="1"/>
        <pt x="237" y="108" on="1"/>
        <pt x="102" y="108" on="1"/>
        <pt x="96" y="108" on="0"/>
        <pt x="81" y="109" on="0"/>
        <pt x="66" y="115" on="0"/>
        <pt x="56" y="127" on="0"/>
        <pt x="56" y="139" on="1"/>
        <pt x="56" y="150" on="0"/>
        <pt x="65" y="162" on="0"/>
        <pt x="79" y="168" on="0"/>
        <pt x="93" y="169" on="0"/>
        <pt x="97" y="169" on="1"/>
        <pt x="254" y="169" on="1"/>
        <pt x="296" y="332" on="1"/>
        <pt x="97" y="332" on="1"/>
        <pt x="93" y="332" on="0"/>
        <pt x="79" y="333" on="0"/>
        <pt x="65" y="339" on="0"/>
        <pt x="56" y="351" on="0"/>
        <pt x="56" y="362" on="1"/>
        <pt x="56" y="374" on="0"/>
        <pt x="66" y="386" on="0"/>
        <pt x="81" y="392" on="0"/>
        <pt x="96" y="393" on="0"/>
        <pt x="102" y="393" on="1"/>
        <pt x="313" y="393" on="1"/>
        <pt x="384" y="664" on="1"/>
        <pt x="386" y="671" on="0"/>
        <pt x="398" y="694" on="0"/>
        <pt x="415" y="694" on="1"/>
        <pt x="429" y="694" on="0"/>
        <pt x="446" y="675" on="0"/>
        <pt x="446" y="664" on="1"/>
        <pt x="446" y="662" on="0"/>
        <pt x="445" y="655" on="0"/>
        <pt x="442" y="644" on="1"/>
        <pt x="376" y="393" on="1"/>
        <pt x="532" y="393" on="1"/>
        <pt x="603" y="664" on="1"/>
        <pt x="605" y="671" on="0"/>
        <pt x="617" y="694" on="0"/>
        <pt x="634" y="694" on="1"/>
        <pt x="648" y="694" on="0"/>
        <pt x="665" y="675" on="0"/>
        <pt x="665" y="664" on="1"/>
        <pt x="665" y="662" on="0"/>
        <pt x="664" y="655" on="0"/>
        <pt x="661" y="644" on="1"/>
        <pt x="595" y="393" on="1"/>
        <pt x="730" y="393" on="1"/>
        <pt x="736" y="393" on="0"/>
        <pt x="751" y="392" on="0"/>
        <pt x="766" y="386" on="0"/>
        <pt x="776" y="374" on="0"/>
        <pt x="776" y="362" on="1"/>
        <pt x="776" y="351" on="0"/>
        <pt x="767" y="339" on="0"/>
        <pt x="753" y="333" on="0"/>
        <pt x="740" y="332" on="0"/>
        <pt x="735" y="332" on="1"/>
        <pt x="578" y="332" on="1"/>
        <pt x="536" y="169" on="1"/>
        <pt x="735" y="169" on="1"/>
        <pt x="740" y="169" on="0"/>
        <pt x="753" y="168" on="0"/>
        <pt x="767" y="162" on="0"/>
        <pt x="776" y="150" on="0"/>
        <pt x="776" y="139" on="1"/>
        <pt x="776" y="127" on="0"/>
        <pt x="766" y="115" on="0"/>
        <pt x="751" y="109" on="0"/>
        <pt x="736" y="108" on="0"/>
        <pt x="730" y="108" on="1"/>
        <pt x="519" y="108" on="1"/>
      </contour>
      <contour>
        <pt x="473" y="169" on="1"/>
        <pt x="515" y="332" on="1"/>
        <pt x="359" y="332" on="1"/>
        <pt x="317" y="169" on="1"/>
      </contour>
    </TTGlyph>
    <TTGlyph name="o" xMin="28" yMin="-6" xMax="471" yMax="453">
      <contour>
        <pt x="471" y="219" on="1"/>
        <pt x="471" y="167" on="0"/>
        <pt x="439" y="83" on="0"/>
        <pt x="380" y="25" on="0"/>
        <pt x="299" y="-6" on="0"/>
        <pt x="249" y="-6" on="1"/>
        <pt x="201" y="-6" on="0"/>
        <pt x="120" y="24" on="0"/>
        <pt x="61" y="81" on="0"/>
        <pt x="28" y="165" on="0"/>
        <pt x="28" y="219" on="1"/>
        <pt x="28" y="273" on="0"/>
        <pt x="61" y="360" on="0"/>
        <pt x="119" y="421" on="0"/>
        <pt x="201" y="453" on="0"/>
        <pt x="249" y="453" on="1"/>
        <pt x="299" y="453" on="0"/>
        <pt x="381" y="420" on="0"/>
        <pt x="439" y="358" on="0"/>
        <pt x="471" y="272" on="0"/>
      </contour>
      <contour>
        <pt x="250" y="34" on="1"/>
        <pt x="277" y="34" on="0"/>
        <pt x="325" y="67" on="0"/>
        <pt x="333" y="96" on="1"/>
        <pt x="341" y="122" on="0"/>
        <pt x="343" y="194" on="0"/>
        <pt x="343" y="229" on="1"/>
        <pt x="343" y="264" on="0"/>
        <pt x="341" y="331" on="0"/>
        <pt x="334" y="356" on="1"/>
        <pt x="327" y="380" on="0"/>
        <pt x="281" y="417" on="0"/>
        <pt x="249" y="417" on="1"/>
        <pt x="221" y="417" on="0"/>
        <pt x="173" y="385" on="0"/>
        <pt x="165" y="356" on="1"/>
        <pt x="158" y="332" on="0"/>
        <pt x="156" y="264" on="0"/>
        <pt x="156" y="229" on="1"/>
        <pt x="156" y="216" on="0"/>
        <pt x="156" y="182" on="0"/>
        <pt x="158" y="146" on="0"/>
        <pt x="161" y="112" on="0"/>
        <pt x="164" y="100" on="1"/>
        <pt x="172" y="67" on="0"/>
        <pt x="222" y="34" on="0"/>
      </contour>
    </TTGlyph>
    <TTGlyph name="oe" xMin="28" yMin="-6" xMax="749" yMax="453">
      <contour>
        <pt x="473" y="218" on="1"/>
        <pt x="473" y="201" on="0"/>
        <pt x="478" y="139" on="0"/>
        <pt x="500" y="79" on="0"/>
        <pt x="548" y="34" on="0"/>
        <pt x="592" y="34" on="1"/>
        <pt x="606" y="34" on="0"/>
        <pt x="638" y="42" on="0"/>
        <pt x="668" y="62" on="0"/>
        <pt x="693" y="93" on="0"/>
        <pt x="701" y="116" on="1"/>
        <pt x="704" y="125" on="0"/>
        <pt x="711" y="135" on="0"/>
        <pt x="725" y="135" on="1"/>
        <pt x="727" y="135" on="0"/>
        <pt x="735" y="134" on="0"/>
        <pt x="743" y="131" on="0"/>
        <pt x="749" y="124" on="0"/>
        <pt x="749" y="117" on="1"/>
        <pt x="749" y="108" on="0"/>
        <pt x="731" y="68" on="0"/>
        <pt x="692" y="26" on="0"/>
        <pt x="630" y="-6" on="0"/>
        <pt x="585" y="-6" on="1"/>
        <pt x="570" y="-6" on="0"/>
        <pt x="530" y="-1" on="0"/>
        <pt x="485" y="13" on="0"/>
        <pt x="439" y="39" on="0"/>
        <pt x="417" y="61" on="1"/>
        <pt x="379" y="23" on="0"/>
        <pt x="293" y="-6" on="0"/>
        <pt x="251" y="-6" on="1"/>
        <pt x="202" y="-6" on="0"/>
        <pt x="120" y="26" on="0"/>
        <pt x="61" y="86" on="0"/>
        <pt x="28" y="171" on="0"/>
        <pt x="28" y="224" on="1"/>
        <pt x="28" y="278" on="0"/>
        <pt x="62" y="363" on="0"/>
        <pt x="121" y="422" on="0"/>
        <pt x="203" y="453" on="0"/>
        <pt x="251" y="453" on="1"/>
        <pt x="290" y="453" on="0"/>
        <pt x="349" y="435" on="0"/>
        <pt x="390" y="412" on="0"/>
        <pt x="412" y="391" on="0"/>
        <pt x="415" y="388" on="1"/>
        <pt x="443" y="418" on="0"/>
        <pt x="524" y="453" on="0"/>
        <pt x="572" y="453" on="1"/>
        <pt x="619" y="453" on="0"/>
        <pt x="686" y="421" on="0"/>
        <pt x="729" y="365" on="0"/>
        <pt x="749" y="290" on="0"/>
        <pt x="749" y="247" on="1"/>
        <pt x="749" y="226" on="0"/>
        <pt x="736" y="218" on="0"/>
        <pt x="717" y="218" on="1"/>
      </contour>
      <contour>
        <pt x="654" y="251" on="1"/>
        <pt x="654" y="267" on="0"/>
        <pt x="650" y="323" on="0"/>
        <pt x="633" y="377" on="0"/>
        <pt x="601" y="417" on="0"/>
        <pt x="572" y="417" on="1"/>
        <pt x="550" y="417" on="0"/>
        <pt x="505" y="389" on="0"/>
        <pt x="491" y="360" on="1"/>
        <pt x="479" y="334" on="0"/>
        <pt x="474" y="277" on="0"/>
        <pt x="473" y="251" on="1"/>
      </contour>
      <contour>
        <pt x="251" y="30" on="1"/>
        <pt x="271" y="30" on="0"/>
        <pt x="324" y="55" on="0"/>
        <pt x="341" y="93" on="1"/>
        <pt x="355" y="122" on="0"/>
        <pt x="359" y="198" on="0"/>
        <pt x="359" y="229" on="1"/>
        <pt x="359" y="264" on="0"/>
        <pt x="354" y="333" on="0"/>
        <pt x="340" y="362" on="1"/>
        <pt x="327" y="388" on="0"/>
        <pt x="279" y="417" on="0"/>
        <pt x="251" y="417" on="1"/>
        <pt x="220" y="417" on="0"/>
        <pt x="174" y="384" on="0"/>
        <pt x="163" y="362" on="1"/>
        <pt x="149" y="333" on="0"/>
        <pt x="145" y="265" on="0"/>
        <pt x="145" y="229" on="1"/>
        <pt x="145" y="181" on="0"/>
        <pt x="151" y="120" on="0"/>
        <pt x="162" y="94" on="1"/>
        <pt x="175" y="62" on="0"/>
        <pt x="225" y="30" on="0"/>
      </contour>
    </TTGlyph>
    <TTGlyph name="one" xMin="69" yMin="0" xMax="430" yMax="655">
      <contour>
        <pt x="314" y="47" on="1"/>
        <pt x="430" y="47" on="1"/>
        <pt x="430" y="0" on="1"/>
        <pt x="416" y="1" on="0"/>
        <pt x="370" y="2" on="0"/>
        <pt x="319" y="3" on="0"/>
        <pt x="271" y="3" on="0"/>
        <pt x="255" y="3" on="1"/>
        <pt x="239" y="3" on="0"/>
        <pt x="192" y="3" on="0"/>
        <pt x="142" y="2" on="0"/>
        <pt x="97" y="1" on="0"/>
        <pt x="83" y="0" on="1"/>
        <pt x="83" y="47" on="1"/>
        <pt x="195" y="47" on="1"/>
        <pt x="195" y="561" on="1"/>
        <pt x="155" y="548" on="0"/>
        <pt x="89" y="544" on="0"/>
        <pt x="69" y="544" on="1"/>
        <pt x="69" y="591" on="1"/>
        <pt x="82" y="591" on="0"/>
        <pt x="131" y="593" on="0"/>
        <pt x="190" y="605" on="0"/>
        <pt x="250" y="631" on="0"/>
        <pt x="275" y="655" on="1"/>
        <pt x="288" y="655" on="0"/>
        <pt x="303" y="654" on="0"/>
        <pt x="311" y="648" on="0"/>
        <pt x="314" y="635" on="0"/>
        <pt x="314" y="623" on="1"/>
      </contour>
    </TTGlyph>
    <TTGlyph name="oslash" xMin="28" yMin="-105" xMax="471" yMax="550">
      <contour>
        <pt x="372" y="420" on="1"/>
        <pt x="420" y="391" on="0"/>
        <pt x="471" y="284" on="0"/>
        <pt x="471" y="219" on="1"/>
        <pt x="471" y="167" on="0"/>
        <pt x="439" y="83" on="0"/>
        <pt x="380" y="25" on="0"/>
        <pt x="299" y="-6" on="0"/>
        <pt x="249" y="-6" on="1"/>
        <pt x="218" y="-6" on="0"/>
        <pt x="171" y="5" on="0"/>
        <pt x="160" y="9" on="1"/>
        <pt x="101" y="-105" on="1"/>
        <pt x="69" y="-89" on="1"/>
        <pt x="127" y="25" on="1"/>
        <pt x="100" y="42" on="0"/>
        <pt x="62" y="85" on="0"/>
        <pt x="38" y="136" on="0"/>
        <pt x="28" y="191" on="0"/>
        <pt x="28" y="219" on="1"/>
        <pt x="28" y="272" on="0"/>
        <pt x="59" y="358" on="0"/>
        <pt x="117" y="420" on="0"/>
        <pt x="199" y="453" on="0"/>
        <pt x="250" y="453" on="1"/>
        <pt x="276" y="453" on="0"/>
        <pt x="324" y="443" on="0"/>
        <pt x="340" y="437" on="1"/>
        <pt x="398" y="550" on="1"/>
        <pt x="430" y="534" on="1"/>
      </contour>
      <contour>
        <pt x="317" y="393" on="1"/>
        <pt x="312" y="398" on="0"/>
        <pt x="276" y="417" on="0"/>
        <pt x="250" y="417" on="1"/>
        <pt x="221" y="417" on="0"/>
        <pt x="166" y="385" on="0"/>
        <pt x="154" y="350" on="1"/>
        <pt x="145" y="323" on="0"/>
        <pt x="142" y="251" on="0"/>
        <pt x="142" y="219" on="1"/>
        <pt x="142" y="180" on="0"/>
        <pt x="146" y="111" on="0"/>
        <pt x="158" y="85" on="1"/>
      </contour>
      <contour>
        <pt x="183" y="53" on="1"/>
        <pt x="203" y="36" on="0"/>
        <pt x="242" y="30" on="0"/>
        <pt x="250" y="30" on="1"/>
        <pt x="271" y="30" on="0"/>
        <pt x="325" y="52" on="0"/>
        <pt x="340" y="83" on="1"/>
        <pt x="353" y="109" on="0"/>
        <pt x="357" y="182" on="0"/>
        <pt x="357" y="219" on="1"/>
        <pt x="357" y="256" on="0"/>
        <pt x="353" y="331" on="0"/>
        <pt x="341" y="360" on="1"/>
      </contour>
    </TTGlyph>
    <TTGlyph name="p" xMin="16" yMin="-194" xMax="522" yMax="450">
      <contour>
        <pt x="268" y="-194" on="1"/>
        <pt x="258" y="-194" on="0"/>
        <pt x="226" y="-193" on="0"/>
        <pt x="192" y="-192" on="0"/>
        <pt x="157" y="-191" on="0"/>
        <pt x="142" y="-191" on="1"/>
        <pt x="128" y="-191" on="0"/>
        <pt x="93" y="-192" on="0"/>
        <pt x="58" y="-193" on="0"/>
        <pt x="27" y="-194" on="0"/>
        <pt x="16" y="-194" on="1"/>
        <pt x="16" y="-147" on="1"/>
        <pt x="85" y="-147" on="1"/>
        <pt x="85" y="362" on="1"/>
        <pt x="85" y="377" on="0"/>
        <pt x="80" y="391" on="0"/>
        <pt x="66" y="393" on="1"/>
        <pt x="58" y="395" on="0"/>
        <pt x="30" y="395" on="0"/>
        <pt x="16" y="395" on="1"/>
        <pt x="16" y="442" on="1"/>
        <pt x="193" y="450" on="1"/>
        <pt x="193" y="407" on="1"/>
        <pt x="248" y="450" on="0"/>
        <pt x="317" y="450" on="1"/>
        <pt x="359" y="450" on="0"/>
        <pt x="434" y="420" on="0"/>
        <pt x="489" y="363" on="0"/>
        <pt x="522" y="278" on="0"/>
        <pt x="522" y="223" on="1"/>
        <pt x="522" y="166" on="0"/>
        <pt x="486" y="81" on="0"/>
        <pt x="426" y="23" on="0"/>
        <pt x="346" y="-6" on="0"/>
        <pt x="302" y="-6" on="1"/>
        <pt x="244" y="-6" on="0"/>
        <pt x="199" y="30" on="1"/>
        <pt x="199" y="-147" on="1"/>
        <pt x="268" y="-147" on="1"/>
      </contour>
      <contour>
        <pt x="199" y="89" on="1"/>
        <pt x="213" y="66" on="0"/>
        <pt x="260" y="30" on="0"/>
        <pt x="293" y="30" on="1"/>
        <pt x="311" y="30" on="0"/>
        <pt x="348" y="51" on="0"/>
        <pt x="376" y="97" on="0"/>
        <pt x="394" y="171" on="0"/>
        <pt x="394" y="223" on="1"/>
        <pt x="394" y="316" on="0"/>
        <pt x="341" y="410" on="0"/>
        <pt x="303" y="410" on="1"/>
        <pt x="269" y="410" on="0"/>
        <pt x="218" y="377" on="0"/>
        <pt x="199" y="354" on="1"/>
      </contour>
    </TTGlyph>
</ttFont>
